%TF.GenerationSoftware,KiCad,Pcbnew,(5.1.12)-1*%
%TF.CreationDate,2022-08-06T16:23:42+02:00*%
%TF.ProjectId,PrototypV1_tx,50726f74-6f74-4797-9056-315f74782e6b,rev?*%
%TF.SameCoordinates,Original*%
%TF.FileFunction,Paste,Top*%
%TF.FilePolarity,Positive*%
%FSLAX46Y46*%
G04 Gerber Fmt 4.6, Leading zero omitted, Abs format (unit mm)*
G04 Created by KiCad (PCBNEW (5.1.12)-1) date 2022-08-06 16:23:42*
%MOMM*%
%LPD*%
G01*
G04 APERTURE LIST*
%ADD10R,1.300000X1.900000*%
%ADD11R,0.300000X1.475000*%
%ADD12R,1.475000X0.300000*%
G04 APERTURE END LIST*
G36*
G01*
X66825001Y-124250000D02*
X65574999Y-124250000D01*
G75*
G02*
X65325000Y-124000001I0J249999D01*
G01*
X65325000Y-123199999D01*
G75*
G02*
X65574999Y-122950000I249999J0D01*
G01*
X66825001Y-122950000D01*
G75*
G02*
X67075000Y-123199999I0J-249999D01*
G01*
X67075000Y-124000001D01*
G75*
G02*
X66825001Y-124250000I-249999J0D01*
G01*
G37*
G36*
G01*
X66825001Y-127350000D02*
X65574999Y-127350000D01*
G75*
G02*
X65325000Y-127100001I0J249999D01*
G01*
X65325000Y-126299999D01*
G75*
G02*
X65574999Y-126050000I249999J0D01*
G01*
X66825001Y-126050000D01*
G75*
G02*
X67075000Y-126299999I0J-249999D01*
G01*
X67075000Y-127100001D01*
G75*
G02*
X66825001Y-127350000I-249999J0D01*
G01*
G37*
G36*
G01*
X43700000Y-111149998D02*
X43700000Y-112450002D01*
G75*
G02*
X43450002Y-112700000I-249998J0D01*
G01*
X42624998Y-112700000D01*
G75*
G02*
X42375000Y-112450002I0J249998D01*
G01*
X42375000Y-111149998D01*
G75*
G02*
X42624998Y-110900000I249998J0D01*
G01*
X43450002Y-110900000D01*
G75*
G02*
X43700000Y-111149998I0J-249998D01*
G01*
G37*
G36*
G01*
X46825000Y-111149998D02*
X46825000Y-112450002D01*
G75*
G02*
X46575002Y-112700000I-249998J0D01*
G01*
X45749998Y-112700000D01*
G75*
G02*
X45500000Y-112450002I0J249998D01*
G01*
X45500000Y-111149998D01*
G75*
G02*
X45749998Y-110900000I249998J0D01*
G01*
X46575002Y-110900000D01*
G75*
G02*
X46825000Y-111149998I0J-249998D01*
G01*
G37*
G36*
G01*
X30949998Y-130300000D02*
X32250002Y-130300000D01*
G75*
G02*
X32500000Y-130549998I0J-249998D01*
G01*
X32500000Y-131375002D01*
G75*
G02*
X32250002Y-131625000I-249998J0D01*
G01*
X30949998Y-131625000D01*
G75*
G02*
X30700000Y-131375002I0J249998D01*
G01*
X30700000Y-130549998D01*
G75*
G02*
X30949998Y-130300000I249998J0D01*
G01*
G37*
G36*
G01*
X30949998Y-127175000D02*
X32250002Y-127175000D01*
G75*
G02*
X32500000Y-127424998I0J-249998D01*
G01*
X32500000Y-128250002D01*
G75*
G02*
X32250002Y-128500000I-249998J0D01*
G01*
X30949998Y-128500000D01*
G75*
G02*
X30700000Y-128250002I0J249998D01*
G01*
X30700000Y-127424998D01*
G75*
G02*
X30949998Y-127175000I249998J0D01*
G01*
G37*
G36*
G01*
X27149998Y-130300000D02*
X28450002Y-130300000D01*
G75*
G02*
X28700000Y-130549998I0J-249998D01*
G01*
X28700000Y-131375002D01*
G75*
G02*
X28450002Y-131625000I-249998J0D01*
G01*
X27149998Y-131625000D01*
G75*
G02*
X26900000Y-131375002I0J249998D01*
G01*
X26900000Y-130549998D01*
G75*
G02*
X27149998Y-130300000I249998J0D01*
G01*
G37*
G36*
G01*
X27149998Y-127175000D02*
X28450002Y-127175000D01*
G75*
G02*
X28700000Y-127424998I0J-249998D01*
G01*
X28700000Y-128250002D01*
G75*
G02*
X28450002Y-128500000I-249998J0D01*
G01*
X27149998Y-128500000D01*
G75*
G02*
X26900000Y-128250002I0J249998D01*
G01*
X26900000Y-127424998D01*
G75*
G02*
X27149998Y-127175000I249998J0D01*
G01*
G37*
G36*
G01*
X59650002Y-132100000D02*
X58349998Y-132100000D01*
G75*
G02*
X58100000Y-131850002I0J249998D01*
G01*
X58100000Y-131024998D01*
G75*
G02*
X58349998Y-130775000I249998J0D01*
G01*
X59650002Y-130775000D01*
G75*
G02*
X59900000Y-131024998I0J-249998D01*
G01*
X59900000Y-131850002D01*
G75*
G02*
X59650002Y-132100000I-249998J0D01*
G01*
G37*
G36*
G01*
X59650002Y-135225000D02*
X58349998Y-135225000D01*
G75*
G02*
X58100000Y-134975002I0J249998D01*
G01*
X58100000Y-134149998D01*
G75*
G02*
X58349998Y-133900000I249998J0D01*
G01*
X59650002Y-133900000D01*
G75*
G02*
X59900000Y-134149998I0J-249998D01*
G01*
X59900000Y-134975002D01*
G75*
G02*
X59650002Y-135225000I-249998J0D01*
G01*
G37*
G36*
G01*
X23549998Y-130300000D02*
X24850002Y-130300000D01*
G75*
G02*
X25100000Y-130549998I0J-249998D01*
G01*
X25100000Y-131375002D01*
G75*
G02*
X24850002Y-131625000I-249998J0D01*
G01*
X23549998Y-131625000D01*
G75*
G02*
X23300000Y-131375002I0J249998D01*
G01*
X23300000Y-130549998D01*
G75*
G02*
X23549998Y-130300000I249998J0D01*
G01*
G37*
G36*
G01*
X23549998Y-127175000D02*
X24850002Y-127175000D01*
G75*
G02*
X25100000Y-127424998I0J-249998D01*
G01*
X25100000Y-128250002D01*
G75*
G02*
X24850002Y-128500000I-249998J0D01*
G01*
X23549998Y-128500000D01*
G75*
G02*
X23300000Y-128250002I0J249998D01*
G01*
X23300000Y-127424998D01*
G75*
G02*
X23549998Y-127175000I249998J0D01*
G01*
G37*
G36*
G01*
X40150000Y-116900002D02*
X40150000Y-115599998D01*
G75*
G02*
X40399998Y-115350000I249998J0D01*
G01*
X41225002Y-115350000D01*
G75*
G02*
X41475000Y-115599998I0J-249998D01*
G01*
X41475000Y-116900002D01*
G75*
G02*
X41225002Y-117150000I-249998J0D01*
G01*
X40399998Y-117150000D01*
G75*
G02*
X40150000Y-116900002I0J249998D01*
G01*
G37*
G36*
G01*
X37025000Y-116900002D02*
X37025000Y-115599998D01*
G75*
G02*
X37274998Y-115350000I249998J0D01*
G01*
X38100002Y-115350000D01*
G75*
G02*
X38350000Y-115599998I0J-249998D01*
G01*
X38350000Y-116900002D01*
G75*
G02*
X38100002Y-117150000I-249998J0D01*
G01*
X37274998Y-117150000D01*
G75*
G02*
X37025000Y-116900002I0J249998D01*
G01*
G37*
G36*
G01*
X78350000Y-100099998D02*
X78350000Y-101400002D01*
G75*
G02*
X78100002Y-101650000I-249998J0D01*
G01*
X77274998Y-101650000D01*
G75*
G02*
X77025000Y-101400002I0J249998D01*
G01*
X77025000Y-100099998D01*
G75*
G02*
X77274998Y-99850000I249998J0D01*
G01*
X78100002Y-99850000D01*
G75*
G02*
X78350000Y-100099998I0J-249998D01*
G01*
G37*
G36*
G01*
X81475000Y-100099998D02*
X81475000Y-101400002D01*
G75*
G02*
X81225002Y-101650000I-249998J0D01*
G01*
X80399998Y-101650000D01*
G75*
G02*
X80150000Y-101400002I0J249998D01*
G01*
X80150000Y-100099998D01*
G75*
G02*
X80399998Y-99850000I249998J0D01*
G01*
X81225002Y-99850000D01*
G75*
G02*
X81475000Y-100099998I0J-249998D01*
G01*
G37*
G36*
G01*
X43600000Y-115599998D02*
X43600000Y-116900002D01*
G75*
G02*
X43350002Y-117150000I-249998J0D01*
G01*
X42524998Y-117150000D01*
G75*
G02*
X42275000Y-116900002I0J249998D01*
G01*
X42275000Y-115599998D01*
G75*
G02*
X42524998Y-115350000I249998J0D01*
G01*
X43350002Y-115350000D01*
G75*
G02*
X43600000Y-115599998I0J-249998D01*
G01*
G37*
G36*
G01*
X46725000Y-115599998D02*
X46725000Y-116900002D01*
G75*
G02*
X46475002Y-117150000I-249998J0D01*
G01*
X45649998Y-117150000D01*
G75*
G02*
X45400000Y-116900002I0J249998D01*
G01*
X45400000Y-115599998D01*
G75*
G02*
X45649998Y-115350000I249998J0D01*
G01*
X46475002Y-115350000D01*
G75*
G02*
X46725000Y-115599998I0J-249998D01*
G01*
G37*
G36*
G01*
X53662500Y-100599998D02*
X53662500Y-101900002D01*
G75*
G02*
X53412502Y-102150000I-249998J0D01*
G01*
X52587498Y-102150000D01*
G75*
G02*
X52337500Y-101900002I0J249998D01*
G01*
X52337500Y-100599998D01*
G75*
G02*
X52587498Y-100350000I249998J0D01*
G01*
X53412502Y-100350000D01*
G75*
G02*
X53662500Y-100599998I0J-249998D01*
G01*
G37*
G36*
G01*
X56787500Y-100599998D02*
X56787500Y-101900002D01*
G75*
G02*
X56537502Y-102150000I-249998J0D01*
G01*
X55712498Y-102150000D01*
G75*
G02*
X55462500Y-101900002I0J249998D01*
G01*
X55462500Y-100599998D01*
G75*
G02*
X55712498Y-100350000I249998J0D01*
G01*
X56537502Y-100350000D01*
G75*
G02*
X56787500Y-100599998I0J-249998D01*
G01*
G37*
D10*
X47500000Y-137650000D03*
X42000000Y-137650000D03*
X42000000Y-134450000D03*
X47500000Y-134450000D03*
G36*
G01*
X46900000Y-130650002D02*
X46900000Y-129349998D01*
G75*
G02*
X47149998Y-129100000I249998J0D01*
G01*
X47975002Y-129100000D01*
G75*
G02*
X48225000Y-129349998I0J-249998D01*
G01*
X48225000Y-130650002D01*
G75*
G02*
X47975002Y-130900000I-249998J0D01*
G01*
X47149998Y-130900000D01*
G75*
G02*
X46900000Y-130650002I0J249998D01*
G01*
G37*
G36*
G01*
X43775000Y-130650002D02*
X43775000Y-129349998D01*
G75*
G02*
X44024998Y-129100000I249998J0D01*
G01*
X44850002Y-129100000D01*
G75*
G02*
X45100000Y-129349998I0J-249998D01*
G01*
X45100000Y-130650002D01*
G75*
G02*
X44850002Y-130900000I-249998J0D01*
G01*
X44024998Y-130900000D01*
G75*
G02*
X43775000Y-130650002I0J249998D01*
G01*
G37*
G36*
G01*
X46900000Y-142650002D02*
X46900000Y-141349998D01*
G75*
G02*
X47149998Y-141100000I249998J0D01*
G01*
X47975002Y-141100000D01*
G75*
G02*
X48225000Y-141349998I0J-249998D01*
G01*
X48225000Y-142650002D01*
G75*
G02*
X47975002Y-142900000I-249998J0D01*
G01*
X47149998Y-142900000D01*
G75*
G02*
X46900000Y-142650002I0J249998D01*
G01*
G37*
G36*
G01*
X43775000Y-142650002D02*
X43775000Y-141349998D01*
G75*
G02*
X44024998Y-141100000I249998J0D01*
G01*
X44850002Y-141100000D01*
G75*
G02*
X45100000Y-141349998I0J-249998D01*
G01*
X45100000Y-142650002D01*
G75*
G02*
X44850002Y-142900000I-249998J0D01*
G01*
X44024998Y-142900000D01*
G75*
G02*
X43775000Y-142650002I0J249998D01*
G01*
G37*
G36*
G01*
X88700000Y-159225001D02*
X88700000Y-157974999D01*
G75*
G02*
X88949999Y-157725000I249999J0D01*
G01*
X89750001Y-157725000D01*
G75*
G02*
X90000000Y-157974999I0J-249999D01*
G01*
X90000000Y-159225001D01*
G75*
G02*
X89750001Y-159475000I-249999J0D01*
G01*
X88949999Y-159475000D01*
G75*
G02*
X88700000Y-159225001I0J249999D01*
G01*
G37*
G36*
G01*
X85600000Y-159225001D02*
X85600000Y-157974999D01*
G75*
G02*
X85849999Y-157725000I249999J0D01*
G01*
X86650001Y-157725000D01*
G75*
G02*
X86900000Y-157974999I0J-249999D01*
G01*
X86900000Y-159225001D01*
G75*
G02*
X86650001Y-159475000I-249999J0D01*
G01*
X85849999Y-159475000D01*
G75*
G02*
X85600000Y-159225001I0J249999D01*
G01*
G37*
G36*
G01*
X82850000Y-146374999D02*
X82850000Y-147625001D01*
G75*
G02*
X82600001Y-147875000I-249999J0D01*
G01*
X81799999Y-147875000D01*
G75*
G02*
X81550000Y-147625001I0J249999D01*
G01*
X81550000Y-146374999D01*
G75*
G02*
X81799999Y-146125000I249999J0D01*
G01*
X82600001Y-146125000D01*
G75*
G02*
X82850000Y-146374999I0J-249999D01*
G01*
G37*
G36*
G01*
X85950000Y-146374999D02*
X85950000Y-147625001D01*
G75*
G02*
X85700001Y-147875000I-249999J0D01*
G01*
X84899999Y-147875000D01*
G75*
G02*
X84650000Y-147625001I0J249999D01*
G01*
X84650000Y-146374999D01*
G75*
G02*
X84899999Y-146125000I249999J0D01*
G01*
X85700001Y-146125000D01*
G75*
G02*
X85950000Y-146374999I0J-249999D01*
G01*
G37*
G36*
G01*
X82850000Y-143624999D02*
X82850000Y-144875001D01*
G75*
G02*
X82600001Y-145125000I-249999J0D01*
G01*
X81799999Y-145125000D01*
G75*
G02*
X81550000Y-144875001I0J249999D01*
G01*
X81550000Y-143624999D01*
G75*
G02*
X81799999Y-143375000I249999J0D01*
G01*
X82600001Y-143375000D01*
G75*
G02*
X82850000Y-143624999I0J-249999D01*
G01*
G37*
G36*
G01*
X85950000Y-143624999D02*
X85950000Y-144875001D01*
G75*
G02*
X85700001Y-145125000I-249999J0D01*
G01*
X84899999Y-145125000D01*
G75*
G02*
X84650000Y-144875001I0J249999D01*
G01*
X84650000Y-143624999D01*
G75*
G02*
X84899999Y-143375000I249999J0D01*
G01*
X85700001Y-143375000D01*
G75*
G02*
X85950000Y-143624999I0J-249999D01*
G01*
G37*
G36*
G01*
X72225001Y-126900000D02*
X70974999Y-126900000D01*
G75*
G02*
X70725000Y-126650001I0J249999D01*
G01*
X70725000Y-125849999D01*
G75*
G02*
X70974999Y-125600000I249999J0D01*
G01*
X72225001Y-125600000D01*
G75*
G02*
X72475000Y-125849999I0J-249999D01*
G01*
X72475000Y-126650001D01*
G75*
G02*
X72225001Y-126900000I-249999J0D01*
G01*
G37*
G36*
G01*
X72225001Y-130000000D02*
X70974999Y-130000000D01*
G75*
G02*
X70725000Y-129750001I0J249999D01*
G01*
X70725000Y-128949999D01*
G75*
G02*
X70974999Y-128700000I249999J0D01*
G01*
X72225001Y-128700000D01*
G75*
G02*
X72475000Y-128949999I0J-249999D01*
G01*
X72475000Y-129750001D01*
G75*
G02*
X72225001Y-130000000I-249999J0D01*
G01*
G37*
G36*
G01*
X54624999Y-140400000D02*
X55875001Y-140400000D01*
G75*
G02*
X56125000Y-140649999I0J-249999D01*
G01*
X56125000Y-141450001D01*
G75*
G02*
X55875001Y-141700000I-249999J0D01*
G01*
X54624999Y-141700000D01*
G75*
G02*
X54375000Y-141450001I0J249999D01*
G01*
X54375000Y-140649999D01*
G75*
G02*
X54624999Y-140400000I249999J0D01*
G01*
G37*
G36*
G01*
X54624999Y-137300000D02*
X55875001Y-137300000D01*
G75*
G02*
X56125000Y-137549999I0J-249999D01*
G01*
X56125000Y-138350001D01*
G75*
G02*
X55875001Y-138600000I-249999J0D01*
G01*
X54624999Y-138600000D01*
G75*
G02*
X54375000Y-138350001I0J249999D01*
G01*
X54375000Y-137549999D01*
G75*
G02*
X54624999Y-137300000I249999J0D01*
G01*
G37*
G36*
G01*
X73374999Y-152400000D02*
X74625001Y-152400000D01*
G75*
G02*
X74875000Y-152649999I0J-249999D01*
G01*
X74875000Y-153450001D01*
G75*
G02*
X74625001Y-153700000I-249999J0D01*
G01*
X73374999Y-153700000D01*
G75*
G02*
X73125000Y-153450001I0J249999D01*
G01*
X73125000Y-152649999D01*
G75*
G02*
X73374999Y-152400000I249999J0D01*
G01*
G37*
G36*
G01*
X73374999Y-149300000D02*
X74625001Y-149300000D01*
G75*
G02*
X74875000Y-149549999I0J-249999D01*
G01*
X74875000Y-150350001D01*
G75*
G02*
X74625001Y-150600000I-249999J0D01*
G01*
X73374999Y-150600000D01*
G75*
G02*
X73125000Y-150350001I0J249999D01*
G01*
X73125000Y-149549999D01*
G75*
G02*
X73374999Y-149300000I249999J0D01*
G01*
G37*
D11*
X65250000Y-133412000D03*
X65750000Y-133412000D03*
X66250000Y-133412000D03*
X66750000Y-133412000D03*
X67250000Y-133412000D03*
X67750000Y-133412000D03*
X68250000Y-133412000D03*
X68750000Y-133412000D03*
X69250000Y-133412000D03*
X69750000Y-133412000D03*
X70250000Y-133412000D03*
X70750000Y-133412000D03*
D12*
X72238000Y-134900000D03*
X72238000Y-135400000D03*
X72238000Y-135900000D03*
X72238000Y-136400000D03*
X72238000Y-136900000D03*
X72238000Y-137400000D03*
X72238000Y-137900000D03*
X72238000Y-138400000D03*
X72238000Y-138900000D03*
X72238000Y-139400000D03*
X72238000Y-139900000D03*
X72238000Y-140400000D03*
D11*
X70750000Y-141888000D03*
X70250000Y-141888000D03*
X69750000Y-141888000D03*
X69250000Y-141888000D03*
X68750000Y-141888000D03*
X68250000Y-141888000D03*
X67750000Y-141888000D03*
X67250000Y-141888000D03*
X66750000Y-141888000D03*
X66250000Y-141888000D03*
X65750000Y-141888000D03*
X65250000Y-141888000D03*
D12*
X63762000Y-140400000D03*
X63762000Y-139900000D03*
X63762000Y-139400000D03*
X63762000Y-138900000D03*
X63762000Y-138400000D03*
X63762000Y-137900000D03*
X63762000Y-137400000D03*
X63762000Y-136900000D03*
X63762000Y-136400000D03*
X63762000Y-135900000D03*
X63762000Y-135400000D03*
X63762000Y-134900000D03*
G36*
G01*
X88575000Y-163825000D02*
X88575000Y-162575000D01*
G75*
G02*
X88825000Y-162325000I250000J0D01*
G01*
X89750000Y-162325000D01*
G75*
G02*
X90000000Y-162575000I0J-250000D01*
G01*
X90000000Y-163825000D01*
G75*
G02*
X89750000Y-164075000I-250000J0D01*
G01*
X88825000Y-164075000D01*
G75*
G02*
X88575000Y-163825000I0J250000D01*
G01*
G37*
G36*
G01*
X85600000Y-163825000D02*
X85600000Y-162575000D01*
G75*
G02*
X85850000Y-162325000I250000J0D01*
G01*
X86775000Y-162325000D01*
G75*
G02*
X87025000Y-162575000I0J-250000D01*
G01*
X87025000Y-163825000D01*
G75*
G02*
X86775000Y-164075000I-250000J0D01*
G01*
X85850000Y-164075000D01*
G75*
G02*
X85600000Y-163825000I0J250000D01*
G01*
G37*
G36*
G01*
X70975000Y-123175000D02*
X72225000Y-123175000D01*
G75*
G02*
X72475000Y-123425000I0J-250000D01*
G01*
X72475000Y-124350000D01*
G75*
G02*
X72225000Y-124600000I-250000J0D01*
G01*
X70975000Y-124600000D01*
G75*
G02*
X70725000Y-124350000I0J250000D01*
G01*
X70725000Y-123425000D01*
G75*
G02*
X70975000Y-123175000I250000J0D01*
G01*
G37*
G36*
G01*
X70975000Y-120200000D02*
X72225000Y-120200000D01*
G75*
G02*
X72475000Y-120450000I0J-250000D01*
G01*
X72475000Y-121375000D01*
G75*
G02*
X72225000Y-121625000I-250000J0D01*
G01*
X70975000Y-121625000D01*
G75*
G02*
X70725000Y-121375000I0J250000D01*
G01*
X70725000Y-120450000D01*
G75*
G02*
X70975000Y-120200000I250000J0D01*
G01*
G37*
G36*
G01*
X84349998Y-151900000D02*
X85650002Y-151900000D01*
G75*
G02*
X85900000Y-152149998I0J-249998D01*
G01*
X85900000Y-152975002D01*
G75*
G02*
X85650002Y-153225000I-249998J0D01*
G01*
X84349998Y-153225000D01*
G75*
G02*
X84100000Y-152975002I0J249998D01*
G01*
X84100000Y-152149998D01*
G75*
G02*
X84349998Y-151900000I249998J0D01*
G01*
G37*
G36*
G01*
X84349998Y-148775000D02*
X85650002Y-148775000D01*
G75*
G02*
X85900000Y-149024998I0J-249998D01*
G01*
X85900000Y-149850002D01*
G75*
G02*
X85650002Y-150100000I-249998J0D01*
G01*
X84349998Y-150100000D01*
G75*
G02*
X84100000Y-149850002I0J249998D01*
G01*
X84100000Y-149024998D01*
G75*
G02*
X84349998Y-148775000I249998J0D01*
G01*
G37*
G36*
G01*
X28950000Y-185950000D02*
X30050000Y-185950000D01*
G75*
G02*
X30300000Y-186200000I0J-250000D01*
G01*
X30300000Y-188700000D01*
G75*
G02*
X30050000Y-188950000I-250000J0D01*
G01*
X28950000Y-188950000D01*
G75*
G02*
X28700000Y-188700000I0J250000D01*
G01*
X28700000Y-186200000D01*
G75*
G02*
X28950000Y-185950000I250000J0D01*
G01*
G37*
G36*
G01*
X28950000Y-181550000D02*
X30050000Y-181550000D01*
G75*
G02*
X30300000Y-181800000I0J-250000D01*
G01*
X30300000Y-184300000D01*
G75*
G02*
X30050000Y-184550000I-250000J0D01*
G01*
X28950000Y-184550000D01*
G75*
G02*
X28700000Y-184300000I0J250000D01*
G01*
X28700000Y-181800000D01*
G75*
G02*
X28950000Y-181550000I250000J0D01*
G01*
G37*
G36*
G01*
X38150000Y-188650002D02*
X38150000Y-187349998D01*
G75*
G02*
X38399998Y-187100000I249998J0D01*
G01*
X39225002Y-187100000D01*
G75*
G02*
X39475000Y-187349998I0J-249998D01*
G01*
X39475000Y-188650002D01*
G75*
G02*
X39225002Y-188900000I-249998J0D01*
G01*
X38399998Y-188900000D01*
G75*
G02*
X38150000Y-188650002I0J249998D01*
G01*
G37*
G36*
G01*
X35025000Y-188650002D02*
X35025000Y-187349998D01*
G75*
G02*
X35274998Y-187100000I249998J0D01*
G01*
X36100002Y-187100000D01*
G75*
G02*
X36350000Y-187349998I0J-249998D01*
G01*
X36350000Y-188650002D01*
G75*
G02*
X36100002Y-188900000I-249998J0D01*
G01*
X35274998Y-188900000D01*
G75*
G02*
X35025000Y-188650002I0J249998D01*
G01*
G37*
G36*
G01*
X32200000Y-157700000D02*
X33300000Y-157700000D01*
G75*
G02*
X33550000Y-157950000I0J-250000D01*
G01*
X33550000Y-160450000D01*
G75*
G02*
X33300000Y-160700000I-250000J0D01*
G01*
X32200000Y-160700000D01*
G75*
G02*
X31950000Y-160450000I0J250000D01*
G01*
X31950000Y-157950000D01*
G75*
G02*
X32200000Y-157700000I250000J0D01*
G01*
G37*
G36*
G01*
X32200000Y-153300000D02*
X33300000Y-153300000D01*
G75*
G02*
X33550000Y-153550000I0J-250000D01*
G01*
X33550000Y-156050000D01*
G75*
G02*
X33300000Y-156300000I-250000J0D01*
G01*
X32200000Y-156300000D01*
G75*
G02*
X31950000Y-156050000I0J250000D01*
G01*
X31950000Y-153550000D01*
G75*
G02*
X32200000Y-153300000I250000J0D01*
G01*
G37*
G36*
G01*
X102900002Y-145100000D02*
X101599998Y-145100000D01*
G75*
G02*
X101350000Y-144850002I0J249998D01*
G01*
X101350000Y-144024998D01*
G75*
G02*
X101599998Y-143775000I249998J0D01*
G01*
X102900002Y-143775000D01*
G75*
G02*
X103150000Y-144024998I0J-249998D01*
G01*
X103150000Y-144850002D01*
G75*
G02*
X102900002Y-145100000I-249998J0D01*
G01*
G37*
G36*
G01*
X102900002Y-148225000D02*
X101599998Y-148225000D01*
G75*
G02*
X101350000Y-147975002I0J249998D01*
G01*
X101350000Y-147149998D01*
G75*
G02*
X101599998Y-146900000I249998J0D01*
G01*
X102900002Y-146900000D01*
G75*
G02*
X103150000Y-147149998I0J-249998D01*
G01*
X103150000Y-147975002D01*
G75*
G02*
X102900002Y-148225000I-249998J0D01*
G01*
G37*
G36*
G01*
X52250000Y-126700000D02*
X52250000Y-127800000D01*
G75*
G02*
X52000000Y-128050000I-250000J0D01*
G01*
X49900000Y-128050000D01*
G75*
G02*
X49650000Y-127800000I0J250000D01*
G01*
X49650000Y-126700000D01*
G75*
G02*
X49900000Y-126450000I250000J0D01*
G01*
X52000000Y-126450000D01*
G75*
G02*
X52250000Y-126700000I0J-250000D01*
G01*
G37*
G36*
G01*
X55850000Y-126700000D02*
X55850000Y-127800000D01*
G75*
G02*
X55600000Y-128050000I-250000J0D01*
G01*
X53500000Y-128050000D01*
G75*
G02*
X53250000Y-127800000I0J250000D01*
G01*
X53250000Y-126700000D01*
G75*
G02*
X53500000Y-126450000I250000J0D01*
G01*
X55600000Y-126450000D01*
G75*
G02*
X55850000Y-126700000I0J-250000D01*
G01*
G37*
G36*
G01*
X40950000Y-165950000D02*
X42050000Y-165950000D01*
G75*
G02*
X42300000Y-166200000I0J-250000D01*
G01*
X42300000Y-168700000D01*
G75*
G02*
X42050000Y-168950000I-250000J0D01*
G01*
X40950000Y-168950000D01*
G75*
G02*
X40700000Y-168700000I0J250000D01*
G01*
X40700000Y-166200000D01*
G75*
G02*
X40950000Y-165950000I250000J0D01*
G01*
G37*
G36*
G01*
X40950000Y-161550000D02*
X42050000Y-161550000D01*
G75*
G02*
X42300000Y-161800000I0J-250000D01*
G01*
X42300000Y-164300000D01*
G75*
G02*
X42050000Y-164550000I-250000J0D01*
G01*
X40950000Y-164550000D01*
G75*
G02*
X40700000Y-164300000I0J250000D01*
G01*
X40700000Y-161800000D01*
G75*
G02*
X40950000Y-161550000I250000J0D01*
G01*
G37*
G36*
G01*
X77599998Y-134650000D02*
X78900002Y-134650000D01*
G75*
G02*
X79150000Y-134899998I0J-249998D01*
G01*
X79150000Y-135725002D01*
G75*
G02*
X78900002Y-135975000I-249998J0D01*
G01*
X77599998Y-135975000D01*
G75*
G02*
X77350000Y-135725002I0J249998D01*
G01*
X77350000Y-134899998D01*
G75*
G02*
X77599998Y-134650000I249998J0D01*
G01*
G37*
G36*
G01*
X77599998Y-131525000D02*
X78900002Y-131525000D01*
G75*
G02*
X79150000Y-131774998I0J-249998D01*
G01*
X79150000Y-132600002D01*
G75*
G02*
X78900002Y-132850000I-249998J0D01*
G01*
X77599998Y-132850000D01*
G75*
G02*
X77350000Y-132600002I0J249998D01*
G01*
X77350000Y-131774998D01*
G75*
G02*
X77599998Y-131525000I249998J0D01*
G01*
G37*
G36*
G01*
X58349998Y-143300000D02*
X59650002Y-143300000D01*
G75*
G02*
X59900000Y-143549998I0J-249998D01*
G01*
X59900000Y-144375002D01*
G75*
G02*
X59650002Y-144625000I-249998J0D01*
G01*
X58349998Y-144625000D01*
G75*
G02*
X58100000Y-144375002I0J249998D01*
G01*
X58100000Y-143549998D01*
G75*
G02*
X58349998Y-143300000I249998J0D01*
G01*
G37*
G36*
G01*
X58349998Y-140175000D02*
X59650002Y-140175000D01*
G75*
G02*
X59900000Y-140424998I0J-249998D01*
G01*
X59900000Y-141250002D01*
G75*
G02*
X59650002Y-141500000I-249998J0D01*
G01*
X58349998Y-141500000D01*
G75*
G02*
X58100000Y-141250002I0J249998D01*
G01*
X58100000Y-140424998D01*
G75*
G02*
X58349998Y-140175000I249998J0D01*
G01*
G37*
G36*
G01*
X73600000Y-145000002D02*
X73600000Y-143699998D01*
G75*
G02*
X73849998Y-143450000I249998J0D01*
G01*
X74675002Y-143450000D01*
G75*
G02*
X74925000Y-143699998I0J-249998D01*
G01*
X74925000Y-145000002D01*
G75*
G02*
X74675002Y-145250000I-249998J0D01*
G01*
X73849998Y-145250000D01*
G75*
G02*
X73600000Y-145000002I0J249998D01*
G01*
G37*
G36*
G01*
X70475000Y-145000002D02*
X70475000Y-143699998D01*
G75*
G02*
X70724998Y-143450000I249998J0D01*
G01*
X71550002Y-143450000D01*
G75*
G02*
X71800000Y-143699998I0J-249998D01*
G01*
X71800000Y-145000002D01*
G75*
G02*
X71550002Y-145250000I-249998J0D01*
G01*
X70724998Y-145250000D01*
G75*
G02*
X70475000Y-145000002I0J249998D01*
G01*
G37*
G36*
G01*
X59650002Y-127100000D02*
X58349998Y-127100000D01*
G75*
G02*
X58100000Y-126850002I0J249998D01*
G01*
X58100000Y-126024998D01*
G75*
G02*
X58349998Y-125775000I249998J0D01*
G01*
X59650002Y-125775000D01*
G75*
G02*
X59900000Y-126024998I0J-249998D01*
G01*
X59900000Y-126850002D01*
G75*
G02*
X59650002Y-127100000I-249998J0D01*
G01*
G37*
G36*
G01*
X59650002Y-130225000D02*
X58349998Y-130225000D01*
G75*
G02*
X58100000Y-129975002I0J249998D01*
G01*
X58100000Y-129149998D01*
G75*
G02*
X58349998Y-128900000I249998J0D01*
G01*
X59650002Y-128900000D01*
G75*
G02*
X59900000Y-129149998I0J-249998D01*
G01*
X59900000Y-129975002D01*
G75*
G02*
X59650002Y-130225000I-249998J0D01*
G01*
G37*
G36*
G01*
X30400000Y-143950000D02*
X28400000Y-143950000D01*
G75*
G02*
X28150000Y-143700000I0J250000D01*
G01*
X28150000Y-139800000D01*
G75*
G02*
X28400000Y-139550000I250000J0D01*
G01*
X30400000Y-139550000D01*
G75*
G02*
X30650000Y-139800000I0J-250000D01*
G01*
X30650000Y-143700000D01*
G75*
G02*
X30400000Y-143950000I-250000J0D01*
G01*
G37*
G36*
G01*
X30400000Y-151350000D02*
X28400000Y-151350000D01*
G75*
G02*
X28150000Y-151100000I0J250000D01*
G01*
X28150000Y-147200000D01*
G75*
G02*
X28400000Y-146950000I250000J0D01*
G01*
X30400000Y-146950000D01*
G75*
G02*
X30650000Y-147200000I0J-250000D01*
G01*
X30650000Y-151100000D01*
G75*
G02*
X30400000Y-151350000I-250000J0D01*
G01*
G37*
G36*
G01*
X25250002Y-155350000D02*
X23949998Y-155350000D01*
G75*
G02*
X23700000Y-155100002I0J249998D01*
G01*
X23700000Y-154274998D01*
G75*
G02*
X23949998Y-154025000I249998J0D01*
G01*
X25250002Y-154025000D01*
G75*
G02*
X25500000Y-154274998I0J-249998D01*
G01*
X25500000Y-155100002D01*
G75*
G02*
X25250002Y-155350000I-249998J0D01*
G01*
G37*
G36*
G01*
X25250002Y-158475000D02*
X23949998Y-158475000D01*
G75*
G02*
X23700000Y-158225002I0J249998D01*
G01*
X23700000Y-157399998D01*
G75*
G02*
X23949998Y-157150000I249998J0D01*
G01*
X25250002Y-157150000D01*
G75*
G02*
X25500000Y-157399998I0J-249998D01*
G01*
X25500000Y-158225002D01*
G75*
G02*
X25250002Y-158475000I-249998J0D01*
G01*
G37*
G36*
G01*
X25250002Y-162587500D02*
X23949998Y-162587500D01*
G75*
G02*
X23700000Y-162337502I0J249998D01*
G01*
X23700000Y-161512498D01*
G75*
G02*
X23949998Y-161262500I249998J0D01*
G01*
X25250002Y-161262500D01*
G75*
G02*
X25500000Y-161512498I0J-249998D01*
G01*
X25500000Y-162337502D01*
G75*
G02*
X25250002Y-162587500I-249998J0D01*
G01*
G37*
G36*
G01*
X25250002Y-165712500D02*
X23949998Y-165712500D01*
G75*
G02*
X23700000Y-165462502I0J249998D01*
G01*
X23700000Y-164637498D01*
G75*
G02*
X23949998Y-164387500I249998J0D01*
G01*
X25250002Y-164387500D01*
G75*
G02*
X25500000Y-164637498I0J-249998D01*
G01*
X25500000Y-165462502D01*
G75*
G02*
X25250002Y-165712500I-249998J0D01*
G01*
G37*
G36*
G01*
X23549998Y-179750000D02*
X24850002Y-179750000D01*
G75*
G02*
X25100000Y-179999998I0J-249998D01*
G01*
X25100000Y-180825002D01*
G75*
G02*
X24850002Y-181075000I-249998J0D01*
G01*
X23549998Y-181075000D01*
G75*
G02*
X23300000Y-180825002I0J249998D01*
G01*
X23300000Y-179999998D01*
G75*
G02*
X23549998Y-179750000I249998J0D01*
G01*
G37*
G36*
G01*
X23549998Y-176625000D02*
X24850002Y-176625000D01*
G75*
G02*
X25100000Y-176874998I0J-249998D01*
G01*
X25100000Y-177700002D01*
G75*
G02*
X24850002Y-177950000I-249998J0D01*
G01*
X23549998Y-177950000D01*
G75*
G02*
X23300000Y-177700002I0J249998D01*
G01*
X23300000Y-176874998D01*
G75*
G02*
X23549998Y-176625000I249998J0D01*
G01*
G37*
G36*
G01*
X24850002Y-184350000D02*
X23549998Y-184350000D01*
G75*
G02*
X23300000Y-184100002I0J249998D01*
G01*
X23300000Y-183274998D01*
G75*
G02*
X23549998Y-183025000I249998J0D01*
G01*
X24850002Y-183025000D01*
G75*
G02*
X25100000Y-183274998I0J-249998D01*
G01*
X25100000Y-184100002D01*
G75*
G02*
X24850002Y-184350000I-249998J0D01*
G01*
G37*
G36*
G01*
X24850002Y-187475000D02*
X23549998Y-187475000D01*
G75*
G02*
X23300000Y-187225002I0J249998D01*
G01*
X23300000Y-186399998D01*
G75*
G02*
X23549998Y-186150000I249998J0D01*
G01*
X24850002Y-186150000D01*
G75*
G02*
X25100000Y-186399998I0J-249998D01*
G01*
X25100000Y-187225002D01*
G75*
G02*
X24850002Y-187475000I-249998J0D01*
G01*
G37*
M02*
