%TF.GenerationSoftware,KiCad,Pcbnew,(5.1.12)-1*%
%TF.CreationDate,2022-08-06T16:23:42+02:00*%
%TF.ProjectId,PrototypV1_tx,50726f74-6f74-4797-9056-315f74782e6b,rev?*%
%TF.SameCoordinates,Original*%
%TF.FileFunction,Copper,L2,Bot*%
%TF.FilePolarity,Positive*%
%FSLAX46Y46*%
G04 Gerber Fmt 4.6, Leading zero omitted, Abs format (unit mm)*
G04 Created by KiCad (PCBNEW (5.1.12)-1) date 2022-08-06 16:23:42*
%MOMM*%
%LPD*%
G01*
G04 APERTURE LIST*
%TA.AperFunction,ComponentPad*%
%ADD10O,1.700000X1.700000*%
%TD*%
%TA.AperFunction,ComponentPad*%
%ADD11R,1.700000X1.700000*%
%TD*%
%TA.AperFunction,ComponentPad*%
%ADD12C,4.000000*%
%TD*%
%TA.AperFunction,ComponentPad*%
%ADD13O,2.000000X1.905000*%
%TD*%
%TA.AperFunction,ComponentPad*%
%ADD14R,2.000000X1.905000*%
%TD*%
%TA.AperFunction,ComponentPad*%
%ADD15R,1.500000X1.050000*%
%TD*%
%TA.AperFunction,ComponentPad*%
%ADD16O,1.500000X1.050000*%
%TD*%
%TA.AperFunction,ViaPad*%
%ADD17C,0.800000*%
%TD*%
%TA.AperFunction,Conductor*%
%ADD18C,0.750000*%
%TD*%
%TA.AperFunction,Conductor*%
%ADD19C,0.250000*%
%TD*%
%TA.AperFunction,Conductor*%
%ADD20C,0.200000*%
%TD*%
G04 APERTURE END LIST*
D10*
X49940000Y-177000000D03*
D11*
X47400000Y-177000000D03*
D10*
X96600000Y-132140000D03*
D11*
X96600000Y-129600000D03*
X80200000Y-158600000D03*
D12*
X110600000Y-98200000D03*
D11*
X106600000Y-111200000D03*
D12*
X17400000Y-191800000D03*
D11*
X94000000Y-188200000D03*
X18200000Y-137600000D03*
D10*
X100240000Y-105200000D03*
X97700000Y-105200000D03*
X95160000Y-105200000D03*
X92620000Y-105200000D03*
X90080000Y-105200000D03*
X87540000Y-105200000D03*
D11*
X85000000Y-105200000D03*
D10*
X94200000Y-157540000D03*
X94200000Y-160080000D03*
X94200000Y-162620000D03*
X94200000Y-165160000D03*
X94200000Y-167700000D03*
X94200000Y-170240000D03*
X94200000Y-172780000D03*
X94200000Y-175320000D03*
X94200000Y-177860000D03*
D11*
X94200000Y-180400000D03*
D10*
X19400000Y-130740000D03*
D11*
X19400000Y-128200000D03*
D13*
X20400000Y-179320000D03*
X20400000Y-181860000D03*
D14*
X20400000Y-184400000D03*
D15*
X78500000Y-154750000D03*
D16*
X78500000Y-152210000D03*
X78500000Y-153480000D03*
D10*
X88750000Y-152080000D03*
X88750000Y-149540000D03*
D11*
X88750000Y-147000000D03*
D10*
X96500000Y-136840000D03*
X96500000Y-139380000D03*
X96500000Y-141920000D03*
X96500000Y-144460000D03*
D11*
X96500000Y-147000000D03*
D10*
X102600000Y-126200000D03*
X102600000Y-123660000D03*
X102600000Y-121120000D03*
X102600000Y-118580000D03*
D11*
X102600000Y-116040000D03*
D10*
X78980000Y-163050000D03*
X76440000Y-163050000D03*
X73900000Y-163050000D03*
X71360000Y-163050000D03*
X68820000Y-163050000D03*
X66280000Y-163050000D03*
X63740000Y-163050000D03*
D11*
X61200000Y-163050000D03*
D10*
X73840000Y-168650000D03*
X71300000Y-168650000D03*
X68760000Y-168650000D03*
X66220000Y-168650000D03*
X63680000Y-168650000D03*
X61140000Y-168650000D03*
D11*
X58600000Y-168650000D03*
D10*
X20740000Y-146190000D03*
X18200000Y-146190000D03*
X20740000Y-143650000D03*
D11*
X18200000Y-143650000D03*
D10*
X73900000Y-173650000D03*
X71360000Y-173650000D03*
X68820000Y-173650000D03*
X66280000Y-173650000D03*
X63740000Y-173650000D03*
D11*
X61200000Y-173650000D03*
D10*
X53530000Y-183000000D03*
X50990000Y-183000000D03*
X48450000Y-183000000D03*
X45910000Y-183000000D03*
X43370000Y-183000000D03*
X40830000Y-183000000D03*
X38290000Y-183000000D03*
D11*
X35750000Y-183000000D03*
D10*
X45830000Y-120750000D03*
X43290000Y-120750000D03*
X40750000Y-120750000D03*
X38210000Y-120750000D03*
D11*
X35670000Y-120750000D03*
D10*
X80620000Y-105250000D03*
X78080000Y-105250000D03*
X75540000Y-105250000D03*
X73000000Y-105250000D03*
X70460000Y-105250000D03*
X67920000Y-105250000D03*
X65380000Y-105250000D03*
D11*
X62840000Y-105250000D03*
D10*
X57950000Y-105500000D03*
X55410000Y-105500000D03*
X52870000Y-105500000D03*
X50330000Y-105500000D03*
X47790000Y-105500000D03*
D11*
X45250000Y-105500000D03*
D13*
X20400000Y-157170000D03*
X20400000Y-159710000D03*
D14*
X20400000Y-162250000D03*
D17*
X33800000Y-131000000D03*
X84600000Y-163000000D03*
X44500000Y-136000000D03*
X22637500Y-157812500D03*
X57062500Y-126687500D03*
X51800000Y-139400000D03*
X60200000Y-150400000D03*
X75850000Y-144350000D03*
X80437500Y-135500000D03*
X29400000Y-190600000D03*
X61000000Y-131000000D03*
X66200000Y-122400000D03*
X73156250Y-119356250D03*
X74056250Y-118456250D03*
X74956250Y-117556250D03*
X75856250Y-116656250D03*
X76715001Y-115684999D03*
X76715001Y-114484999D03*
X50950000Y-128800000D03*
X44437500Y-143562500D03*
X44437500Y-144562500D03*
X63000000Y-142750000D03*
X63000000Y-132750000D03*
X38250000Y-163050000D03*
X37200000Y-163050000D03*
X51000000Y-132500000D03*
X52250000Y-133000000D03*
X82600000Y-135800000D03*
X79200000Y-142000000D03*
X66600000Y-116800000D03*
X72250000Y-116750000D03*
X69000000Y-116750000D03*
X70000000Y-116750000D03*
X71000000Y-116750000D03*
X71400000Y-131200000D03*
X76250000Y-135750000D03*
X78000000Y-137000000D03*
X75000000Y-141500000D03*
X84800000Y-158400000D03*
X72500000Y-141500000D03*
X79000000Y-171800000D03*
X66750000Y-145400010D03*
X65100000Y-144313590D03*
X63000000Y-145750000D03*
X61750000Y-145750000D03*
X60750000Y-140750000D03*
X60750000Y-139750000D03*
X73800000Y-131800000D03*
X61250000Y-135000000D03*
X49013499Y-131586501D03*
X42813499Y-131586501D03*
D18*
X37200000Y-163050000D02*
X37200000Y-146300000D01*
X37200000Y-146300000D02*
X51000000Y-132500000D01*
X51000000Y-132500000D02*
X51000000Y-132500000D01*
X51500000Y-133000000D02*
X51500000Y-133000000D01*
X51500000Y-133000000D02*
X51500000Y-133000000D01*
X51500000Y-133000000D02*
X37950000Y-146550000D01*
X52250000Y-133000000D02*
X51500000Y-133000000D01*
X38250000Y-146850000D02*
X37950000Y-146550000D01*
X38250000Y-163050000D02*
X38250000Y-146850000D01*
X37950000Y-146550000D02*
X37950000Y-162800000D01*
X79194999Y-106675001D02*
X80620000Y-105250000D01*
X59125001Y-106675001D02*
X79194999Y-106675001D01*
X57950000Y-105500000D02*
X59125001Y-106675001D01*
X43939999Y-104074999D02*
X41600000Y-106414998D01*
X56524999Y-104074999D02*
X43939999Y-104074999D01*
X57950000Y-105500000D02*
X56524999Y-104074999D01*
X41600000Y-116520000D02*
X45830000Y-120750000D01*
X41600000Y-106414998D02*
X41600000Y-116520000D01*
X82600000Y-135800000D02*
X82600000Y-138600000D01*
X82600000Y-138600000D02*
X79200000Y-142000000D01*
X79200000Y-142000000D02*
X79200000Y-142000000D01*
D19*
X57285011Y-107375011D02*
X55410000Y-105500000D01*
X98064989Y-107375011D02*
X57285011Y-107375011D01*
X100240000Y-105200000D02*
X98064989Y-107375011D01*
X67375001Y-116024999D02*
X66600000Y-116800000D01*
X71348001Y-116024999D02*
X67375001Y-116024999D01*
X72073002Y-116750000D02*
X71348001Y-116024999D01*
X72250000Y-116750000D02*
X72073002Y-116750000D01*
X76715001Y-104074999D02*
X75540000Y-105250000D01*
X83874999Y-104074999D02*
X76715001Y-104074999D01*
X85000000Y-105200000D02*
X83874999Y-104074999D01*
X66515050Y-101574950D02*
X62840000Y-105250000D01*
X94074950Y-101574950D02*
X66515050Y-101574950D01*
X97700000Y-105200000D02*
X94074950Y-101574950D01*
X95160000Y-105200000D02*
X91984960Y-102024960D01*
X68605040Y-102024960D02*
X65380000Y-105250000D01*
X91984960Y-102024960D02*
X68605040Y-102024960D01*
X68224999Y-117525001D02*
X69000000Y-116750000D01*
X57275001Y-117525001D02*
X68224999Y-117525001D01*
X45250000Y-105500000D02*
X57275001Y-117525001D01*
X92620000Y-105200000D02*
X89894970Y-102474970D01*
X70695030Y-102474970D02*
X67920000Y-105250000D01*
X89894970Y-102474970D02*
X70695030Y-102474970D01*
X87804979Y-102924979D02*
X72785020Y-102924980D01*
X72785020Y-102924980D02*
X70460000Y-105250000D01*
X90080000Y-105200000D02*
X87804979Y-102924979D01*
X74875011Y-103374989D02*
X73000000Y-105250000D01*
X85714989Y-103374989D02*
X74875011Y-103374989D01*
X87540000Y-105200000D02*
X85714989Y-103374989D01*
X72725001Y-132525001D02*
X74274999Y-132525001D01*
X71400000Y-131200000D02*
X72725001Y-132525001D01*
X83140000Y-123660000D02*
X102600000Y-123660000D01*
X74274999Y-132525001D02*
X83140000Y-123660000D01*
X102600000Y-126200000D02*
X100510010Y-124110010D01*
X87889990Y-124110010D02*
X76250000Y-135750000D01*
X100510010Y-124110010D02*
X87889990Y-124110010D01*
X75250000Y-137000000D02*
X78000000Y-137000000D01*
X74500000Y-136250000D02*
X75250000Y-137000000D01*
X72090588Y-136250000D02*
X74500000Y-136250000D01*
X63348001Y-146475001D02*
X64374999Y-145448003D01*
X62911409Y-146475001D02*
X63348001Y-146475001D01*
X64374999Y-143965589D02*
X72090588Y-136250000D01*
X61743196Y-147643214D02*
X62911409Y-146475001D01*
X64374999Y-145448003D02*
X64374999Y-143965589D01*
X61129605Y-147643215D02*
X61743196Y-147643214D01*
X44270020Y-164502800D02*
X61129605Y-147643215D01*
X44270020Y-178820020D02*
X44270020Y-164502800D01*
X48450000Y-183000000D02*
X44270020Y-178820020D01*
X75436400Y-136549990D02*
X74636410Y-135750000D01*
X77377008Y-136549990D02*
X75436400Y-136549990D01*
X77651999Y-136274999D02*
X77377008Y-136549990D01*
X78348001Y-136274999D02*
X77651999Y-136274999D01*
X78725001Y-136651999D02*
X78348001Y-136274999D01*
X78725001Y-137774999D02*
X78725001Y-136651999D01*
X75000000Y-141500000D02*
X78725001Y-137774999D01*
X74636410Y-135750000D02*
X63250000Y-135750000D01*
X45500000Y-125500000D02*
X40750000Y-120750000D01*
X53000000Y-125500000D02*
X45500000Y-125500000D01*
X63250000Y-135750000D02*
X53000000Y-125500000D01*
X72500000Y-142073002D02*
X72500000Y-141500000D01*
X84800000Y-154373002D02*
X72500000Y-142073002D01*
X84800000Y-158400000D02*
X84800000Y-154373002D01*
X76990000Y-171800000D02*
X73840000Y-168650000D01*
X79000000Y-171800000D02*
X76990000Y-171800000D01*
X88710000Y-172780000D02*
X78980000Y-163050000D01*
X94200000Y-172780000D02*
X88710000Y-172780000D01*
X77240998Y-163050000D02*
X76440000Y-163050000D01*
X89510998Y-175320000D02*
X77240998Y-163050000D01*
X94200000Y-175320000D02*
X89510998Y-175320000D01*
X88710000Y-177860000D02*
X73900000Y-163050000D01*
X94200000Y-177860000D02*
X88710000Y-177860000D01*
X83050000Y-180400000D02*
X94200000Y-180400000D01*
X71300000Y-168650000D02*
X83050000Y-180400000D01*
X69995001Y-169745001D02*
X69995001Y-158845001D01*
X73900000Y-173650000D02*
X69995001Y-169745001D01*
X66750000Y-155600000D02*
X66750000Y-145400010D01*
X69995001Y-158845001D02*
X66750000Y-155600000D01*
X65100000Y-156864998D02*
X65100000Y-144313590D01*
X58600000Y-163364998D02*
X65100000Y-156864998D01*
X58600000Y-168650000D02*
X58600000Y-163364998D01*
X45910000Y-183000000D02*
X43820010Y-180910010D01*
X63000000Y-145750000D02*
X61556795Y-147193205D01*
X61556795Y-147193205D02*
X60943205Y-147193205D01*
X60943205Y-147193205D02*
X43820010Y-164316400D01*
X43820010Y-164316400D02*
X43820010Y-180910010D01*
X43370000Y-164130000D02*
X43370000Y-183000000D01*
X61750000Y-145750000D02*
X43370000Y-164130000D01*
X52975001Y-132651999D02*
X49323002Y-129000000D01*
X52975001Y-135798003D02*
X52975001Y-132651999D01*
X57926998Y-140750000D02*
X52975001Y-135798003D01*
X60750000Y-140750000D02*
X57926998Y-140750000D01*
X43920000Y-129000000D02*
X35670000Y-120750000D01*
X49323002Y-129000000D02*
X43920000Y-129000000D01*
X60750000Y-139750000D02*
X49346795Y-128346795D01*
X45806795Y-128346795D02*
X38210000Y-120750000D01*
X49346795Y-128346795D02*
X45806795Y-128346795D01*
X73800000Y-131800000D02*
X88800000Y-116800000D01*
X101840000Y-116800000D02*
X102600000Y-116040000D01*
X88800000Y-116800000D02*
X101840000Y-116800000D01*
X61437501Y-135187501D02*
X61250000Y-135000000D01*
X60681795Y-145066207D02*
X61437501Y-144310501D01*
X60681795Y-146181795D02*
X60681795Y-145066207D01*
X42919991Y-163943599D02*
X60681795Y-146181795D01*
X42919990Y-174750000D02*
X42919991Y-163943599D01*
X40830000Y-176839990D02*
X42919990Y-174750000D01*
X40830000Y-183000000D02*
X40830000Y-176839990D01*
X61725001Y-135475001D02*
X61250000Y-135000000D01*
X61725001Y-140848001D02*
X61725001Y-135475001D01*
X61437501Y-141135501D02*
X61725001Y-140848001D01*
X61437501Y-144310501D02*
X61437501Y-141135501D01*
X49013499Y-131586501D02*
X42813499Y-131586501D01*
X42813499Y-131586501D02*
X42813499Y-131586501D01*
D20*
X113650000Y-194650000D02*
X14599749Y-194650000D01*
X14571603Y-183447500D01*
X19098549Y-183447500D01*
X19098549Y-185352500D01*
X19104341Y-185411310D01*
X19121496Y-185467860D01*
X19149353Y-185519977D01*
X19186842Y-185565658D01*
X19232523Y-185603147D01*
X19284640Y-185631004D01*
X19341190Y-185648159D01*
X19400000Y-185653951D01*
X21400000Y-185653951D01*
X21458810Y-185648159D01*
X21515360Y-185631004D01*
X21567477Y-185603147D01*
X21613158Y-185565658D01*
X21650647Y-185519977D01*
X21678504Y-185467860D01*
X21695659Y-185411310D01*
X21701451Y-185352500D01*
X21701451Y-183447500D01*
X21695659Y-183388690D01*
X21678504Y-183332140D01*
X21650647Y-183280023D01*
X21613158Y-183234342D01*
X21567477Y-183196853D01*
X21515360Y-183168996D01*
X21458810Y-183151841D01*
X21400000Y-183146049D01*
X19400000Y-183146049D01*
X19341190Y-183151841D01*
X19284640Y-183168996D01*
X19232523Y-183196853D01*
X19186842Y-183234342D01*
X19149353Y-183280023D01*
X19121496Y-183332140D01*
X19104341Y-183388690D01*
X19098549Y-183447500D01*
X14571603Y-183447500D01*
X14568343Y-182150000D01*
X34598549Y-182150000D01*
X34598549Y-183850000D01*
X34604341Y-183908810D01*
X34621496Y-183965360D01*
X34649353Y-184017477D01*
X34686842Y-184063158D01*
X34732523Y-184100647D01*
X34784640Y-184128504D01*
X34841190Y-184145659D01*
X34900000Y-184151451D01*
X36600000Y-184151451D01*
X36658810Y-184145659D01*
X36715360Y-184128504D01*
X36767477Y-184100647D01*
X36813158Y-184063158D01*
X36850647Y-184017477D01*
X36878504Y-183965360D01*
X36895659Y-183908810D01*
X36901451Y-183850000D01*
X36901451Y-182150000D01*
X36895659Y-182091190D01*
X36878504Y-182034640D01*
X36850647Y-181982523D01*
X36813158Y-181936842D01*
X36767477Y-181899353D01*
X36715360Y-181871496D01*
X36658810Y-181854341D01*
X36600000Y-181848549D01*
X34900000Y-181848549D01*
X34841190Y-181854341D01*
X34784640Y-181871496D01*
X34732523Y-181899353D01*
X34686842Y-181936842D01*
X34649353Y-181982523D01*
X34621496Y-182034640D01*
X34604341Y-182091190D01*
X34598549Y-182150000D01*
X14568343Y-182150000D01*
X14561232Y-179320000D01*
X19093940Y-179320000D01*
X19118123Y-179565533D01*
X19189742Y-179801630D01*
X19306046Y-180019218D01*
X19462564Y-180209936D01*
X19653282Y-180366454D01*
X19870870Y-180482758D01*
X20106967Y-180554377D01*
X20290972Y-180572500D01*
X20509028Y-180572500D01*
X20693033Y-180554377D01*
X20929130Y-180482758D01*
X21146718Y-180366454D01*
X21337436Y-180209936D01*
X21493954Y-180019218D01*
X21610258Y-179801630D01*
X21681877Y-179565533D01*
X21706060Y-179320000D01*
X21681877Y-179074467D01*
X21610258Y-178838370D01*
X21493954Y-178620782D01*
X21337436Y-178430064D01*
X21146718Y-178273546D01*
X20929130Y-178157242D01*
X20693033Y-178085623D01*
X20509028Y-178067500D01*
X20290972Y-178067500D01*
X20106967Y-178085623D01*
X19870870Y-178157242D01*
X19653282Y-178273546D01*
X19462564Y-178430064D01*
X19306046Y-178620782D01*
X19189742Y-178838370D01*
X19118123Y-179074467D01*
X19093940Y-179320000D01*
X14561232Y-179320000D01*
X14511961Y-159710000D01*
X19093940Y-159710000D01*
X19118123Y-159955533D01*
X19189742Y-160191630D01*
X19306046Y-160409218D01*
X19462564Y-160599936D01*
X19653282Y-160756454D01*
X19870870Y-160872758D01*
X20106967Y-160944377D01*
X20290972Y-160962500D01*
X20509028Y-160962500D01*
X20693033Y-160944377D01*
X20929130Y-160872758D01*
X21146718Y-160756454D01*
X21337436Y-160599936D01*
X21493954Y-160409218D01*
X21610258Y-160191630D01*
X21681877Y-159955533D01*
X21706060Y-159710000D01*
X21681877Y-159464467D01*
X21610258Y-159228370D01*
X21493954Y-159010782D01*
X21337436Y-158820064D01*
X21146718Y-158663546D01*
X20929130Y-158547242D01*
X20693033Y-158475623D01*
X20509028Y-158457500D01*
X20290972Y-158457500D01*
X20106967Y-158475623D01*
X19870870Y-158547242D01*
X19653282Y-158663546D01*
X19462564Y-158820064D01*
X19306046Y-159010782D01*
X19189742Y-159228370D01*
X19118123Y-159464467D01*
X19093940Y-159710000D01*
X14511961Y-159710000D01*
X14505579Y-157170000D01*
X19093940Y-157170000D01*
X19118123Y-157415533D01*
X19189742Y-157651630D01*
X19306046Y-157869218D01*
X19462564Y-158059936D01*
X19653282Y-158216454D01*
X19870870Y-158332758D01*
X20106967Y-158404377D01*
X20290972Y-158422500D01*
X20509028Y-158422500D01*
X20693033Y-158404377D01*
X20929130Y-158332758D01*
X21146718Y-158216454D01*
X21337436Y-158059936D01*
X21493954Y-157869218D01*
X21610258Y-157651630D01*
X21681877Y-157415533D01*
X21706060Y-157170000D01*
X21681877Y-156924467D01*
X21610258Y-156688370D01*
X21493954Y-156470782D01*
X21337436Y-156280064D01*
X21146718Y-156123546D01*
X20929130Y-156007242D01*
X20693033Y-155935623D01*
X20509028Y-155917500D01*
X20290972Y-155917500D01*
X20106967Y-155935623D01*
X19870870Y-156007242D01*
X19653282Y-156123546D01*
X19462564Y-156280064D01*
X19306046Y-156470782D01*
X19189742Y-156688370D01*
X19118123Y-156924467D01*
X19093940Y-157170000D01*
X14505579Y-157170000D01*
X14477706Y-146076735D01*
X17050000Y-146076735D01*
X17050000Y-146303265D01*
X17094194Y-146525443D01*
X17180884Y-146734729D01*
X17306737Y-146923082D01*
X17466918Y-147083263D01*
X17655271Y-147209116D01*
X17864557Y-147295806D01*
X18086735Y-147340000D01*
X18313265Y-147340000D01*
X18535443Y-147295806D01*
X18744729Y-147209116D01*
X18933082Y-147083263D01*
X19093263Y-146923082D01*
X19219116Y-146734729D01*
X19305806Y-146525443D01*
X19350000Y-146303265D01*
X19350000Y-146076735D01*
X19590000Y-146076735D01*
X19590000Y-146303265D01*
X19634194Y-146525443D01*
X19720884Y-146734729D01*
X19846737Y-146923082D01*
X20006918Y-147083263D01*
X20195271Y-147209116D01*
X20404557Y-147295806D01*
X20626735Y-147340000D01*
X20853265Y-147340000D01*
X21075443Y-147295806D01*
X21284729Y-147209116D01*
X21473082Y-147083263D01*
X21633263Y-146923082D01*
X21759116Y-146734729D01*
X21845806Y-146525443D01*
X21890000Y-146303265D01*
X21890000Y-146076735D01*
X21845806Y-145854557D01*
X21759116Y-145645271D01*
X21633263Y-145456918D01*
X21473082Y-145296737D01*
X21284729Y-145170884D01*
X21075443Y-145084194D01*
X20853265Y-145040000D01*
X20626735Y-145040000D01*
X20404557Y-145084194D01*
X20195271Y-145170884D01*
X20006918Y-145296737D01*
X19846737Y-145456918D01*
X19720884Y-145645271D01*
X19634194Y-145854557D01*
X19590000Y-146076735D01*
X19350000Y-146076735D01*
X19305806Y-145854557D01*
X19219116Y-145645271D01*
X19093263Y-145456918D01*
X18933082Y-145296737D01*
X18744729Y-145170884D01*
X18535443Y-145084194D01*
X18313265Y-145040000D01*
X18086735Y-145040000D01*
X17864557Y-145084194D01*
X17655271Y-145170884D01*
X17466918Y-145296737D01*
X17306737Y-145456918D01*
X17180884Y-145645271D01*
X17094194Y-145854557D01*
X17050000Y-146076735D01*
X14477706Y-146076735D01*
X14441126Y-131517557D01*
X42113499Y-131517557D01*
X42113499Y-131655445D01*
X42140400Y-131790683D01*
X42193167Y-131918075D01*
X42269773Y-132032725D01*
X42367275Y-132130227D01*
X42481925Y-132206833D01*
X42609317Y-132259600D01*
X42744555Y-132286501D01*
X42882443Y-132286501D01*
X43017681Y-132259600D01*
X43145073Y-132206833D01*
X43259723Y-132130227D01*
X43357225Y-132032725D01*
X43371406Y-132011501D01*
X48455592Y-132011501D01*
X48469773Y-132032725D01*
X48567275Y-132130227D01*
X48681925Y-132206833D01*
X48809317Y-132259600D01*
X48944555Y-132286501D01*
X49082443Y-132286501D01*
X49217681Y-132259600D01*
X49345073Y-132206833D01*
X49459723Y-132130227D01*
X49557225Y-132032725D01*
X49633831Y-131918075D01*
X49686598Y-131790683D01*
X49713499Y-131655445D01*
X49713499Y-131517557D01*
X49686598Y-131382319D01*
X49633831Y-131254927D01*
X49557225Y-131140277D01*
X49459723Y-131042775D01*
X49345073Y-130966169D01*
X49217681Y-130913402D01*
X49082443Y-130886501D01*
X48944555Y-130886501D01*
X48809317Y-130913402D01*
X48681925Y-130966169D01*
X48567275Y-131042775D01*
X48469773Y-131140277D01*
X48455592Y-131161501D01*
X43371406Y-131161501D01*
X43357225Y-131140277D01*
X43259723Y-131042775D01*
X43145073Y-130966169D01*
X43017681Y-130913402D01*
X42882443Y-130886501D01*
X42744555Y-130886501D01*
X42609317Y-130913402D01*
X42481925Y-130966169D01*
X42367275Y-131042775D01*
X42269773Y-131140277D01*
X42193167Y-131254927D01*
X42140400Y-131382319D01*
X42113499Y-131517557D01*
X14441126Y-131517557D01*
X14430654Y-127350000D01*
X18248549Y-127350000D01*
X18248549Y-129050000D01*
X18254341Y-129108810D01*
X18271496Y-129165360D01*
X18299353Y-129217477D01*
X18336842Y-129263158D01*
X18382523Y-129300647D01*
X18434640Y-129328504D01*
X18491190Y-129345659D01*
X18550000Y-129351451D01*
X20250000Y-129351451D01*
X20308810Y-129345659D01*
X20365360Y-129328504D01*
X20417477Y-129300647D01*
X20463158Y-129263158D01*
X20500647Y-129217477D01*
X20528504Y-129165360D01*
X20545659Y-129108810D01*
X20551451Y-129050000D01*
X20551451Y-127350000D01*
X20545659Y-127291190D01*
X20528504Y-127234640D01*
X20500647Y-127182523D01*
X20463158Y-127136842D01*
X20417477Y-127099353D01*
X20365360Y-127071496D01*
X20308810Y-127054341D01*
X20250000Y-127048549D01*
X18550000Y-127048549D01*
X18491190Y-127054341D01*
X18434640Y-127071496D01*
X18382523Y-127099353D01*
X18336842Y-127136842D01*
X18299353Y-127182523D01*
X18271496Y-127234640D01*
X18254341Y-127291190D01*
X18248549Y-127350000D01*
X14430654Y-127350000D01*
X14411936Y-119900000D01*
X34518549Y-119900000D01*
X34518549Y-121600000D01*
X34524341Y-121658810D01*
X34541496Y-121715360D01*
X34569353Y-121767477D01*
X34606842Y-121813158D01*
X34652523Y-121850647D01*
X34704640Y-121878504D01*
X34761190Y-121895659D01*
X34820000Y-121901451D01*
X36220411Y-121901451D01*
X43604719Y-129285760D01*
X43618026Y-129301974D01*
X43682740Y-129355084D01*
X43756573Y-129394548D01*
X43812383Y-129411478D01*
X43836685Y-129418850D01*
X43844327Y-129419603D01*
X43899126Y-129425000D01*
X43899133Y-129425000D01*
X43920000Y-129427055D01*
X43940867Y-129425000D01*
X49146962Y-129425000D01*
X52046962Y-132325000D01*
X51678904Y-132325000D01*
X51673099Y-132295818D01*
X51620332Y-132168426D01*
X51543726Y-132053776D01*
X51446224Y-131956274D01*
X51331574Y-131879668D01*
X51204182Y-131826901D01*
X51068944Y-131800000D01*
X50931056Y-131800000D01*
X50795818Y-131826901D01*
X50668426Y-131879668D01*
X50553776Y-131956274D01*
X50456274Y-132053776D01*
X50385081Y-132160325D01*
X36746143Y-145799263D01*
X36720395Y-145820394D01*
X36699264Y-145846142D01*
X36699256Y-145846150D01*
X36636043Y-145923176D01*
X36573365Y-146040439D01*
X36534767Y-146167677D01*
X36521735Y-146300000D01*
X36525001Y-146333162D01*
X36525000Y-162855375D01*
X36500000Y-162981056D01*
X36500000Y-163118944D01*
X36526901Y-163254182D01*
X36579668Y-163381574D01*
X36656274Y-163496224D01*
X36753776Y-163593726D01*
X36868426Y-163670332D01*
X36995818Y-163723099D01*
X37131056Y-163750000D01*
X37268944Y-163750000D01*
X37404182Y-163723099D01*
X37531574Y-163670332D01*
X37646224Y-163593726D01*
X37725000Y-163514950D01*
X37803776Y-163593726D01*
X37918426Y-163670332D01*
X38045818Y-163723099D01*
X38181056Y-163750000D01*
X38318944Y-163750000D01*
X38454182Y-163723099D01*
X38581574Y-163670332D01*
X38696224Y-163593726D01*
X38793726Y-163496224D01*
X38870332Y-163381574D01*
X38923099Y-163254182D01*
X38950000Y-163118944D01*
X38950000Y-162981056D01*
X38925000Y-162855375D01*
X38925000Y-146883151D01*
X38928265Y-146849999D01*
X38925000Y-146816847D01*
X38925000Y-146816841D01*
X38915233Y-146717677D01*
X38876636Y-146590439D01*
X38872289Y-146582305D01*
X51779594Y-133675000D01*
X52055375Y-133675000D01*
X52181056Y-133700000D01*
X52318944Y-133700000D01*
X52454182Y-133673099D01*
X52550002Y-133633410D01*
X52550001Y-135777136D01*
X52547946Y-135798003D01*
X52550001Y-135818870D01*
X52550001Y-135818876D01*
X52553604Y-135855452D01*
X52556151Y-135881317D01*
X52560277Y-135894917D01*
X52580453Y-135961429D01*
X52619917Y-136035262D01*
X52673027Y-136099977D01*
X52689245Y-136113287D01*
X57611719Y-141035762D01*
X57625024Y-141051974D01*
X57689738Y-141105084D01*
X57763571Y-141144548D01*
X57819381Y-141161478D01*
X57843683Y-141168850D01*
X57852096Y-141169679D01*
X57906124Y-141175000D01*
X57906130Y-141175000D01*
X57926997Y-141177055D01*
X57947864Y-141175000D01*
X60192093Y-141175000D01*
X60206274Y-141196224D01*
X60303776Y-141293726D01*
X60418426Y-141370332D01*
X60545818Y-141423099D01*
X60681056Y-141450000D01*
X60818944Y-141450000D01*
X60954182Y-141423099D01*
X61012502Y-141398942D01*
X61012501Y-144134460D01*
X60396034Y-144750928D01*
X60379822Y-144764233D01*
X60326712Y-144828947D01*
X60311549Y-144857316D01*
X60287248Y-144902780D01*
X60262945Y-144982893D01*
X60254740Y-145066207D01*
X60256796Y-145087083D01*
X60256795Y-146005754D01*
X42634230Y-163628320D01*
X42618018Y-163641625D01*
X42604713Y-163657837D01*
X42604711Y-163657839D01*
X42592445Y-163672786D01*
X42564908Y-163706339D01*
X42557563Y-163720081D01*
X42525444Y-163780172D01*
X42501141Y-163860285D01*
X42492936Y-163943599D01*
X42494992Y-163964476D01*
X42494990Y-174573959D01*
X40544239Y-176524711D01*
X40528027Y-176538016D01*
X40474917Y-176602730D01*
X40441870Y-176664557D01*
X40435453Y-176676563D01*
X40411150Y-176756676D01*
X40402945Y-176839990D01*
X40405001Y-176860867D01*
X40405000Y-181931290D01*
X40285271Y-181980884D01*
X40096918Y-182106737D01*
X39936737Y-182266918D01*
X39810884Y-182455271D01*
X39724194Y-182664557D01*
X39680000Y-182886735D01*
X39680000Y-183113265D01*
X39724194Y-183335443D01*
X39810884Y-183544729D01*
X39936737Y-183733082D01*
X40096918Y-183893263D01*
X40285271Y-184019116D01*
X40494557Y-184105806D01*
X40716735Y-184150000D01*
X40943265Y-184150000D01*
X41165443Y-184105806D01*
X41374729Y-184019116D01*
X41563082Y-183893263D01*
X41723263Y-183733082D01*
X41849116Y-183544729D01*
X41935806Y-183335443D01*
X41980000Y-183113265D01*
X41980000Y-182886735D01*
X41935806Y-182664557D01*
X41849116Y-182455271D01*
X41723263Y-182266918D01*
X41563082Y-182106737D01*
X41374729Y-181980884D01*
X41255000Y-181931290D01*
X41255000Y-177016030D01*
X42945001Y-175326030D01*
X42945001Y-181931290D01*
X42825271Y-181980884D01*
X42636918Y-182106737D01*
X42476737Y-182266918D01*
X42350884Y-182455271D01*
X42264194Y-182664557D01*
X42220000Y-182886735D01*
X42220000Y-183113265D01*
X42264194Y-183335443D01*
X42350884Y-183544729D01*
X42476737Y-183733082D01*
X42636918Y-183893263D01*
X42825271Y-184019116D01*
X43034557Y-184105806D01*
X43256735Y-184150000D01*
X43483265Y-184150000D01*
X43705443Y-184105806D01*
X43914729Y-184019116D01*
X44103082Y-183893263D01*
X44263263Y-183733082D01*
X44389116Y-183544729D01*
X44475806Y-183335443D01*
X44520000Y-183113265D01*
X44520000Y-182886735D01*
X44475806Y-182664557D01*
X44389116Y-182455271D01*
X44263263Y-182266918D01*
X44103082Y-182106737D01*
X43914729Y-181980884D01*
X43795000Y-181931290D01*
X43795000Y-181486040D01*
X44853788Y-182544828D01*
X44804194Y-182664557D01*
X44760000Y-182886735D01*
X44760000Y-183113265D01*
X44804194Y-183335443D01*
X44890884Y-183544729D01*
X45016737Y-183733082D01*
X45176918Y-183893263D01*
X45365271Y-184019116D01*
X45574557Y-184105806D01*
X45796735Y-184150000D01*
X46023265Y-184150000D01*
X46245443Y-184105806D01*
X46454729Y-184019116D01*
X46643082Y-183893263D01*
X46803263Y-183733082D01*
X46929116Y-183544729D01*
X47015806Y-183335443D01*
X47060000Y-183113265D01*
X47060000Y-182886735D01*
X47015806Y-182664557D01*
X46929116Y-182455271D01*
X46803263Y-182266918D01*
X46643082Y-182106737D01*
X46454729Y-181980884D01*
X46245443Y-181894194D01*
X46023265Y-181850000D01*
X45796735Y-181850000D01*
X45574557Y-181894194D01*
X45454828Y-181943788D01*
X44245010Y-180733970D01*
X44245010Y-179396050D01*
X47393788Y-182544829D01*
X47344194Y-182664557D01*
X47300000Y-182886735D01*
X47300000Y-183113265D01*
X47344194Y-183335443D01*
X47430884Y-183544729D01*
X47556737Y-183733082D01*
X47716918Y-183893263D01*
X47905271Y-184019116D01*
X48114557Y-184105806D01*
X48336735Y-184150000D01*
X48563265Y-184150000D01*
X48785443Y-184105806D01*
X48994729Y-184019116D01*
X49183082Y-183893263D01*
X49343263Y-183733082D01*
X49469116Y-183544729D01*
X49555806Y-183335443D01*
X49600000Y-183113265D01*
X49600000Y-182886735D01*
X49555806Y-182664557D01*
X49469116Y-182455271D01*
X49343263Y-182266918D01*
X49183082Y-182106737D01*
X48994729Y-181980884D01*
X48785443Y-181894194D01*
X48563265Y-181850000D01*
X48336735Y-181850000D01*
X48114557Y-181894194D01*
X47994829Y-181943788D01*
X44695020Y-178643980D01*
X44695020Y-176150000D01*
X46248549Y-176150000D01*
X46248549Y-177850000D01*
X46254341Y-177908810D01*
X46271496Y-177965360D01*
X46299353Y-178017477D01*
X46336842Y-178063158D01*
X46382523Y-178100647D01*
X46434640Y-178128504D01*
X46491190Y-178145659D01*
X46550000Y-178151451D01*
X48250000Y-178151451D01*
X48308810Y-178145659D01*
X48365360Y-178128504D01*
X48417477Y-178100647D01*
X48463158Y-178063158D01*
X48500647Y-178017477D01*
X48528504Y-177965360D01*
X48545659Y-177908810D01*
X48551451Y-177850000D01*
X48551451Y-176886735D01*
X48790000Y-176886735D01*
X48790000Y-177113265D01*
X48834194Y-177335443D01*
X48920884Y-177544729D01*
X49046737Y-177733082D01*
X49206918Y-177893263D01*
X49395271Y-178019116D01*
X49604557Y-178105806D01*
X49826735Y-178150000D01*
X50053265Y-178150000D01*
X50275443Y-178105806D01*
X50484729Y-178019116D01*
X50673082Y-177893263D01*
X50833263Y-177733082D01*
X50959116Y-177544729D01*
X51045806Y-177335443D01*
X51090000Y-177113265D01*
X51090000Y-176886735D01*
X51045806Y-176664557D01*
X50959116Y-176455271D01*
X50833263Y-176266918D01*
X50673082Y-176106737D01*
X50484729Y-175980884D01*
X50275443Y-175894194D01*
X50053265Y-175850000D01*
X49826735Y-175850000D01*
X49604557Y-175894194D01*
X49395271Y-175980884D01*
X49206918Y-176106737D01*
X49046737Y-176266918D01*
X48920884Y-176455271D01*
X48834194Y-176664557D01*
X48790000Y-176886735D01*
X48551451Y-176886735D01*
X48551451Y-176150000D01*
X48545659Y-176091190D01*
X48528504Y-176034640D01*
X48500647Y-175982523D01*
X48463158Y-175936842D01*
X48417477Y-175899353D01*
X48365360Y-175871496D01*
X48308810Y-175854341D01*
X48250000Y-175848549D01*
X46550000Y-175848549D01*
X46491190Y-175854341D01*
X46434640Y-175871496D01*
X46382523Y-175899353D01*
X46336842Y-175936842D01*
X46299353Y-175982523D01*
X46271496Y-176034640D01*
X46254341Y-176091190D01*
X46248549Y-176150000D01*
X44695020Y-176150000D01*
X44695020Y-172800000D01*
X60048549Y-172800000D01*
X60048549Y-174500000D01*
X60054341Y-174558810D01*
X60071496Y-174615360D01*
X60099353Y-174667477D01*
X60136842Y-174713158D01*
X60182523Y-174750647D01*
X60234640Y-174778504D01*
X60291190Y-174795659D01*
X60350000Y-174801451D01*
X62050000Y-174801451D01*
X62108810Y-174795659D01*
X62165360Y-174778504D01*
X62217477Y-174750647D01*
X62263158Y-174713158D01*
X62300647Y-174667477D01*
X62328504Y-174615360D01*
X62345659Y-174558810D01*
X62351451Y-174500000D01*
X62351451Y-173536735D01*
X65130000Y-173536735D01*
X65130000Y-173763265D01*
X65174194Y-173985443D01*
X65260884Y-174194729D01*
X65386737Y-174383082D01*
X65546918Y-174543263D01*
X65735271Y-174669116D01*
X65944557Y-174755806D01*
X66166735Y-174800000D01*
X66393265Y-174800000D01*
X66615443Y-174755806D01*
X66824729Y-174669116D01*
X67013082Y-174543263D01*
X67173263Y-174383082D01*
X67299116Y-174194729D01*
X67385806Y-173985443D01*
X67430000Y-173763265D01*
X67430000Y-173536735D01*
X67670000Y-173536735D01*
X67670000Y-173763265D01*
X67714194Y-173985443D01*
X67800884Y-174194729D01*
X67926737Y-174383082D01*
X68086918Y-174543263D01*
X68275271Y-174669116D01*
X68484557Y-174755806D01*
X68706735Y-174800000D01*
X68933265Y-174800000D01*
X69155443Y-174755806D01*
X69364729Y-174669116D01*
X69553082Y-174543263D01*
X69713263Y-174383082D01*
X69839116Y-174194729D01*
X69925806Y-173985443D01*
X69970000Y-173763265D01*
X69970000Y-173536735D01*
X70210000Y-173536735D01*
X70210000Y-173763265D01*
X70254194Y-173985443D01*
X70340884Y-174194729D01*
X70466737Y-174383082D01*
X70626918Y-174543263D01*
X70815271Y-174669116D01*
X71024557Y-174755806D01*
X71246735Y-174800000D01*
X71473265Y-174800000D01*
X71695443Y-174755806D01*
X71904729Y-174669116D01*
X72093082Y-174543263D01*
X72253263Y-174383082D01*
X72379116Y-174194729D01*
X72465806Y-173985443D01*
X72510000Y-173763265D01*
X72510000Y-173536735D01*
X72465806Y-173314557D01*
X72379116Y-173105271D01*
X72253263Y-172916918D01*
X72093082Y-172756737D01*
X71904729Y-172630884D01*
X71695443Y-172544194D01*
X71473265Y-172500000D01*
X71246735Y-172500000D01*
X71024557Y-172544194D01*
X70815271Y-172630884D01*
X70626918Y-172756737D01*
X70466737Y-172916918D01*
X70340884Y-173105271D01*
X70254194Y-173314557D01*
X70210000Y-173536735D01*
X69970000Y-173536735D01*
X69925806Y-173314557D01*
X69839116Y-173105271D01*
X69713263Y-172916918D01*
X69553082Y-172756737D01*
X69364729Y-172630884D01*
X69155443Y-172544194D01*
X68933265Y-172500000D01*
X68706735Y-172500000D01*
X68484557Y-172544194D01*
X68275271Y-172630884D01*
X68086918Y-172756737D01*
X67926737Y-172916918D01*
X67800884Y-173105271D01*
X67714194Y-173314557D01*
X67670000Y-173536735D01*
X67430000Y-173536735D01*
X67385806Y-173314557D01*
X67299116Y-173105271D01*
X67173263Y-172916918D01*
X67013082Y-172756737D01*
X66824729Y-172630884D01*
X66615443Y-172544194D01*
X66393265Y-172500000D01*
X66166735Y-172500000D01*
X65944557Y-172544194D01*
X65735271Y-172630884D01*
X65546918Y-172756737D01*
X65386737Y-172916918D01*
X65260884Y-173105271D01*
X65174194Y-173314557D01*
X65130000Y-173536735D01*
X62351451Y-173536735D01*
X62351451Y-172800000D01*
X62345659Y-172741190D01*
X62328504Y-172684640D01*
X62300647Y-172632523D01*
X62263158Y-172586842D01*
X62217477Y-172549353D01*
X62165360Y-172521496D01*
X62108810Y-172504341D01*
X62050000Y-172498549D01*
X60350000Y-172498549D01*
X60291190Y-172504341D01*
X60234640Y-172521496D01*
X60182523Y-172549353D01*
X60136842Y-172586842D01*
X60099353Y-172632523D01*
X60071496Y-172684640D01*
X60054341Y-172741190D01*
X60048549Y-172800000D01*
X44695020Y-172800000D01*
X44695020Y-164678840D01*
X61305647Y-148068214D01*
X61722321Y-148068213D01*
X61743196Y-148070269D01*
X61826510Y-148062064D01*
X61906623Y-148037761D01*
X61944572Y-148017477D01*
X61980456Y-147998297D01*
X62014009Y-147970760D01*
X62028956Y-147958494D01*
X62028958Y-147958492D01*
X62045170Y-147945187D01*
X62058475Y-147928975D01*
X63087450Y-146900001D01*
X63327134Y-146900001D01*
X63348001Y-146902056D01*
X63368868Y-146900001D01*
X63368875Y-146900001D01*
X63431315Y-146893851D01*
X63511428Y-146869549D01*
X63585261Y-146830085D01*
X63649975Y-146776975D01*
X63663285Y-146760757D01*
X64660757Y-145763285D01*
X64675001Y-145751595D01*
X64675000Y-156688957D01*
X58314239Y-163049719D01*
X58298027Y-163063024D01*
X58244917Y-163127738D01*
X58215742Y-163182322D01*
X58205453Y-163201571D01*
X58181150Y-163281684D01*
X58172945Y-163364998D01*
X58175001Y-163385875D01*
X58175000Y-167498549D01*
X57750000Y-167498549D01*
X57691190Y-167504341D01*
X57634640Y-167521496D01*
X57582523Y-167549353D01*
X57536842Y-167586842D01*
X57499353Y-167632523D01*
X57471496Y-167684640D01*
X57454341Y-167741190D01*
X57448549Y-167800000D01*
X57448549Y-169500000D01*
X57454341Y-169558810D01*
X57471496Y-169615360D01*
X57499353Y-169667477D01*
X57536842Y-169713158D01*
X57582523Y-169750647D01*
X57634640Y-169778504D01*
X57691190Y-169795659D01*
X57750000Y-169801451D01*
X59450000Y-169801451D01*
X59508810Y-169795659D01*
X59565360Y-169778504D01*
X59617477Y-169750647D01*
X59663158Y-169713158D01*
X59700647Y-169667477D01*
X59728504Y-169615360D01*
X59745659Y-169558810D01*
X59751451Y-169500000D01*
X59751451Y-168536735D01*
X59990000Y-168536735D01*
X59990000Y-168763265D01*
X60034194Y-168985443D01*
X60120884Y-169194729D01*
X60246737Y-169383082D01*
X60406918Y-169543263D01*
X60595271Y-169669116D01*
X60804557Y-169755806D01*
X61026735Y-169800000D01*
X61253265Y-169800000D01*
X61475443Y-169755806D01*
X61684729Y-169669116D01*
X61873082Y-169543263D01*
X62033263Y-169383082D01*
X62159116Y-169194729D01*
X62245806Y-168985443D01*
X62290000Y-168763265D01*
X62290000Y-168536735D01*
X65070000Y-168536735D01*
X65070000Y-168763265D01*
X65114194Y-168985443D01*
X65200884Y-169194729D01*
X65326737Y-169383082D01*
X65486918Y-169543263D01*
X65675271Y-169669116D01*
X65884557Y-169755806D01*
X66106735Y-169800000D01*
X66333265Y-169800000D01*
X66555443Y-169755806D01*
X66764729Y-169669116D01*
X66953082Y-169543263D01*
X67113263Y-169383082D01*
X67239116Y-169194729D01*
X67325806Y-168985443D01*
X67370000Y-168763265D01*
X67370000Y-168536735D01*
X67325806Y-168314557D01*
X67239116Y-168105271D01*
X67113263Y-167916918D01*
X66953082Y-167756737D01*
X66764729Y-167630884D01*
X66555443Y-167544194D01*
X66333265Y-167500000D01*
X66106735Y-167500000D01*
X65884557Y-167544194D01*
X65675271Y-167630884D01*
X65486918Y-167756737D01*
X65326737Y-167916918D01*
X65200884Y-168105271D01*
X65114194Y-168314557D01*
X65070000Y-168536735D01*
X62290000Y-168536735D01*
X62245806Y-168314557D01*
X62159116Y-168105271D01*
X62033263Y-167916918D01*
X61873082Y-167756737D01*
X61684729Y-167630884D01*
X61475443Y-167544194D01*
X61253265Y-167500000D01*
X61026735Y-167500000D01*
X60804557Y-167544194D01*
X60595271Y-167630884D01*
X60406918Y-167756737D01*
X60246737Y-167916918D01*
X60120884Y-168105271D01*
X60034194Y-168314557D01*
X59990000Y-168536735D01*
X59751451Y-168536735D01*
X59751451Y-167800000D01*
X59745659Y-167741190D01*
X59728504Y-167684640D01*
X59700647Y-167632523D01*
X59663158Y-167586842D01*
X59617477Y-167549353D01*
X59565360Y-167521496D01*
X59508810Y-167504341D01*
X59450000Y-167498549D01*
X59025000Y-167498549D01*
X59025000Y-163541038D01*
X60048549Y-162517489D01*
X60048549Y-163900000D01*
X60054341Y-163958810D01*
X60071496Y-164015360D01*
X60099353Y-164067477D01*
X60136842Y-164113158D01*
X60182523Y-164150647D01*
X60234640Y-164178504D01*
X60291190Y-164195659D01*
X60350000Y-164201451D01*
X62050000Y-164201451D01*
X62108810Y-164195659D01*
X62165360Y-164178504D01*
X62217477Y-164150647D01*
X62263158Y-164113158D01*
X62300647Y-164067477D01*
X62328504Y-164015360D01*
X62345659Y-163958810D01*
X62351451Y-163900000D01*
X62351451Y-162936735D01*
X65130000Y-162936735D01*
X65130000Y-163163265D01*
X65174194Y-163385443D01*
X65260884Y-163594729D01*
X65386737Y-163783082D01*
X65546918Y-163943263D01*
X65735271Y-164069116D01*
X65944557Y-164155806D01*
X66166735Y-164200000D01*
X66393265Y-164200000D01*
X66615443Y-164155806D01*
X66824729Y-164069116D01*
X67013082Y-163943263D01*
X67173263Y-163783082D01*
X67299116Y-163594729D01*
X67385806Y-163385443D01*
X67430000Y-163163265D01*
X67430000Y-162936735D01*
X67385806Y-162714557D01*
X67299116Y-162505271D01*
X67173263Y-162316918D01*
X67013082Y-162156737D01*
X66824729Y-162030884D01*
X66615443Y-161944194D01*
X66393265Y-161900000D01*
X66166735Y-161900000D01*
X65944557Y-161944194D01*
X65735271Y-162030884D01*
X65546918Y-162156737D01*
X65386737Y-162316918D01*
X65260884Y-162505271D01*
X65174194Y-162714557D01*
X65130000Y-162936735D01*
X62351451Y-162936735D01*
X62351451Y-162200000D01*
X62345659Y-162141190D01*
X62328504Y-162084640D01*
X62300647Y-162032523D01*
X62263158Y-161986842D01*
X62217477Y-161949353D01*
X62165360Y-161921496D01*
X62108810Y-161904341D01*
X62050000Y-161898549D01*
X60667489Y-161898549D01*
X65385763Y-157180276D01*
X65401974Y-157166972D01*
X65455084Y-157102258D01*
X65494548Y-157028425D01*
X65518850Y-156948312D01*
X65525000Y-156885872D01*
X65525000Y-156885866D01*
X65527055Y-156864999D01*
X65525000Y-156844132D01*
X65525000Y-145331066D01*
X66050000Y-145331066D01*
X66050000Y-145468954D01*
X66076901Y-145604192D01*
X66129668Y-145731584D01*
X66206274Y-145846234D01*
X66303776Y-145943736D01*
X66325001Y-145957918D01*
X66325000Y-155579133D01*
X66322945Y-155600000D01*
X66325000Y-155620867D01*
X66325000Y-155620873D01*
X66331150Y-155683313D01*
X66355452Y-155763426D01*
X66394916Y-155837259D01*
X66448026Y-155901974D01*
X66464243Y-155915283D01*
X69570002Y-159021043D01*
X69570002Y-162173657D01*
X69553082Y-162156737D01*
X69364729Y-162030884D01*
X69155443Y-161944194D01*
X68933265Y-161900000D01*
X68706735Y-161900000D01*
X68484557Y-161944194D01*
X68275271Y-162030884D01*
X68086918Y-162156737D01*
X67926737Y-162316918D01*
X67800884Y-162505271D01*
X67714194Y-162714557D01*
X67670000Y-162936735D01*
X67670000Y-163163265D01*
X67714194Y-163385443D01*
X67800884Y-163594729D01*
X67926737Y-163783082D01*
X68086918Y-163943263D01*
X68275271Y-164069116D01*
X68484557Y-164155806D01*
X68706735Y-164200000D01*
X68933265Y-164200000D01*
X69155443Y-164155806D01*
X69364729Y-164069116D01*
X69553082Y-163943263D01*
X69570002Y-163926343D01*
X69570001Y-167833656D01*
X69493082Y-167756737D01*
X69304729Y-167630884D01*
X69095443Y-167544194D01*
X68873265Y-167500000D01*
X68646735Y-167500000D01*
X68424557Y-167544194D01*
X68215271Y-167630884D01*
X68026918Y-167756737D01*
X67866737Y-167916918D01*
X67740884Y-168105271D01*
X67654194Y-168314557D01*
X67610000Y-168536735D01*
X67610000Y-168763265D01*
X67654194Y-168985443D01*
X67740884Y-169194729D01*
X67866737Y-169383082D01*
X68026918Y-169543263D01*
X68215271Y-169669116D01*
X68424557Y-169755806D01*
X68646735Y-169800000D01*
X68873265Y-169800000D01*
X69095443Y-169755806D01*
X69304729Y-169669116D01*
X69493082Y-169543263D01*
X69570001Y-169466344D01*
X69570001Y-169724134D01*
X69567946Y-169745001D01*
X69570001Y-169765868D01*
X69570001Y-169765874D01*
X69576151Y-169828314D01*
X69600453Y-169908427D01*
X69639917Y-169982260D01*
X69693027Y-170046975D01*
X69709245Y-170060285D01*
X72843788Y-173194828D01*
X72794194Y-173314557D01*
X72750000Y-173536735D01*
X72750000Y-173763265D01*
X72794194Y-173985443D01*
X72880884Y-174194729D01*
X73006737Y-174383082D01*
X73166918Y-174543263D01*
X73355271Y-174669116D01*
X73564557Y-174755806D01*
X73786735Y-174800000D01*
X74013265Y-174800000D01*
X74235443Y-174755806D01*
X74444729Y-174669116D01*
X74633082Y-174543263D01*
X74793263Y-174383082D01*
X74919116Y-174194729D01*
X75005806Y-173985443D01*
X75050000Y-173763265D01*
X75050000Y-173536735D01*
X75005806Y-173314557D01*
X74919116Y-173105271D01*
X74793263Y-172916918D01*
X74633082Y-172756737D01*
X74444729Y-172630884D01*
X74235443Y-172544194D01*
X74013265Y-172500000D01*
X73786735Y-172500000D01*
X73564557Y-172544194D01*
X73444828Y-172593788D01*
X70420001Y-169568961D01*
X70420001Y-169396346D01*
X70566918Y-169543263D01*
X70755271Y-169669116D01*
X70964557Y-169755806D01*
X71186735Y-169800000D01*
X71413265Y-169800000D01*
X71635443Y-169755806D01*
X71755172Y-169706212D01*
X82734721Y-180685762D01*
X82748026Y-180701974D01*
X82812740Y-180755084D01*
X82886573Y-180794548D01*
X82942383Y-180811478D01*
X82966685Y-180818850D01*
X82975098Y-180819679D01*
X83029126Y-180825000D01*
X83029132Y-180825000D01*
X83049999Y-180827055D01*
X83070866Y-180825000D01*
X93048549Y-180825000D01*
X93048549Y-181250000D01*
X93054341Y-181308810D01*
X93071496Y-181365360D01*
X93099353Y-181417477D01*
X93136842Y-181463158D01*
X93182523Y-181500647D01*
X93234640Y-181528504D01*
X93291190Y-181545659D01*
X93350000Y-181551451D01*
X95050000Y-181551451D01*
X95108810Y-181545659D01*
X95165360Y-181528504D01*
X95217477Y-181500647D01*
X95263158Y-181463158D01*
X95300647Y-181417477D01*
X95328504Y-181365360D01*
X95345659Y-181308810D01*
X95351451Y-181250000D01*
X95351451Y-179550000D01*
X95345659Y-179491190D01*
X95328504Y-179434640D01*
X95300647Y-179382523D01*
X95263158Y-179336842D01*
X95217477Y-179299353D01*
X95165360Y-179271496D01*
X95108810Y-179254341D01*
X95050000Y-179248549D01*
X93350000Y-179248549D01*
X93291190Y-179254341D01*
X93234640Y-179271496D01*
X93182523Y-179299353D01*
X93136842Y-179336842D01*
X93099353Y-179382523D01*
X93071496Y-179434640D01*
X93054341Y-179491190D01*
X93048549Y-179550000D01*
X93048549Y-179975000D01*
X83226041Y-179975000D01*
X72356212Y-169105172D01*
X72405806Y-168985443D01*
X72450000Y-168763265D01*
X72450000Y-168536735D01*
X72690000Y-168536735D01*
X72690000Y-168763265D01*
X72734194Y-168985443D01*
X72820884Y-169194729D01*
X72946737Y-169383082D01*
X73106918Y-169543263D01*
X73295271Y-169669116D01*
X73504557Y-169755806D01*
X73726735Y-169800000D01*
X73953265Y-169800000D01*
X74175443Y-169755806D01*
X74295172Y-169706212D01*
X76674721Y-172085762D01*
X76688026Y-172101974D01*
X76752740Y-172155084D01*
X76800855Y-172180801D01*
X76826572Y-172194548D01*
X76906686Y-172218850D01*
X76969126Y-172225000D01*
X76969133Y-172225000D01*
X76990000Y-172227055D01*
X77010867Y-172225000D01*
X78442093Y-172225000D01*
X78456274Y-172246224D01*
X78553776Y-172343726D01*
X78668426Y-172420332D01*
X78795818Y-172473099D01*
X78931056Y-172500000D01*
X79068944Y-172500000D01*
X79204182Y-172473099D01*
X79331574Y-172420332D01*
X79446224Y-172343726D01*
X79543726Y-172246224D01*
X79620332Y-172131574D01*
X79673099Y-172004182D01*
X79700000Y-171868944D01*
X79700000Y-171731056D01*
X79673099Y-171595818D01*
X79620332Y-171468426D01*
X79543726Y-171353776D01*
X79446224Y-171256274D01*
X79331574Y-171179668D01*
X79204182Y-171126901D01*
X79068944Y-171100000D01*
X78931056Y-171100000D01*
X78795818Y-171126901D01*
X78668426Y-171179668D01*
X78553776Y-171256274D01*
X78456274Y-171353776D01*
X78442093Y-171375000D01*
X77166041Y-171375000D01*
X74896212Y-169105172D01*
X74945806Y-168985443D01*
X74990000Y-168763265D01*
X74990000Y-168536735D01*
X74945806Y-168314557D01*
X74859116Y-168105271D01*
X74733263Y-167916918D01*
X74573082Y-167756737D01*
X74384729Y-167630884D01*
X74175443Y-167544194D01*
X73953265Y-167500000D01*
X73726735Y-167500000D01*
X73504557Y-167544194D01*
X73295271Y-167630884D01*
X73106918Y-167756737D01*
X72946737Y-167916918D01*
X72820884Y-168105271D01*
X72734194Y-168314557D01*
X72690000Y-168536735D01*
X72450000Y-168536735D01*
X72405806Y-168314557D01*
X72319116Y-168105271D01*
X72193263Y-167916918D01*
X72033082Y-167756737D01*
X71844729Y-167630884D01*
X71635443Y-167544194D01*
X71413265Y-167500000D01*
X71186735Y-167500000D01*
X70964557Y-167544194D01*
X70755271Y-167630884D01*
X70566918Y-167756737D01*
X70420001Y-167903654D01*
X70420001Y-163713136D01*
X70466737Y-163783082D01*
X70626918Y-163943263D01*
X70815271Y-164069116D01*
X71024557Y-164155806D01*
X71246735Y-164200000D01*
X71473265Y-164200000D01*
X71695443Y-164155806D01*
X71904729Y-164069116D01*
X72093082Y-163943263D01*
X72253263Y-163783082D01*
X72379116Y-163594729D01*
X72465806Y-163385443D01*
X72510000Y-163163265D01*
X72510000Y-162936735D01*
X72750000Y-162936735D01*
X72750000Y-163163265D01*
X72794194Y-163385443D01*
X72880884Y-163594729D01*
X73006737Y-163783082D01*
X73166918Y-163943263D01*
X73355271Y-164069116D01*
X73564557Y-164155806D01*
X73786735Y-164200000D01*
X74013265Y-164200000D01*
X74235443Y-164155806D01*
X74355172Y-164106212D01*
X88394721Y-178145762D01*
X88408026Y-178161974D01*
X88472740Y-178215084D01*
X88520855Y-178240801D01*
X88546572Y-178254548D01*
X88626685Y-178278850D01*
X88634327Y-178279603D01*
X88689126Y-178285000D01*
X88689133Y-178285000D01*
X88710000Y-178287055D01*
X88730867Y-178285000D01*
X93131290Y-178285000D01*
X93180884Y-178404729D01*
X93306737Y-178593082D01*
X93466918Y-178753263D01*
X93655271Y-178879116D01*
X93864557Y-178965806D01*
X94086735Y-179010000D01*
X94313265Y-179010000D01*
X94535443Y-178965806D01*
X94744729Y-178879116D01*
X94933082Y-178753263D01*
X95093263Y-178593082D01*
X95219116Y-178404729D01*
X95305806Y-178195443D01*
X95350000Y-177973265D01*
X95350000Y-177746735D01*
X95305806Y-177524557D01*
X95219116Y-177315271D01*
X95093263Y-177126918D01*
X94933082Y-176966737D01*
X94744729Y-176840884D01*
X94535443Y-176754194D01*
X94313265Y-176710000D01*
X94086735Y-176710000D01*
X93864557Y-176754194D01*
X93655271Y-176840884D01*
X93466918Y-176966737D01*
X93306737Y-177126918D01*
X93180884Y-177315271D01*
X93131290Y-177435000D01*
X88886041Y-177435000D01*
X74956212Y-163505172D01*
X75005806Y-163385443D01*
X75050000Y-163163265D01*
X75050000Y-162936735D01*
X75290000Y-162936735D01*
X75290000Y-163163265D01*
X75334194Y-163385443D01*
X75420884Y-163594729D01*
X75546737Y-163783082D01*
X75706918Y-163943263D01*
X75895271Y-164069116D01*
X76104557Y-164155806D01*
X76326735Y-164200000D01*
X76553265Y-164200000D01*
X76775443Y-164155806D01*
X76984729Y-164069116D01*
X77173082Y-163943263D01*
X77333263Y-163783082D01*
X77349195Y-163759237D01*
X89195719Y-175605762D01*
X89209024Y-175621974D01*
X89273738Y-175675084D01*
X89347571Y-175714548D01*
X89403381Y-175731478D01*
X89427683Y-175738850D01*
X89436096Y-175739679D01*
X89490124Y-175745000D01*
X89490130Y-175745000D01*
X89510997Y-175747055D01*
X89531864Y-175745000D01*
X93131290Y-175745000D01*
X93180884Y-175864729D01*
X93306737Y-176053082D01*
X93466918Y-176213263D01*
X93655271Y-176339116D01*
X93864557Y-176425806D01*
X94086735Y-176470000D01*
X94313265Y-176470000D01*
X94535443Y-176425806D01*
X94744729Y-176339116D01*
X94933082Y-176213263D01*
X95093263Y-176053082D01*
X95219116Y-175864729D01*
X95305806Y-175655443D01*
X95350000Y-175433265D01*
X95350000Y-175206735D01*
X95305806Y-174984557D01*
X95219116Y-174775271D01*
X95093263Y-174586918D01*
X94933082Y-174426737D01*
X94744729Y-174300884D01*
X94535443Y-174214194D01*
X94313265Y-174170000D01*
X94086735Y-174170000D01*
X93864557Y-174214194D01*
X93655271Y-174300884D01*
X93466918Y-174426737D01*
X93306737Y-174586918D01*
X93180884Y-174775271D01*
X93131290Y-174895000D01*
X89687039Y-174895000D01*
X78992038Y-164200000D01*
X79093265Y-164200000D01*
X79315443Y-164155806D01*
X79435172Y-164106212D01*
X88394721Y-173065762D01*
X88408026Y-173081974D01*
X88472740Y-173135084D01*
X88546573Y-173174548D01*
X88602383Y-173191478D01*
X88626685Y-173198850D01*
X88634327Y-173199603D01*
X88689126Y-173205000D01*
X88689133Y-173205000D01*
X88710000Y-173207055D01*
X88730867Y-173205000D01*
X93131290Y-173205000D01*
X93180884Y-173324729D01*
X93306737Y-173513082D01*
X93466918Y-173673263D01*
X93655271Y-173799116D01*
X93864557Y-173885806D01*
X94086735Y-173930000D01*
X94313265Y-173930000D01*
X94535443Y-173885806D01*
X94744729Y-173799116D01*
X94933082Y-173673263D01*
X95093263Y-173513082D01*
X95219116Y-173324729D01*
X95305806Y-173115443D01*
X95350000Y-172893265D01*
X95350000Y-172666735D01*
X95305806Y-172444557D01*
X95219116Y-172235271D01*
X95093263Y-172046918D01*
X94933082Y-171886737D01*
X94744729Y-171760884D01*
X94535443Y-171674194D01*
X94313265Y-171630000D01*
X94086735Y-171630000D01*
X93864557Y-171674194D01*
X93655271Y-171760884D01*
X93466918Y-171886737D01*
X93306737Y-172046918D01*
X93180884Y-172235271D01*
X93131290Y-172355000D01*
X88886041Y-172355000D01*
X86657776Y-170126735D01*
X93050000Y-170126735D01*
X93050000Y-170353265D01*
X93094194Y-170575443D01*
X93180884Y-170784729D01*
X93306737Y-170973082D01*
X93466918Y-171133263D01*
X93655271Y-171259116D01*
X93864557Y-171345806D01*
X94086735Y-171390000D01*
X94313265Y-171390000D01*
X94535443Y-171345806D01*
X94744729Y-171259116D01*
X94933082Y-171133263D01*
X95093263Y-170973082D01*
X95219116Y-170784729D01*
X95305806Y-170575443D01*
X95350000Y-170353265D01*
X95350000Y-170126735D01*
X95305806Y-169904557D01*
X95219116Y-169695271D01*
X95093263Y-169506918D01*
X94933082Y-169346737D01*
X94744729Y-169220884D01*
X94535443Y-169134194D01*
X94313265Y-169090000D01*
X94086735Y-169090000D01*
X93864557Y-169134194D01*
X93655271Y-169220884D01*
X93466918Y-169346737D01*
X93306737Y-169506918D01*
X93180884Y-169695271D01*
X93094194Y-169904557D01*
X93050000Y-170126735D01*
X86657776Y-170126735D01*
X84117776Y-167586735D01*
X93050000Y-167586735D01*
X93050000Y-167813265D01*
X93094194Y-168035443D01*
X93180884Y-168244729D01*
X93306737Y-168433082D01*
X93466918Y-168593263D01*
X93655271Y-168719116D01*
X93864557Y-168805806D01*
X94086735Y-168850000D01*
X94313265Y-168850000D01*
X94535443Y-168805806D01*
X94744729Y-168719116D01*
X94933082Y-168593263D01*
X95093263Y-168433082D01*
X95219116Y-168244729D01*
X95305806Y-168035443D01*
X95350000Y-167813265D01*
X95350000Y-167586735D01*
X95305806Y-167364557D01*
X95219116Y-167155271D01*
X95093263Y-166966918D01*
X94933082Y-166806737D01*
X94744729Y-166680884D01*
X94535443Y-166594194D01*
X94313265Y-166550000D01*
X94086735Y-166550000D01*
X93864557Y-166594194D01*
X93655271Y-166680884D01*
X93466918Y-166806737D01*
X93306737Y-166966918D01*
X93180884Y-167155271D01*
X93094194Y-167364557D01*
X93050000Y-167586735D01*
X84117776Y-167586735D01*
X81577776Y-165046735D01*
X93050000Y-165046735D01*
X93050000Y-165273265D01*
X93094194Y-165495443D01*
X93180884Y-165704729D01*
X93306737Y-165893082D01*
X93466918Y-166053263D01*
X93655271Y-166179116D01*
X93864557Y-166265806D01*
X94086735Y-166310000D01*
X94313265Y-166310000D01*
X94535443Y-166265806D01*
X94744729Y-166179116D01*
X94933082Y-166053263D01*
X95093263Y-165893082D01*
X95219116Y-165704729D01*
X95305806Y-165495443D01*
X95350000Y-165273265D01*
X95350000Y-165046735D01*
X95305806Y-164824557D01*
X95219116Y-164615271D01*
X95093263Y-164426918D01*
X94933082Y-164266737D01*
X94744729Y-164140884D01*
X94535443Y-164054194D01*
X94313265Y-164010000D01*
X94086735Y-164010000D01*
X93864557Y-164054194D01*
X93655271Y-164140884D01*
X93466918Y-164266737D01*
X93306737Y-164426918D01*
X93180884Y-164615271D01*
X93094194Y-164824557D01*
X93050000Y-165046735D01*
X81577776Y-165046735D01*
X80036212Y-163505172D01*
X80085806Y-163385443D01*
X80130000Y-163163265D01*
X80130000Y-162936735D01*
X80085806Y-162714557D01*
X79999723Y-162506735D01*
X93050000Y-162506735D01*
X93050000Y-162733265D01*
X93094194Y-162955443D01*
X93180884Y-163164729D01*
X93306737Y-163353082D01*
X93466918Y-163513263D01*
X93655271Y-163639116D01*
X93864557Y-163725806D01*
X94086735Y-163770000D01*
X94313265Y-163770000D01*
X94535443Y-163725806D01*
X94744729Y-163639116D01*
X94933082Y-163513263D01*
X95093263Y-163353082D01*
X95219116Y-163164729D01*
X95305806Y-162955443D01*
X95350000Y-162733265D01*
X95350000Y-162506735D01*
X95305806Y-162284557D01*
X95219116Y-162075271D01*
X95093263Y-161886918D01*
X94933082Y-161726737D01*
X94744729Y-161600884D01*
X94535443Y-161514194D01*
X94313265Y-161470000D01*
X94086735Y-161470000D01*
X93864557Y-161514194D01*
X93655271Y-161600884D01*
X93466918Y-161726737D01*
X93306737Y-161886918D01*
X93180884Y-162075271D01*
X93094194Y-162284557D01*
X93050000Y-162506735D01*
X79999723Y-162506735D01*
X79999116Y-162505271D01*
X79873263Y-162316918D01*
X79713082Y-162156737D01*
X79524729Y-162030884D01*
X79315443Y-161944194D01*
X79093265Y-161900000D01*
X78866735Y-161900000D01*
X78644557Y-161944194D01*
X78435271Y-162030884D01*
X78246918Y-162156737D01*
X78086737Y-162316918D01*
X77960884Y-162505271D01*
X77874194Y-162714557D01*
X77830000Y-162936735D01*
X77830000Y-163037962D01*
X77556282Y-162764244D01*
X77555500Y-162763291D01*
X77545806Y-162714557D01*
X77459116Y-162505271D01*
X77333263Y-162316918D01*
X77173082Y-162156737D01*
X76984729Y-162030884D01*
X76775443Y-161944194D01*
X76553265Y-161900000D01*
X76326735Y-161900000D01*
X76104557Y-161944194D01*
X75895271Y-162030884D01*
X75706918Y-162156737D01*
X75546737Y-162316918D01*
X75420884Y-162505271D01*
X75334194Y-162714557D01*
X75290000Y-162936735D01*
X75050000Y-162936735D01*
X75005806Y-162714557D01*
X74919116Y-162505271D01*
X74793263Y-162316918D01*
X74633082Y-162156737D01*
X74444729Y-162030884D01*
X74235443Y-161944194D01*
X74013265Y-161900000D01*
X73786735Y-161900000D01*
X73564557Y-161944194D01*
X73355271Y-162030884D01*
X73166918Y-162156737D01*
X73006737Y-162316918D01*
X72880884Y-162505271D01*
X72794194Y-162714557D01*
X72750000Y-162936735D01*
X72510000Y-162936735D01*
X72465806Y-162714557D01*
X72379116Y-162505271D01*
X72253263Y-162316918D01*
X72093082Y-162156737D01*
X71904729Y-162030884D01*
X71695443Y-161944194D01*
X71473265Y-161900000D01*
X71246735Y-161900000D01*
X71024557Y-161944194D01*
X70815271Y-162030884D01*
X70626918Y-162156737D01*
X70466737Y-162316918D01*
X70420001Y-162386864D01*
X70420001Y-159966735D01*
X93050000Y-159966735D01*
X93050000Y-160193265D01*
X93094194Y-160415443D01*
X93180884Y-160624729D01*
X93306737Y-160813082D01*
X93466918Y-160973263D01*
X93655271Y-161099116D01*
X93864557Y-161185806D01*
X94086735Y-161230000D01*
X94313265Y-161230000D01*
X94535443Y-161185806D01*
X94744729Y-161099116D01*
X94933082Y-160973263D01*
X95093263Y-160813082D01*
X95219116Y-160624729D01*
X95305806Y-160415443D01*
X95350000Y-160193265D01*
X95350000Y-159966735D01*
X95305806Y-159744557D01*
X95219116Y-159535271D01*
X95093263Y-159346918D01*
X94933082Y-159186737D01*
X94744729Y-159060884D01*
X94535443Y-158974194D01*
X94313265Y-158930000D01*
X94086735Y-158930000D01*
X93864557Y-158974194D01*
X93655271Y-159060884D01*
X93466918Y-159186737D01*
X93306737Y-159346918D01*
X93180884Y-159535271D01*
X93094194Y-159744557D01*
X93050000Y-159966735D01*
X70420001Y-159966735D01*
X70420001Y-158865867D01*
X70422056Y-158845000D01*
X70420001Y-158824133D01*
X70420001Y-158824127D01*
X70413851Y-158761687D01*
X70389549Y-158681574D01*
X70350085Y-158607741D01*
X70296975Y-158543027D01*
X70280763Y-158529722D01*
X69501041Y-157750000D01*
X79048549Y-157750000D01*
X79048549Y-159450000D01*
X79054341Y-159508810D01*
X79071496Y-159565360D01*
X79099353Y-159617477D01*
X79136842Y-159663158D01*
X79182523Y-159700647D01*
X79234640Y-159728504D01*
X79291190Y-159745659D01*
X79350000Y-159751451D01*
X81050000Y-159751451D01*
X81108810Y-159745659D01*
X81165360Y-159728504D01*
X81217477Y-159700647D01*
X81263158Y-159663158D01*
X81300647Y-159617477D01*
X81328504Y-159565360D01*
X81345659Y-159508810D01*
X81351451Y-159450000D01*
X81351451Y-157750000D01*
X81345659Y-157691190D01*
X81328504Y-157634640D01*
X81300647Y-157582523D01*
X81263158Y-157536842D01*
X81217477Y-157499353D01*
X81165360Y-157471496D01*
X81108810Y-157454341D01*
X81050000Y-157448549D01*
X79350000Y-157448549D01*
X79291190Y-157454341D01*
X79234640Y-157471496D01*
X79182523Y-157499353D01*
X79136842Y-157536842D01*
X79099353Y-157582523D01*
X79071496Y-157634640D01*
X79054341Y-157691190D01*
X79048549Y-157750000D01*
X69501041Y-157750000D01*
X67175000Y-155423960D01*
X67175000Y-152210000D01*
X77446009Y-152210000D01*
X77461938Y-152371728D01*
X77509112Y-152527241D01*
X77585719Y-152670563D01*
X77688815Y-152796185D01*
X77748296Y-152845000D01*
X77688815Y-152893815D01*
X77585719Y-153019437D01*
X77509112Y-153162759D01*
X77461938Y-153318272D01*
X77446009Y-153480000D01*
X77461938Y-153641728D01*
X77509112Y-153797241D01*
X77585719Y-153940563D01*
X77688815Y-154066185D01*
X77814437Y-154169281D01*
X77957759Y-154245888D01*
X78113272Y-154293062D01*
X78234479Y-154305000D01*
X78765521Y-154305000D01*
X78886728Y-154293062D01*
X79042241Y-154245888D01*
X79185563Y-154169281D01*
X79311185Y-154066185D01*
X79414281Y-153940563D01*
X79490888Y-153797241D01*
X79538062Y-153641728D01*
X79553991Y-153480000D01*
X79538062Y-153318272D01*
X79490888Y-153162759D01*
X79414281Y-153019437D01*
X79311185Y-152893815D01*
X79251704Y-152845000D01*
X79311185Y-152796185D01*
X79414281Y-152670563D01*
X79490888Y-152527241D01*
X79538062Y-152371728D01*
X79553991Y-152210000D01*
X79538062Y-152048272D01*
X79490888Y-151892759D01*
X79414281Y-151749437D01*
X79311185Y-151623815D01*
X79185563Y-151520719D01*
X79042241Y-151444112D01*
X78886728Y-151396938D01*
X78765521Y-151385000D01*
X78234479Y-151385000D01*
X78113272Y-151396938D01*
X77957759Y-151444112D01*
X77814437Y-151520719D01*
X77688815Y-151623815D01*
X77585719Y-151749437D01*
X77509112Y-151892759D01*
X77461938Y-152048272D01*
X77446009Y-152210000D01*
X67175000Y-152210000D01*
X67175000Y-145957917D01*
X67196224Y-145943736D01*
X67293726Y-145846234D01*
X67370332Y-145731584D01*
X67423099Y-145604192D01*
X67450000Y-145468954D01*
X67450000Y-145331066D01*
X67423099Y-145195828D01*
X67370332Y-145068436D01*
X67293726Y-144953786D01*
X67196224Y-144856284D01*
X67081574Y-144779678D01*
X66954182Y-144726911D01*
X66818944Y-144700010D01*
X66681056Y-144700010D01*
X66545818Y-144726911D01*
X66418426Y-144779678D01*
X66303776Y-144856284D01*
X66206274Y-144953786D01*
X66129668Y-145068436D01*
X66076901Y-145195828D01*
X66050000Y-145331066D01*
X65525000Y-145331066D01*
X65525000Y-144871497D01*
X65546224Y-144857316D01*
X65643726Y-144759814D01*
X65720332Y-144645164D01*
X65773099Y-144517772D01*
X65800000Y-144382534D01*
X65800000Y-144244646D01*
X65773099Y-144109408D01*
X65720332Y-143982016D01*
X65643726Y-143867366D01*
X65546224Y-143769864D01*
X65431574Y-143693258D01*
X65304182Y-143640491D01*
X65301642Y-143639986D01*
X67510572Y-141431056D01*
X71800000Y-141431056D01*
X71800000Y-141568944D01*
X71826901Y-141704182D01*
X71879668Y-141831574D01*
X71956274Y-141946224D01*
X72053776Y-142043726D01*
X72074467Y-142057551D01*
X72072945Y-142073002D01*
X72075000Y-142093869D01*
X72075000Y-142093875D01*
X72081150Y-142156315D01*
X72105452Y-142236428D01*
X72144916Y-142310261D01*
X72198026Y-142374976D01*
X72214244Y-142388286D01*
X84375001Y-154549044D01*
X84375000Y-157842093D01*
X84353776Y-157856274D01*
X84256274Y-157953776D01*
X84179668Y-158068426D01*
X84126901Y-158195818D01*
X84100000Y-158331056D01*
X84100000Y-158468944D01*
X84126901Y-158604182D01*
X84179668Y-158731574D01*
X84256274Y-158846224D01*
X84353776Y-158943726D01*
X84468426Y-159020332D01*
X84595818Y-159073099D01*
X84731056Y-159100000D01*
X84868944Y-159100000D01*
X85004182Y-159073099D01*
X85131574Y-159020332D01*
X85246224Y-158943726D01*
X85343726Y-158846224D01*
X85420332Y-158731574D01*
X85473099Y-158604182D01*
X85500000Y-158468944D01*
X85500000Y-158331056D01*
X85473099Y-158195818D01*
X85420332Y-158068426D01*
X85343726Y-157953776D01*
X85246224Y-157856274D01*
X85225000Y-157842093D01*
X85225000Y-157426735D01*
X93050000Y-157426735D01*
X93050000Y-157653265D01*
X93094194Y-157875443D01*
X93180884Y-158084729D01*
X93306737Y-158273082D01*
X93466918Y-158433263D01*
X93655271Y-158559116D01*
X93864557Y-158645806D01*
X94086735Y-158690000D01*
X94313265Y-158690000D01*
X94535443Y-158645806D01*
X94744729Y-158559116D01*
X94933082Y-158433263D01*
X95093263Y-158273082D01*
X95219116Y-158084729D01*
X95305806Y-157875443D01*
X95350000Y-157653265D01*
X95350000Y-157426735D01*
X95305806Y-157204557D01*
X95219116Y-156995271D01*
X95093263Y-156806918D01*
X94933082Y-156646737D01*
X94744729Y-156520884D01*
X94535443Y-156434194D01*
X94313265Y-156390000D01*
X94086735Y-156390000D01*
X93864557Y-156434194D01*
X93655271Y-156520884D01*
X93466918Y-156646737D01*
X93306737Y-156806918D01*
X93180884Y-156995271D01*
X93094194Y-157204557D01*
X93050000Y-157426735D01*
X85225000Y-157426735D01*
X85225000Y-154393869D01*
X85227055Y-154373002D01*
X85225000Y-154352135D01*
X85225000Y-154352128D01*
X85218850Y-154289688D01*
X85218850Y-154289687D01*
X85194548Y-154209574D01*
X85180801Y-154183857D01*
X85155084Y-154135742D01*
X85101974Y-154071028D01*
X85085762Y-154057723D01*
X80454774Y-149426735D01*
X87600000Y-149426735D01*
X87600000Y-149653265D01*
X87644194Y-149875443D01*
X87730884Y-150084729D01*
X87856737Y-150273082D01*
X88016918Y-150433263D01*
X88205271Y-150559116D01*
X88414557Y-150645806D01*
X88636735Y-150690000D01*
X88863265Y-150690000D01*
X89085443Y-150645806D01*
X89294729Y-150559116D01*
X89483082Y-150433263D01*
X89643263Y-150273082D01*
X89769116Y-150084729D01*
X89855806Y-149875443D01*
X89900000Y-149653265D01*
X89900000Y-149426735D01*
X89855806Y-149204557D01*
X89769116Y-148995271D01*
X89643263Y-148806918D01*
X89483082Y-148646737D01*
X89294729Y-148520884D01*
X89085443Y-148434194D01*
X88863265Y-148390000D01*
X88636735Y-148390000D01*
X88414557Y-148434194D01*
X88205271Y-148520884D01*
X88016918Y-148646737D01*
X87856737Y-148806918D01*
X87730884Y-148995271D01*
X87644194Y-149204557D01*
X87600000Y-149426735D01*
X80454774Y-149426735D01*
X77178039Y-146150000D01*
X87598549Y-146150000D01*
X87598549Y-147850000D01*
X87604341Y-147908810D01*
X87621496Y-147965360D01*
X87649353Y-148017477D01*
X87686842Y-148063158D01*
X87732523Y-148100647D01*
X87784640Y-148128504D01*
X87841190Y-148145659D01*
X87900000Y-148151451D01*
X89600000Y-148151451D01*
X89658810Y-148145659D01*
X89715360Y-148128504D01*
X89767477Y-148100647D01*
X89813158Y-148063158D01*
X89850647Y-148017477D01*
X89878504Y-147965360D01*
X89895659Y-147908810D01*
X89901451Y-147850000D01*
X89901451Y-146150000D01*
X95348549Y-146150000D01*
X95348549Y-147850000D01*
X95354341Y-147908810D01*
X95371496Y-147965360D01*
X95399353Y-148017477D01*
X95436842Y-148063158D01*
X95482523Y-148100647D01*
X95534640Y-148128504D01*
X95591190Y-148145659D01*
X95650000Y-148151451D01*
X97350000Y-148151451D01*
X97408810Y-148145659D01*
X97465360Y-148128504D01*
X97517477Y-148100647D01*
X97563158Y-148063158D01*
X97600647Y-148017477D01*
X97628504Y-147965360D01*
X97645659Y-147908810D01*
X97651451Y-147850000D01*
X97651451Y-146150000D01*
X97645659Y-146091190D01*
X97628504Y-146034640D01*
X97600647Y-145982523D01*
X97563158Y-145936842D01*
X97517477Y-145899353D01*
X97465360Y-145871496D01*
X97408810Y-145854341D01*
X97350000Y-145848549D01*
X95650000Y-145848549D01*
X95591190Y-145854341D01*
X95534640Y-145871496D01*
X95482523Y-145899353D01*
X95436842Y-145936842D01*
X95399353Y-145982523D01*
X95371496Y-146034640D01*
X95354341Y-146091190D01*
X95348549Y-146150000D01*
X89901451Y-146150000D01*
X89895659Y-146091190D01*
X89878504Y-146034640D01*
X89850647Y-145982523D01*
X89813158Y-145936842D01*
X89767477Y-145899353D01*
X89715360Y-145871496D01*
X89658810Y-145854341D01*
X89600000Y-145848549D01*
X87900000Y-145848549D01*
X87841190Y-145854341D01*
X87784640Y-145871496D01*
X87732523Y-145899353D01*
X87686842Y-145936842D01*
X87649353Y-145982523D01*
X87621496Y-146034640D01*
X87604341Y-146091190D01*
X87598549Y-146150000D01*
X77178039Y-146150000D01*
X73008994Y-141980956D01*
X73043726Y-141946224D01*
X73120332Y-141831574D01*
X73173099Y-141704182D01*
X73200000Y-141568944D01*
X73200000Y-141431056D01*
X73173099Y-141295818D01*
X73120332Y-141168426D01*
X73043726Y-141053776D01*
X72946224Y-140956274D01*
X72831574Y-140879668D01*
X72704182Y-140826901D01*
X72568944Y-140800000D01*
X72431056Y-140800000D01*
X72295818Y-140826901D01*
X72168426Y-140879668D01*
X72053776Y-140956274D01*
X71956274Y-141053776D01*
X71879668Y-141168426D01*
X71826901Y-141295818D01*
X71800000Y-141431056D01*
X67510572Y-141431056D01*
X72266628Y-136675000D01*
X74323960Y-136675000D01*
X74934721Y-137285762D01*
X74948026Y-137301974D01*
X75012740Y-137355084D01*
X75086573Y-137394548D01*
X75142383Y-137411478D01*
X75166685Y-137418850D01*
X75175098Y-137419679D01*
X75229126Y-137425000D01*
X75229132Y-137425000D01*
X75249999Y-137427055D01*
X75270866Y-137425000D01*
X77442093Y-137425000D01*
X77456274Y-137446224D01*
X77553776Y-137543726D01*
X77668426Y-137620332D01*
X77795818Y-137673099D01*
X77931056Y-137700000D01*
X78068944Y-137700000D01*
X78204182Y-137673099D01*
X78241189Y-137657771D01*
X75093980Y-140804980D01*
X75068944Y-140800000D01*
X74931056Y-140800000D01*
X74795818Y-140826901D01*
X74668426Y-140879668D01*
X74553776Y-140956274D01*
X74456274Y-141053776D01*
X74379668Y-141168426D01*
X74326901Y-141295818D01*
X74300000Y-141431056D01*
X74300000Y-141568944D01*
X74326901Y-141704182D01*
X74379668Y-141831574D01*
X74456274Y-141946224D01*
X74553776Y-142043726D01*
X74668426Y-142120332D01*
X74795818Y-142173099D01*
X74931056Y-142200000D01*
X75068944Y-142200000D01*
X75204182Y-142173099D01*
X75331574Y-142120332D01*
X75446224Y-142043726D01*
X75543726Y-141946224D01*
X75553860Y-141931056D01*
X78500000Y-141931056D01*
X78500000Y-142068944D01*
X78526901Y-142204182D01*
X78579668Y-142331574D01*
X78656274Y-142446224D01*
X78753776Y-142543726D01*
X78868426Y-142620332D01*
X78995818Y-142673099D01*
X79131056Y-142700000D01*
X79268944Y-142700000D01*
X79404182Y-142673099D01*
X79531574Y-142620332D01*
X79646224Y-142543726D01*
X79743726Y-142446224D01*
X79814919Y-142339675D01*
X80347859Y-141806735D01*
X95350000Y-141806735D01*
X95350000Y-142033265D01*
X95394194Y-142255443D01*
X95480884Y-142464729D01*
X95606737Y-142653082D01*
X95766918Y-142813263D01*
X95955271Y-142939116D01*
X96164557Y-143025806D01*
X96386735Y-143070000D01*
X96613265Y-143070000D01*
X96835443Y-143025806D01*
X97044729Y-142939116D01*
X97233082Y-142813263D01*
X97393263Y-142653082D01*
X97519116Y-142464729D01*
X97605806Y-142255443D01*
X97650000Y-142033265D01*
X97650000Y-141806735D01*
X97605806Y-141584557D01*
X97519116Y-141375271D01*
X97393263Y-141186918D01*
X97233082Y-141026737D01*
X97044729Y-140900884D01*
X96835443Y-140814194D01*
X96613265Y-140770000D01*
X96386735Y-140770000D01*
X96164557Y-140814194D01*
X95955271Y-140900884D01*
X95766918Y-141026737D01*
X95606737Y-141186918D01*
X95480884Y-141375271D01*
X95394194Y-141584557D01*
X95350000Y-141806735D01*
X80347859Y-141806735D01*
X82887859Y-139266735D01*
X95350000Y-139266735D01*
X95350000Y-139493265D01*
X95394194Y-139715443D01*
X95480884Y-139924729D01*
X95606737Y-140113082D01*
X95766918Y-140273263D01*
X95955271Y-140399116D01*
X96164557Y-140485806D01*
X96386735Y-140530000D01*
X96613265Y-140530000D01*
X96835443Y-140485806D01*
X97044729Y-140399116D01*
X97233082Y-140273263D01*
X97393263Y-140113082D01*
X97519116Y-139924729D01*
X97605806Y-139715443D01*
X97650000Y-139493265D01*
X97650000Y-139266735D01*
X97605806Y-139044557D01*
X97519116Y-138835271D01*
X97393263Y-138646918D01*
X97233082Y-138486737D01*
X97044729Y-138360884D01*
X96835443Y-138274194D01*
X96613265Y-138230000D01*
X96386735Y-138230000D01*
X96164557Y-138274194D01*
X95955271Y-138360884D01*
X95766918Y-138486737D01*
X95606737Y-138646918D01*
X95480884Y-138835271D01*
X95394194Y-139044557D01*
X95350000Y-139266735D01*
X82887859Y-139266735D01*
X83053852Y-139100742D01*
X83079606Y-139079606D01*
X83163958Y-138976824D01*
X83226636Y-138859561D01*
X83265233Y-138732323D01*
X83275000Y-138633159D01*
X83275000Y-138633153D01*
X83278265Y-138600001D01*
X83275000Y-138566849D01*
X83275000Y-136726735D01*
X95350000Y-136726735D01*
X95350000Y-136953265D01*
X95394194Y-137175443D01*
X95480884Y-137384729D01*
X95606737Y-137573082D01*
X95766918Y-137733263D01*
X95955271Y-137859116D01*
X96164557Y-137945806D01*
X96386735Y-137990000D01*
X96613265Y-137990000D01*
X96835443Y-137945806D01*
X97044729Y-137859116D01*
X97233082Y-137733263D01*
X97393263Y-137573082D01*
X97519116Y-137384729D01*
X97605806Y-137175443D01*
X97650000Y-136953265D01*
X97650000Y-136726735D01*
X97605806Y-136504557D01*
X97519116Y-136295271D01*
X97393263Y-136106918D01*
X97233082Y-135946737D01*
X97044729Y-135820884D01*
X96835443Y-135734194D01*
X96613265Y-135690000D01*
X96386735Y-135690000D01*
X96164557Y-135734194D01*
X95955271Y-135820884D01*
X95766918Y-135946737D01*
X95606737Y-136106918D01*
X95480884Y-136295271D01*
X95394194Y-136504557D01*
X95350000Y-136726735D01*
X83275000Y-136726735D01*
X83275000Y-135994625D01*
X83300000Y-135868944D01*
X83300000Y-135731056D01*
X83273099Y-135595818D01*
X83220332Y-135468426D01*
X83143726Y-135353776D01*
X83046224Y-135256274D01*
X82931574Y-135179668D01*
X82804182Y-135126901D01*
X82668944Y-135100000D01*
X82531056Y-135100000D01*
X82395818Y-135126901D01*
X82268426Y-135179668D01*
X82153776Y-135256274D01*
X82056274Y-135353776D01*
X81979668Y-135468426D01*
X81926901Y-135595818D01*
X81900000Y-135731056D01*
X81900000Y-135868944D01*
X81925000Y-135994626D01*
X81925001Y-138320405D01*
X78860325Y-141385081D01*
X78753776Y-141456274D01*
X78656274Y-141553776D01*
X78579668Y-141668426D01*
X78526901Y-141795818D01*
X78500000Y-141931056D01*
X75553860Y-141931056D01*
X75620332Y-141831574D01*
X75673099Y-141704182D01*
X75700000Y-141568944D01*
X75700000Y-141431056D01*
X75695020Y-141406020D01*
X79010764Y-138090277D01*
X79026975Y-138076973D01*
X79080085Y-138012259D01*
X79119549Y-137938426D01*
X79136479Y-137882616D01*
X79143851Y-137858314D01*
X79144604Y-137850672D01*
X79150001Y-137795873D01*
X79150001Y-137795866D01*
X79152056Y-137774999D01*
X79150001Y-137754132D01*
X79150001Y-136672873D01*
X79152057Y-136651999D01*
X79143851Y-136568685D01*
X79119549Y-136488572D01*
X79118847Y-136487259D01*
X79080085Y-136414739D01*
X79026975Y-136350025D01*
X79010757Y-136336715D01*
X78663285Y-135989243D01*
X78649975Y-135973025D01*
X78585261Y-135919915D01*
X78511428Y-135880451D01*
X78431315Y-135856149D01*
X78368875Y-135849999D01*
X78368868Y-135849999D01*
X78348001Y-135847944D01*
X78327134Y-135849999D01*
X77672865Y-135849999D01*
X77651998Y-135847944D01*
X77631131Y-135849999D01*
X77631125Y-135849999D01*
X77577097Y-135855320D01*
X77568684Y-135856149D01*
X77544382Y-135863521D01*
X77488572Y-135880451D01*
X77414739Y-135919915D01*
X77350025Y-135973025D01*
X77336715Y-135989243D01*
X77200968Y-136124990D01*
X76841323Y-136124990D01*
X76870332Y-136081574D01*
X76923099Y-135954182D01*
X76950000Y-135818944D01*
X76950000Y-135681056D01*
X76945020Y-135656020D01*
X80574305Y-132026735D01*
X95450000Y-132026735D01*
X95450000Y-132253265D01*
X95494194Y-132475443D01*
X95580884Y-132684729D01*
X95706737Y-132873082D01*
X95866918Y-133033263D01*
X96055271Y-133159116D01*
X96264557Y-133245806D01*
X96486735Y-133290000D01*
X96713265Y-133290000D01*
X96935443Y-133245806D01*
X97144729Y-133159116D01*
X97333082Y-133033263D01*
X97493263Y-132873082D01*
X97619116Y-132684729D01*
X97705806Y-132475443D01*
X97750000Y-132253265D01*
X97750000Y-132026735D01*
X97705806Y-131804557D01*
X97619116Y-131595271D01*
X97493263Y-131406918D01*
X97333082Y-131246737D01*
X97144729Y-131120884D01*
X96935443Y-131034194D01*
X96713265Y-130990000D01*
X96486735Y-130990000D01*
X96264557Y-131034194D01*
X96055271Y-131120884D01*
X95866918Y-131246737D01*
X95706737Y-131406918D01*
X95580884Y-131595271D01*
X95494194Y-131804557D01*
X95450000Y-132026735D01*
X80574305Y-132026735D01*
X83851040Y-128750000D01*
X95448549Y-128750000D01*
X95448549Y-130450000D01*
X95454341Y-130508810D01*
X95471496Y-130565360D01*
X95499353Y-130617477D01*
X95536842Y-130663158D01*
X95582523Y-130700647D01*
X95634640Y-130728504D01*
X95691190Y-130745659D01*
X95750000Y-130751451D01*
X97450000Y-130751451D01*
X97508810Y-130745659D01*
X97565360Y-130728504D01*
X97617477Y-130700647D01*
X97663158Y-130663158D01*
X97700647Y-130617477D01*
X97728504Y-130565360D01*
X97745659Y-130508810D01*
X97751451Y-130450000D01*
X97751451Y-128750000D01*
X97745659Y-128691190D01*
X97728504Y-128634640D01*
X97700647Y-128582523D01*
X97663158Y-128536842D01*
X97617477Y-128499353D01*
X97565360Y-128471496D01*
X97508810Y-128454341D01*
X97450000Y-128448549D01*
X95750000Y-128448549D01*
X95691190Y-128454341D01*
X95634640Y-128471496D01*
X95582523Y-128499353D01*
X95536842Y-128536842D01*
X95499353Y-128582523D01*
X95471496Y-128634640D01*
X95454341Y-128691190D01*
X95448549Y-128750000D01*
X83851040Y-128750000D01*
X88066031Y-124535010D01*
X100333970Y-124535010D01*
X101543788Y-125744828D01*
X101494194Y-125864557D01*
X101450000Y-126086735D01*
X101450000Y-126313265D01*
X101494194Y-126535443D01*
X101580884Y-126744729D01*
X101706737Y-126933082D01*
X101866918Y-127093263D01*
X102055271Y-127219116D01*
X102264557Y-127305806D01*
X102486735Y-127350000D01*
X102713265Y-127350000D01*
X102935443Y-127305806D01*
X103144729Y-127219116D01*
X103333082Y-127093263D01*
X103493263Y-126933082D01*
X103619116Y-126744729D01*
X103705806Y-126535443D01*
X103750000Y-126313265D01*
X103750000Y-126086735D01*
X103705806Y-125864557D01*
X103619116Y-125655271D01*
X103493263Y-125466918D01*
X103333082Y-125306737D01*
X103144729Y-125180884D01*
X102935443Y-125094194D01*
X102713265Y-125050000D01*
X102486735Y-125050000D01*
X102264557Y-125094194D01*
X102144828Y-125143788D01*
X101086040Y-124085000D01*
X101531290Y-124085000D01*
X101580884Y-124204729D01*
X101706737Y-124393082D01*
X101866918Y-124553263D01*
X102055271Y-124679116D01*
X102264557Y-124765806D01*
X102486735Y-124810000D01*
X102713265Y-124810000D01*
X102935443Y-124765806D01*
X103144729Y-124679116D01*
X103333082Y-124553263D01*
X103493263Y-124393082D01*
X103619116Y-124204729D01*
X103705806Y-123995443D01*
X103750000Y-123773265D01*
X103750000Y-123546735D01*
X103705806Y-123324557D01*
X103619116Y-123115271D01*
X103493263Y-122926918D01*
X103333082Y-122766737D01*
X103144729Y-122640884D01*
X102935443Y-122554194D01*
X102713265Y-122510000D01*
X102486735Y-122510000D01*
X102264557Y-122554194D01*
X102055271Y-122640884D01*
X101866918Y-122766737D01*
X101706737Y-122926918D01*
X101580884Y-123115271D01*
X101531290Y-123235000D01*
X83160867Y-123235000D01*
X83140000Y-123232945D01*
X83119133Y-123235000D01*
X83119126Y-123235000D01*
X83056686Y-123241150D01*
X82976573Y-123265452D01*
X82902740Y-123304916D01*
X82865847Y-123335194D01*
X85194306Y-121006735D01*
X101450000Y-121006735D01*
X101450000Y-121233265D01*
X101494194Y-121455443D01*
X101580884Y-121664729D01*
X101706737Y-121853082D01*
X101866918Y-122013263D01*
X102055271Y-122139116D01*
X102264557Y-122225806D01*
X102486735Y-122270000D01*
X102713265Y-122270000D01*
X102935443Y-122225806D01*
X103144729Y-122139116D01*
X103333082Y-122013263D01*
X103493263Y-121853082D01*
X103619116Y-121664729D01*
X103705806Y-121455443D01*
X103750000Y-121233265D01*
X103750000Y-121006735D01*
X103705806Y-120784557D01*
X103619116Y-120575271D01*
X103493263Y-120386918D01*
X103333082Y-120226737D01*
X103144729Y-120100884D01*
X102935443Y-120014194D01*
X102713265Y-119970000D01*
X102486735Y-119970000D01*
X102264557Y-120014194D01*
X102055271Y-120100884D01*
X101866918Y-120226737D01*
X101706737Y-120386918D01*
X101580884Y-120575271D01*
X101494194Y-120784557D01*
X101450000Y-121006735D01*
X85194306Y-121006735D01*
X88976041Y-117225000D01*
X101819133Y-117225000D01*
X101840000Y-117227055D01*
X101860867Y-117225000D01*
X101860874Y-117225000D01*
X101923314Y-117218850D01*
X102003427Y-117194548D01*
X102009221Y-117191451D01*
X103450000Y-117191451D01*
X103508810Y-117185659D01*
X103565360Y-117168504D01*
X103617477Y-117140647D01*
X103663158Y-117103158D01*
X103700647Y-117057477D01*
X103728504Y-117005360D01*
X103745659Y-116948810D01*
X103751451Y-116890000D01*
X103751451Y-115190000D01*
X103745659Y-115131190D01*
X103728504Y-115074640D01*
X103700647Y-115022523D01*
X103663158Y-114976842D01*
X103617477Y-114939353D01*
X103565360Y-114911496D01*
X103508810Y-114894341D01*
X103450000Y-114888549D01*
X101750000Y-114888549D01*
X101691190Y-114894341D01*
X101634640Y-114911496D01*
X101582523Y-114939353D01*
X101536842Y-114976842D01*
X101499353Y-115022523D01*
X101471496Y-115074640D01*
X101454341Y-115131190D01*
X101448549Y-115190000D01*
X101448549Y-116375000D01*
X88820866Y-116375000D01*
X88799999Y-116372945D01*
X88779132Y-116375000D01*
X88779126Y-116375000D01*
X88727519Y-116380083D01*
X88716685Y-116381150D01*
X88695169Y-116387677D01*
X88636573Y-116405452D01*
X88562740Y-116444916D01*
X88498026Y-116498026D01*
X88484721Y-116514238D01*
X73893980Y-131104980D01*
X73868944Y-131100000D01*
X73731056Y-131100000D01*
X73595818Y-131126901D01*
X73468426Y-131179668D01*
X73353776Y-131256274D01*
X73256274Y-131353776D01*
X73179668Y-131468426D01*
X73126901Y-131595818D01*
X73100000Y-131731056D01*
X73100000Y-131868944D01*
X73126901Y-132004182D01*
X73166590Y-132100001D01*
X72901042Y-132100001D01*
X72095020Y-131293980D01*
X72100000Y-131268944D01*
X72100000Y-131131056D01*
X72073099Y-130995818D01*
X72020332Y-130868426D01*
X71943726Y-130753776D01*
X71846224Y-130656274D01*
X71731574Y-130579668D01*
X71604182Y-130526901D01*
X71468944Y-130500000D01*
X71331056Y-130500000D01*
X71195818Y-130526901D01*
X71068426Y-130579668D01*
X70953776Y-130656274D01*
X70856274Y-130753776D01*
X70779668Y-130868426D01*
X70726901Y-130995818D01*
X70700000Y-131131056D01*
X70700000Y-131268944D01*
X70726901Y-131404182D01*
X70779668Y-131531574D01*
X70856274Y-131646224D01*
X70953776Y-131743726D01*
X71068426Y-131820332D01*
X71195818Y-131873099D01*
X71331056Y-131900000D01*
X71468944Y-131900000D01*
X71493980Y-131895020D01*
X72409722Y-132810763D01*
X72423027Y-132826975D01*
X72487741Y-132880085D01*
X72561574Y-132919549D01*
X72599508Y-132931056D01*
X72641686Y-132943851D01*
X72650099Y-132944680D01*
X72704127Y-132950001D01*
X72704133Y-132950001D01*
X72725000Y-132952056D01*
X72745867Y-132950001D01*
X74254132Y-132950001D01*
X74274999Y-132952056D01*
X74295866Y-132950001D01*
X74295873Y-132950001D01*
X74358313Y-132943851D01*
X74438426Y-132919549D01*
X74512259Y-132880085D01*
X74576973Y-132826975D01*
X74590283Y-132810757D01*
X83316040Y-124085000D01*
X87313959Y-124085000D01*
X76343980Y-135054980D01*
X76318944Y-135050000D01*
X76181056Y-135050000D01*
X76045818Y-135076901D01*
X75918426Y-135129668D01*
X75803776Y-135206274D01*
X75706274Y-135303776D01*
X75629668Y-135418426D01*
X75576901Y-135545818D01*
X75550000Y-135681056D01*
X75550000Y-135818944D01*
X75576901Y-135954182D01*
X75629668Y-136081574D01*
X75658677Y-136124990D01*
X75612441Y-136124990D01*
X74951693Y-135464243D01*
X74938384Y-135448026D01*
X74873670Y-135394916D01*
X74799837Y-135355452D01*
X74719724Y-135331150D01*
X74657284Y-135325000D01*
X74657277Y-135325000D01*
X74636410Y-135322945D01*
X74615543Y-135325000D01*
X63426041Y-135325000D01*
X53315284Y-125214244D01*
X53301974Y-125198026D01*
X53237260Y-125144916D01*
X53163427Y-125105452D01*
X53083314Y-125081150D01*
X53020874Y-125075000D01*
X53020867Y-125075000D01*
X53000000Y-125072945D01*
X52979133Y-125075000D01*
X45676041Y-125075000D01*
X41806212Y-121205172D01*
X41855806Y-121085443D01*
X41900000Y-120863265D01*
X41900000Y-120636735D01*
X41855806Y-120414557D01*
X41769116Y-120205271D01*
X41643263Y-120016918D01*
X41483082Y-119856737D01*
X41294729Y-119730884D01*
X41085443Y-119644194D01*
X40863265Y-119600000D01*
X40636735Y-119600000D01*
X40414557Y-119644194D01*
X40205271Y-119730884D01*
X40016918Y-119856737D01*
X39856737Y-120016918D01*
X39730884Y-120205271D01*
X39644194Y-120414557D01*
X39600000Y-120636735D01*
X39600000Y-120863265D01*
X39644194Y-121085443D01*
X39730884Y-121294729D01*
X39856737Y-121483082D01*
X40016918Y-121643263D01*
X40205271Y-121769116D01*
X40414557Y-121855806D01*
X40636735Y-121900000D01*
X40863265Y-121900000D01*
X41085443Y-121855806D01*
X41205172Y-121806212D01*
X45184719Y-125785760D01*
X45198026Y-125801974D01*
X45262740Y-125855084D01*
X45336573Y-125894548D01*
X45392383Y-125911478D01*
X45416685Y-125918850D01*
X45425098Y-125919679D01*
X45479126Y-125925000D01*
X45479132Y-125925000D01*
X45499999Y-125927055D01*
X45520866Y-125925000D01*
X52823960Y-125925000D01*
X61198959Y-134300000D01*
X61181056Y-134300000D01*
X61045818Y-134326901D01*
X60918426Y-134379668D01*
X60803776Y-134456274D01*
X60706274Y-134553776D01*
X60629668Y-134668426D01*
X60576901Y-134795818D01*
X60550000Y-134931056D01*
X60550000Y-135068944D01*
X60576901Y-135204182D01*
X60629668Y-135331574D01*
X60706274Y-135446224D01*
X60803776Y-135543726D01*
X60918426Y-135620332D01*
X61045818Y-135673099D01*
X61181056Y-135700000D01*
X61300002Y-135700000D01*
X61300001Y-139313168D01*
X61293726Y-139303776D01*
X61196224Y-139206274D01*
X61081574Y-139129668D01*
X60954182Y-139076901D01*
X60818944Y-139050000D01*
X60681056Y-139050000D01*
X60656021Y-139054980D01*
X49662079Y-128061039D01*
X49648769Y-128044821D01*
X49584055Y-127991711D01*
X49510222Y-127952247D01*
X49430109Y-127927945D01*
X49367669Y-127921795D01*
X49367662Y-127921795D01*
X49346795Y-127919740D01*
X49325928Y-127921795D01*
X45982835Y-127921795D01*
X39266212Y-121205172D01*
X39315806Y-121085443D01*
X39360000Y-120863265D01*
X39360000Y-120636735D01*
X39315806Y-120414557D01*
X39229116Y-120205271D01*
X39103263Y-120016918D01*
X38943082Y-119856737D01*
X38754729Y-119730884D01*
X38545443Y-119644194D01*
X38323265Y-119600000D01*
X38096735Y-119600000D01*
X37874557Y-119644194D01*
X37665271Y-119730884D01*
X37476918Y-119856737D01*
X37316737Y-120016918D01*
X37190884Y-120205271D01*
X37104194Y-120414557D01*
X37060000Y-120636735D01*
X37060000Y-120863265D01*
X37104194Y-121085443D01*
X37190884Y-121294729D01*
X37316737Y-121483082D01*
X37476918Y-121643263D01*
X37665271Y-121769116D01*
X37874557Y-121855806D01*
X38096735Y-121900000D01*
X38323265Y-121900000D01*
X38545443Y-121855806D01*
X38665172Y-121806212D01*
X45433960Y-128575000D01*
X44096041Y-128575000D01*
X36821451Y-121300411D01*
X36821451Y-119900000D01*
X36815659Y-119841190D01*
X36798504Y-119784640D01*
X36770647Y-119732523D01*
X36733158Y-119686842D01*
X36687477Y-119649353D01*
X36635360Y-119621496D01*
X36578810Y-119604341D01*
X36520000Y-119598549D01*
X34820000Y-119598549D01*
X34761190Y-119604341D01*
X34704640Y-119621496D01*
X34652523Y-119649353D01*
X34606842Y-119686842D01*
X34569353Y-119732523D01*
X34541496Y-119784640D01*
X34524341Y-119841190D01*
X34518549Y-119900000D01*
X14411936Y-119900000D01*
X14378054Y-106414998D01*
X40921735Y-106414998D01*
X40925000Y-106448150D01*
X40925001Y-116486838D01*
X40921735Y-116520000D01*
X40934767Y-116652323D01*
X40973365Y-116779561D01*
X41036043Y-116896824D01*
X41099256Y-116973850D01*
X41099264Y-116973858D01*
X41120395Y-116999606D01*
X41146143Y-117020737D01*
X44693628Y-120568222D01*
X44680000Y-120636735D01*
X44680000Y-120863265D01*
X44724194Y-121085443D01*
X44810884Y-121294729D01*
X44936737Y-121483082D01*
X45096918Y-121643263D01*
X45285271Y-121769116D01*
X45494557Y-121855806D01*
X45716735Y-121900000D01*
X45943265Y-121900000D01*
X46165443Y-121855806D01*
X46374729Y-121769116D01*
X46563082Y-121643263D01*
X46723263Y-121483082D01*
X46849116Y-121294729D01*
X46935806Y-121085443D01*
X46980000Y-120863265D01*
X46980000Y-120636735D01*
X46935806Y-120414557D01*
X46849116Y-120205271D01*
X46723263Y-120016918D01*
X46563082Y-119856737D01*
X46374729Y-119730884D01*
X46165443Y-119644194D01*
X45943265Y-119600000D01*
X45716735Y-119600000D01*
X45648222Y-119613628D01*
X42275000Y-116240406D01*
X42275000Y-106694592D01*
X44098549Y-104871043D01*
X44098549Y-106350000D01*
X44104341Y-106408810D01*
X44121496Y-106465360D01*
X44149353Y-106517477D01*
X44186842Y-106563158D01*
X44232523Y-106600647D01*
X44284640Y-106628504D01*
X44341190Y-106645659D01*
X44400000Y-106651451D01*
X45800411Y-106651451D01*
X56959717Y-117810757D01*
X56973027Y-117826975D01*
X57037741Y-117880085D01*
X57111572Y-117919548D01*
X57111574Y-117919549D01*
X57191687Y-117943851D01*
X57275001Y-117952057D01*
X57295875Y-117950001D01*
X68204132Y-117950001D01*
X68224999Y-117952056D01*
X68245866Y-117950001D01*
X68245873Y-117950001D01*
X68308313Y-117943851D01*
X68388426Y-117919549D01*
X68462259Y-117880085D01*
X68526973Y-117826975D01*
X68540282Y-117810758D01*
X68906020Y-117445020D01*
X68931056Y-117450000D01*
X69068944Y-117450000D01*
X69204182Y-117423099D01*
X69331574Y-117370332D01*
X69446224Y-117293726D01*
X69500000Y-117239950D01*
X69553776Y-117293726D01*
X69668426Y-117370332D01*
X69795818Y-117423099D01*
X69931056Y-117450000D01*
X70068944Y-117450000D01*
X70204182Y-117423099D01*
X70331574Y-117370332D01*
X70446224Y-117293726D01*
X70500000Y-117239950D01*
X70553776Y-117293726D01*
X70668426Y-117370332D01*
X70795818Y-117423099D01*
X70931056Y-117450000D01*
X71068944Y-117450000D01*
X71204182Y-117423099D01*
X71331574Y-117370332D01*
X71446224Y-117293726D01*
X71543726Y-117196224D01*
X71620332Y-117081574D01*
X71625000Y-117070304D01*
X71629668Y-117081574D01*
X71706274Y-117196224D01*
X71803776Y-117293726D01*
X71918426Y-117370332D01*
X72045818Y-117423099D01*
X72181056Y-117450000D01*
X72318944Y-117450000D01*
X72454182Y-117423099D01*
X72581574Y-117370332D01*
X72696224Y-117293726D01*
X72793726Y-117196224D01*
X72870332Y-117081574D01*
X72923099Y-116954182D01*
X72950000Y-116818944D01*
X72950000Y-116681056D01*
X72923099Y-116545818D01*
X72870332Y-116418426D01*
X72793726Y-116303776D01*
X72696224Y-116206274D01*
X72581574Y-116129668D01*
X72454182Y-116076901D01*
X72318944Y-116050000D01*
X72181056Y-116050000D01*
X72045818Y-116076901D01*
X72014087Y-116090044D01*
X71663284Y-115739242D01*
X71649975Y-115723025D01*
X71585261Y-115669915D01*
X71511428Y-115630451D01*
X71431315Y-115606149D01*
X71368875Y-115599999D01*
X71368868Y-115599999D01*
X71348001Y-115597944D01*
X71327134Y-115599999D01*
X67395868Y-115599999D01*
X67375001Y-115597944D01*
X67354134Y-115599999D01*
X67354127Y-115599999D01*
X67299328Y-115605396D01*
X67291686Y-115606149D01*
X67269284Y-115612945D01*
X67211574Y-115630451D01*
X67137741Y-115669915D01*
X67073027Y-115723025D01*
X67059722Y-115739237D01*
X66693980Y-116104980D01*
X66668944Y-116100000D01*
X66531056Y-116100000D01*
X66395818Y-116126901D01*
X66268426Y-116179668D01*
X66153776Y-116256274D01*
X66056274Y-116353776D01*
X65979668Y-116468426D01*
X65926901Y-116595818D01*
X65900000Y-116731056D01*
X65900000Y-116868944D01*
X65926901Y-117004182D01*
X65966590Y-117100001D01*
X57451041Y-117100001D01*
X46401451Y-106050411D01*
X46401451Y-104749999D01*
X46913656Y-104749999D01*
X46896737Y-104766918D01*
X46770884Y-104955271D01*
X46684194Y-105164557D01*
X46640000Y-105386735D01*
X46640000Y-105613265D01*
X46684194Y-105835443D01*
X46770884Y-106044729D01*
X46896737Y-106233082D01*
X47056918Y-106393263D01*
X47245271Y-106519116D01*
X47454557Y-106605806D01*
X47676735Y-106650000D01*
X47903265Y-106650000D01*
X48125443Y-106605806D01*
X48334729Y-106519116D01*
X48523082Y-106393263D01*
X48683263Y-106233082D01*
X48809116Y-106044729D01*
X48895806Y-105835443D01*
X48940000Y-105613265D01*
X48940000Y-105386735D01*
X48895806Y-105164557D01*
X48809116Y-104955271D01*
X48683263Y-104766918D01*
X48666344Y-104749999D01*
X51993656Y-104749999D01*
X51976737Y-104766918D01*
X51850884Y-104955271D01*
X51764194Y-105164557D01*
X51720000Y-105386735D01*
X51720000Y-105613265D01*
X51764194Y-105835443D01*
X51850884Y-106044729D01*
X51976737Y-106233082D01*
X52136918Y-106393263D01*
X52325271Y-106519116D01*
X52534557Y-106605806D01*
X52756735Y-106650000D01*
X52983265Y-106650000D01*
X53205443Y-106605806D01*
X53414729Y-106519116D01*
X53603082Y-106393263D01*
X53763263Y-106233082D01*
X53889116Y-106044729D01*
X53975806Y-105835443D01*
X54020000Y-105613265D01*
X54020000Y-105386735D01*
X53975806Y-105164557D01*
X53889116Y-104955271D01*
X53763263Y-104766918D01*
X53746344Y-104749999D01*
X54533656Y-104749999D01*
X54516737Y-104766918D01*
X54390884Y-104955271D01*
X54304194Y-105164557D01*
X54260000Y-105386735D01*
X54260000Y-105613265D01*
X54304194Y-105835443D01*
X54390884Y-106044729D01*
X54516737Y-106233082D01*
X54676918Y-106393263D01*
X54865271Y-106519116D01*
X55074557Y-106605806D01*
X55296735Y-106650000D01*
X55523265Y-106650000D01*
X55745443Y-106605806D01*
X55865172Y-106556212D01*
X56969732Y-107660773D01*
X56983037Y-107676985D01*
X57047751Y-107730095D01*
X57121584Y-107769559D01*
X57177394Y-107786489D01*
X57201696Y-107793861D01*
X57209338Y-107794614D01*
X57264137Y-107800011D01*
X57264144Y-107800011D01*
X57285011Y-107802066D01*
X57305878Y-107800011D01*
X98044122Y-107800011D01*
X98064989Y-107802066D01*
X98085856Y-107800011D01*
X98085863Y-107800011D01*
X98148303Y-107793861D01*
X98228416Y-107769559D01*
X98302249Y-107730095D01*
X98366963Y-107676985D01*
X98380272Y-107660768D01*
X99784828Y-106256212D01*
X99904557Y-106305806D01*
X100126735Y-106350000D01*
X100353265Y-106350000D01*
X100575443Y-106305806D01*
X100784729Y-106219116D01*
X100973082Y-106093263D01*
X101133263Y-105933082D01*
X101259116Y-105744729D01*
X101345806Y-105535443D01*
X101390000Y-105313265D01*
X101390000Y-105086735D01*
X101345806Y-104864557D01*
X101259116Y-104655271D01*
X101133263Y-104466918D01*
X100973082Y-104306737D01*
X100784729Y-104180884D01*
X100575443Y-104094194D01*
X100353265Y-104050000D01*
X100126735Y-104050000D01*
X99904557Y-104094194D01*
X99695271Y-104180884D01*
X99506918Y-104306737D01*
X99346737Y-104466918D01*
X99220884Y-104655271D01*
X99134194Y-104864557D01*
X99090000Y-105086735D01*
X99090000Y-105313265D01*
X99134194Y-105535443D01*
X99183788Y-105655172D01*
X97888949Y-106950011D01*
X79874583Y-106950011D01*
X80438222Y-106386372D01*
X80506735Y-106400000D01*
X80733265Y-106400000D01*
X80955443Y-106355806D01*
X81164729Y-106269116D01*
X81353082Y-106143263D01*
X81513263Y-105983082D01*
X81639116Y-105794729D01*
X81725806Y-105585443D01*
X81770000Y-105363265D01*
X81770000Y-105136735D01*
X81725806Y-104914557D01*
X81639116Y-104705271D01*
X81513263Y-104516918D01*
X81496344Y-104499999D01*
X83698959Y-104499999D01*
X83848549Y-104649589D01*
X83848549Y-106050000D01*
X83854341Y-106108810D01*
X83871496Y-106165360D01*
X83899353Y-106217477D01*
X83936842Y-106263158D01*
X83982523Y-106300647D01*
X84034640Y-106328504D01*
X84091190Y-106345659D01*
X84150000Y-106351451D01*
X85850000Y-106351451D01*
X85908810Y-106345659D01*
X85965360Y-106328504D01*
X86017477Y-106300647D01*
X86063158Y-106263158D01*
X86100647Y-106217477D01*
X86128504Y-106165360D01*
X86145659Y-106108810D01*
X86151451Y-106050000D01*
X86151451Y-104412491D01*
X86483788Y-104744828D01*
X86434194Y-104864557D01*
X86390000Y-105086735D01*
X86390000Y-105313265D01*
X86434194Y-105535443D01*
X86520884Y-105744729D01*
X86646737Y-105933082D01*
X86806918Y-106093263D01*
X86995271Y-106219116D01*
X87204557Y-106305806D01*
X87426735Y-106350000D01*
X87653265Y-106350000D01*
X87875443Y-106305806D01*
X88084729Y-106219116D01*
X88273082Y-106093263D01*
X88433263Y-105933082D01*
X88559116Y-105744729D01*
X88645806Y-105535443D01*
X88690000Y-105313265D01*
X88690000Y-105086735D01*
X88645806Y-104864557D01*
X88559116Y-104655271D01*
X88433263Y-104466918D01*
X88273082Y-104306737D01*
X88084729Y-104180884D01*
X87875443Y-104094194D01*
X87653265Y-104050000D01*
X87426735Y-104050000D01*
X87204557Y-104094194D01*
X87084828Y-104143788D01*
X86291018Y-103349978D01*
X87628938Y-103349978D01*
X89023788Y-104744828D01*
X88974194Y-104864557D01*
X88930000Y-105086735D01*
X88930000Y-105313265D01*
X88974194Y-105535443D01*
X89060884Y-105744729D01*
X89186737Y-105933082D01*
X89346918Y-106093263D01*
X89535271Y-106219116D01*
X89744557Y-106305806D01*
X89966735Y-106350000D01*
X90193265Y-106350000D01*
X90415443Y-106305806D01*
X90624729Y-106219116D01*
X90813082Y-106093263D01*
X90973263Y-105933082D01*
X91099116Y-105744729D01*
X91185806Y-105535443D01*
X91230000Y-105313265D01*
X91230000Y-105086735D01*
X91185806Y-104864557D01*
X91099116Y-104655271D01*
X90973263Y-104466918D01*
X90813082Y-104306737D01*
X90624729Y-104180884D01*
X90415443Y-104094194D01*
X90193265Y-104050000D01*
X89966735Y-104050000D01*
X89744557Y-104094194D01*
X89624828Y-104143788D01*
X88381010Y-102899970D01*
X89718930Y-102899970D01*
X91563788Y-104744828D01*
X91514194Y-104864557D01*
X91470000Y-105086735D01*
X91470000Y-105313265D01*
X91514194Y-105535443D01*
X91600884Y-105744729D01*
X91726737Y-105933082D01*
X91886918Y-106093263D01*
X92075271Y-106219116D01*
X92284557Y-106305806D01*
X92506735Y-106350000D01*
X92733265Y-106350000D01*
X92955443Y-106305806D01*
X93164729Y-106219116D01*
X93353082Y-106093263D01*
X93513263Y-105933082D01*
X93639116Y-105744729D01*
X93725806Y-105535443D01*
X93770000Y-105313265D01*
X93770000Y-105086735D01*
X93725806Y-104864557D01*
X93639116Y-104655271D01*
X93513263Y-104466918D01*
X93353082Y-104306737D01*
X93164729Y-104180884D01*
X92955443Y-104094194D01*
X92733265Y-104050000D01*
X92506735Y-104050000D01*
X92284557Y-104094194D01*
X92164828Y-104143788D01*
X90471000Y-102449960D01*
X91808920Y-102449960D01*
X94103788Y-104744828D01*
X94054194Y-104864557D01*
X94010000Y-105086735D01*
X94010000Y-105313265D01*
X94054194Y-105535443D01*
X94140884Y-105744729D01*
X94266737Y-105933082D01*
X94426918Y-106093263D01*
X94615271Y-106219116D01*
X94824557Y-106305806D01*
X95046735Y-106350000D01*
X95273265Y-106350000D01*
X95495443Y-106305806D01*
X95704729Y-106219116D01*
X95893082Y-106093263D01*
X96053263Y-105933082D01*
X96179116Y-105744729D01*
X96265806Y-105535443D01*
X96310000Y-105313265D01*
X96310000Y-105086735D01*
X96265806Y-104864557D01*
X96179116Y-104655271D01*
X96053263Y-104466918D01*
X95893082Y-104306737D01*
X95704729Y-104180884D01*
X95495443Y-104094194D01*
X95273265Y-104050000D01*
X95046735Y-104050000D01*
X94824557Y-104094194D01*
X94704828Y-104143788D01*
X92560990Y-101999950D01*
X93898910Y-101999950D01*
X96643788Y-104744828D01*
X96594194Y-104864557D01*
X96550000Y-105086735D01*
X96550000Y-105313265D01*
X96594194Y-105535443D01*
X96680884Y-105744729D01*
X96806737Y-105933082D01*
X96966918Y-106093263D01*
X97155271Y-106219116D01*
X97364557Y-106305806D01*
X97586735Y-106350000D01*
X97813265Y-106350000D01*
X98035443Y-106305806D01*
X98244729Y-106219116D01*
X98433082Y-106093263D01*
X98593263Y-105933082D01*
X98719116Y-105744729D01*
X98805806Y-105535443D01*
X98850000Y-105313265D01*
X98850000Y-105086735D01*
X98805806Y-104864557D01*
X98719116Y-104655271D01*
X98593263Y-104466918D01*
X98433082Y-104306737D01*
X98244729Y-104180884D01*
X98035443Y-104094194D01*
X97813265Y-104050000D01*
X97586735Y-104050000D01*
X97364557Y-104094194D01*
X97244828Y-104143788D01*
X94390234Y-101289193D01*
X94376924Y-101272976D01*
X94312210Y-101219866D01*
X94238377Y-101180402D01*
X94158264Y-101156100D01*
X94095824Y-101149950D01*
X94095817Y-101149950D01*
X94074950Y-101147895D01*
X94054083Y-101149950D01*
X66535924Y-101149950D01*
X66515050Y-101147894D01*
X66494176Y-101149950D01*
X66431736Y-101156100D01*
X66351623Y-101180402D01*
X66277790Y-101219866D01*
X66213076Y-101272976D01*
X66199766Y-101289194D01*
X63390411Y-104098549D01*
X61990000Y-104098549D01*
X61931190Y-104104341D01*
X61874640Y-104121496D01*
X61822523Y-104149353D01*
X61776842Y-104186842D01*
X61739353Y-104232523D01*
X61711496Y-104284640D01*
X61694341Y-104341190D01*
X61688549Y-104400000D01*
X61688549Y-106000001D01*
X59404595Y-106000001D01*
X59086372Y-105681778D01*
X59100000Y-105613265D01*
X59100000Y-105386735D01*
X59055806Y-105164557D01*
X58969116Y-104955271D01*
X58843263Y-104766918D01*
X58683082Y-104606737D01*
X58494729Y-104480884D01*
X58285443Y-104394194D01*
X58063265Y-104350000D01*
X57836735Y-104350000D01*
X57768222Y-104363628D01*
X57025741Y-103621147D01*
X57004605Y-103595393D01*
X56901823Y-103511041D01*
X56784560Y-103448363D01*
X56657322Y-103409766D01*
X56558158Y-103399999D01*
X56558151Y-103399999D01*
X56524999Y-103396734D01*
X56491847Y-103399999D01*
X43973150Y-103399999D01*
X43939998Y-103396734D01*
X43906846Y-103399999D01*
X43906840Y-103399999D01*
X43821498Y-103408405D01*
X43807675Y-103409766D01*
X43769078Y-103421475D01*
X43680438Y-103448363D01*
X43563175Y-103511041D01*
X43460393Y-103595393D01*
X43439257Y-103621147D01*
X41146144Y-105914260D01*
X41120394Y-105935393D01*
X41099263Y-105961141D01*
X41099256Y-105961148D01*
X41066761Y-106000744D01*
X41036042Y-106038175D01*
X40973364Y-106155438D01*
X40955187Y-106215360D01*
X40939378Y-106267477D01*
X40934767Y-106282676D01*
X40925000Y-106381840D01*
X40925000Y-106381846D01*
X40921735Y-106414998D01*
X14378054Y-106414998D01*
X14350252Y-95350000D01*
X113650000Y-95350000D01*
X113650000Y-194650000D01*
%TA.AperFunction,Conductor*%
G36*
X113650000Y-194650000D02*
G01*
X14599749Y-194650000D01*
X14571603Y-183447500D01*
X19098549Y-183447500D01*
X19098549Y-185352500D01*
X19104341Y-185411310D01*
X19121496Y-185467860D01*
X19149353Y-185519977D01*
X19186842Y-185565658D01*
X19232523Y-185603147D01*
X19284640Y-185631004D01*
X19341190Y-185648159D01*
X19400000Y-185653951D01*
X21400000Y-185653951D01*
X21458810Y-185648159D01*
X21515360Y-185631004D01*
X21567477Y-185603147D01*
X21613158Y-185565658D01*
X21650647Y-185519977D01*
X21678504Y-185467860D01*
X21695659Y-185411310D01*
X21701451Y-185352500D01*
X21701451Y-183447500D01*
X21695659Y-183388690D01*
X21678504Y-183332140D01*
X21650647Y-183280023D01*
X21613158Y-183234342D01*
X21567477Y-183196853D01*
X21515360Y-183168996D01*
X21458810Y-183151841D01*
X21400000Y-183146049D01*
X19400000Y-183146049D01*
X19341190Y-183151841D01*
X19284640Y-183168996D01*
X19232523Y-183196853D01*
X19186842Y-183234342D01*
X19149353Y-183280023D01*
X19121496Y-183332140D01*
X19104341Y-183388690D01*
X19098549Y-183447500D01*
X14571603Y-183447500D01*
X14568343Y-182150000D01*
X34598549Y-182150000D01*
X34598549Y-183850000D01*
X34604341Y-183908810D01*
X34621496Y-183965360D01*
X34649353Y-184017477D01*
X34686842Y-184063158D01*
X34732523Y-184100647D01*
X34784640Y-184128504D01*
X34841190Y-184145659D01*
X34900000Y-184151451D01*
X36600000Y-184151451D01*
X36658810Y-184145659D01*
X36715360Y-184128504D01*
X36767477Y-184100647D01*
X36813158Y-184063158D01*
X36850647Y-184017477D01*
X36878504Y-183965360D01*
X36895659Y-183908810D01*
X36901451Y-183850000D01*
X36901451Y-182150000D01*
X36895659Y-182091190D01*
X36878504Y-182034640D01*
X36850647Y-181982523D01*
X36813158Y-181936842D01*
X36767477Y-181899353D01*
X36715360Y-181871496D01*
X36658810Y-181854341D01*
X36600000Y-181848549D01*
X34900000Y-181848549D01*
X34841190Y-181854341D01*
X34784640Y-181871496D01*
X34732523Y-181899353D01*
X34686842Y-181936842D01*
X34649353Y-181982523D01*
X34621496Y-182034640D01*
X34604341Y-182091190D01*
X34598549Y-182150000D01*
X14568343Y-182150000D01*
X14561232Y-179320000D01*
X19093940Y-179320000D01*
X19118123Y-179565533D01*
X19189742Y-179801630D01*
X19306046Y-180019218D01*
X19462564Y-180209936D01*
X19653282Y-180366454D01*
X19870870Y-180482758D01*
X20106967Y-180554377D01*
X20290972Y-180572500D01*
X20509028Y-180572500D01*
X20693033Y-180554377D01*
X20929130Y-180482758D01*
X21146718Y-180366454D01*
X21337436Y-180209936D01*
X21493954Y-180019218D01*
X21610258Y-179801630D01*
X21681877Y-179565533D01*
X21706060Y-179320000D01*
X21681877Y-179074467D01*
X21610258Y-178838370D01*
X21493954Y-178620782D01*
X21337436Y-178430064D01*
X21146718Y-178273546D01*
X20929130Y-178157242D01*
X20693033Y-178085623D01*
X20509028Y-178067500D01*
X20290972Y-178067500D01*
X20106967Y-178085623D01*
X19870870Y-178157242D01*
X19653282Y-178273546D01*
X19462564Y-178430064D01*
X19306046Y-178620782D01*
X19189742Y-178838370D01*
X19118123Y-179074467D01*
X19093940Y-179320000D01*
X14561232Y-179320000D01*
X14511961Y-159710000D01*
X19093940Y-159710000D01*
X19118123Y-159955533D01*
X19189742Y-160191630D01*
X19306046Y-160409218D01*
X19462564Y-160599936D01*
X19653282Y-160756454D01*
X19870870Y-160872758D01*
X20106967Y-160944377D01*
X20290972Y-160962500D01*
X20509028Y-160962500D01*
X20693033Y-160944377D01*
X20929130Y-160872758D01*
X21146718Y-160756454D01*
X21337436Y-160599936D01*
X21493954Y-160409218D01*
X21610258Y-160191630D01*
X21681877Y-159955533D01*
X21706060Y-159710000D01*
X21681877Y-159464467D01*
X21610258Y-159228370D01*
X21493954Y-159010782D01*
X21337436Y-158820064D01*
X21146718Y-158663546D01*
X20929130Y-158547242D01*
X20693033Y-158475623D01*
X20509028Y-158457500D01*
X20290972Y-158457500D01*
X20106967Y-158475623D01*
X19870870Y-158547242D01*
X19653282Y-158663546D01*
X19462564Y-158820064D01*
X19306046Y-159010782D01*
X19189742Y-159228370D01*
X19118123Y-159464467D01*
X19093940Y-159710000D01*
X14511961Y-159710000D01*
X14505579Y-157170000D01*
X19093940Y-157170000D01*
X19118123Y-157415533D01*
X19189742Y-157651630D01*
X19306046Y-157869218D01*
X19462564Y-158059936D01*
X19653282Y-158216454D01*
X19870870Y-158332758D01*
X20106967Y-158404377D01*
X20290972Y-158422500D01*
X20509028Y-158422500D01*
X20693033Y-158404377D01*
X20929130Y-158332758D01*
X21146718Y-158216454D01*
X21337436Y-158059936D01*
X21493954Y-157869218D01*
X21610258Y-157651630D01*
X21681877Y-157415533D01*
X21706060Y-157170000D01*
X21681877Y-156924467D01*
X21610258Y-156688370D01*
X21493954Y-156470782D01*
X21337436Y-156280064D01*
X21146718Y-156123546D01*
X20929130Y-156007242D01*
X20693033Y-155935623D01*
X20509028Y-155917500D01*
X20290972Y-155917500D01*
X20106967Y-155935623D01*
X19870870Y-156007242D01*
X19653282Y-156123546D01*
X19462564Y-156280064D01*
X19306046Y-156470782D01*
X19189742Y-156688370D01*
X19118123Y-156924467D01*
X19093940Y-157170000D01*
X14505579Y-157170000D01*
X14477706Y-146076735D01*
X17050000Y-146076735D01*
X17050000Y-146303265D01*
X17094194Y-146525443D01*
X17180884Y-146734729D01*
X17306737Y-146923082D01*
X17466918Y-147083263D01*
X17655271Y-147209116D01*
X17864557Y-147295806D01*
X18086735Y-147340000D01*
X18313265Y-147340000D01*
X18535443Y-147295806D01*
X18744729Y-147209116D01*
X18933082Y-147083263D01*
X19093263Y-146923082D01*
X19219116Y-146734729D01*
X19305806Y-146525443D01*
X19350000Y-146303265D01*
X19350000Y-146076735D01*
X19590000Y-146076735D01*
X19590000Y-146303265D01*
X19634194Y-146525443D01*
X19720884Y-146734729D01*
X19846737Y-146923082D01*
X20006918Y-147083263D01*
X20195271Y-147209116D01*
X20404557Y-147295806D01*
X20626735Y-147340000D01*
X20853265Y-147340000D01*
X21075443Y-147295806D01*
X21284729Y-147209116D01*
X21473082Y-147083263D01*
X21633263Y-146923082D01*
X21759116Y-146734729D01*
X21845806Y-146525443D01*
X21890000Y-146303265D01*
X21890000Y-146076735D01*
X21845806Y-145854557D01*
X21759116Y-145645271D01*
X21633263Y-145456918D01*
X21473082Y-145296737D01*
X21284729Y-145170884D01*
X21075443Y-145084194D01*
X20853265Y-145040000D01*
X20626735Y-145040000D01*
X20404557Y-145084194D01*
X20195271Y-145170884D01*
X20006918Y-145296737D01*
X19846737Y-145456918D01*
X19720884Y-145645271D01*
X19634194Y-145854557D01*
X19590000Y-146076735D01*
X19350000Y-146076735D01*
X19305806Y-145854557D01*
X19219116Y-145645271D01*
X19093263Y-145456918D01*
X18933082Y-145296737D01*
X18744729Y-145170884D01*
X18535443Y-145084194D01*
X18313265Y-145040000D01*
X18086735Y-145040000D01*
X17864557Y-145084194D01*
X17655271Y-145170884D01*
X17466918Y-145296737D01*
X17306737Y-145456918D01*
X17180884Y-145645271D01*
X17094194Y-145854557D01*
X17050000Y-146076735D01*
X14477706Y-146076735D01*
X14441126Y-131517557D01*
X42113499Y-131517557D01*
X42113499Y-131655445D01*
X42140400Y-131790683D01*
X42193167Y-131918075D01*
X42269773Y-132032725D01*
X42367275Y-132130227D01*
X42481925Y-132206833D01*
X42609317Y-132259600D01*
X42744555Y-132286501D01*
X42882443Y-132286501D01*
X43017681Y-132259600D01*
X43145073Y-132206833D01*
X43259723Y-132130227D01*
X43357225Y-132032725D01*
X43371406Y-132011501D01*
X48455592Y-132011501D01*
X48469773Y-132032725D01*
X48567275Y-132130227D01*
X48681925Y-132206833D01*
X48809317Y-132259600D01*
X48944555Y-132286501D01*
X49082443Y-132286501D01*
X49217681Y-132259600D01*
X49345073Y-132206833D01*
X49459723Y-132130227D01*
X49557225Y-132032725D01*
X49633831Y-131918075D01*
X49686598Y-131790683D01*
X49713499Y-131655445D01*
X49713499Y-131517557D01*
X49686598Y-131382319D01*
X49633831Y-131254927D01*
X49557225Y-131140277D01*
X49459723Y-131042775D01*
X49345073Y-130966169D01*
X49217681Y-130913402D01*
X49082443Y-130886501D01*
X48944555Y-130886501D01*
X48809317Y-130913402D01*
X48681925Y-130966169D01*
X48567275Y-131042775D01*
X48469773Y-131140277D01*
X48455592Y-131161501D01*
X43371406Y-131161501D01*
X43357225Y-131140277D01*
X43259723Y-131042775D01*
X43145073Y-130966169D01*
X43017681Y-130913402D01*
X42882443Y-130886501D01*
X42744555Y-130886501D01*
X42609317Y-130913402D01*
X42481925Y-130966169D01*
X42367275Y-131042775D01*
X42269773Y-131140277D01*
X42193167Y-131254927D01*
X42140400Y-131382319D01*
X42113499Y-131517557D01*
X14441126Y-131517557D01*
X14430654Y-127350000D01*
X18248549Y-127350000D01*
X18248549Y-129050000D01*
X18254341Y-129108810D01*
X18271496Y-129165360D01*
X18299353Y-129217477D01*
X18336842Y-129263158D01*
X18382523Y-129300647D01*
X18434640Y-129328504D01*
X18491190Y-129345659D01*
X18550000Y-129351451D01*
X20250000Y-129351451D01*
X20308810Y-129345659D01*
X20365360Y-129328504D01*
X20417477Y-129300647D01*
X20463158Y-129263158D01*
X20500647Y-129217477D01*
X20528504Y-129165360D01*
X20545659Y-129108810D01*
X20551451Y-129050000D01*
X20551451Y-127350000D01*
X20545659Y-127291190D01*
X20528504Y-127234640D01*
X20500647Y-127182523D01*
X20463158Y-127136842D01*
X20417477Y-127099353D01*
X20365360Y-127071496D01*
X20308810Y-127054341D01*
X20250000Y-127048549D01*
X18550000Y-127048549D01*
X18491190Y-127054341D01*
X18434640Y-127071496D01*
X18382523Y-127099353D01*
X18336842Y-127136842D01*
X18299353Y-127182523D01*
X18271496Y-127234640D01*
X18254341Y-127291190D01*
X18248549Y-127350000D01*
X14430654Y-127350000D01*
X14411936Y-119900000D01*
X34518549Y-119900000D01*
X34518549Y-121600000D01*
X34524341Y-121658810D01*
X34541496Y-121715360D01*
X34569353Y-121767477D01*
X34606842Y-121813158D01*
X34652523Y-121850647D01*
X34704640Y-121878504D01*
X34761190Y-121895659D01*
X34820000Y-121901451D01*
X36220411Y-121901451D01*
X43604719Y-129285760D01*
X43618026Y-129301974D01*
X43682740Y-129355084D01*
X43756573Y-129394548D01*
X43812383Y-129411478D01*
X43836685Y-129418850D01*
X43844327Y-129419603D01*
X43899126Y-129425000D01*
X43899133Y-129425000D01*
X43920000Y-129427055D01*
X43940867Y-129425000D01*
X49146962Y-129425000D01*
X52046962Y-132325000D01*
X51678904Y-132325000D01*
X51673099Y-132295818D01*
X51620332Y-132168426D01*
X51543726Y-132053776D01*
X51446224Y-131956274D01*
X51331574Y-131879668D01*
X51204182Y-131826901D01*
X51068944Y-131800000D01*
X50931056Y-131800000D01*
X50795818Y-131826901D01*
X50668426Y-131879668D01*
X50553776Y-131956274D01*
X50456274Y-132053776D01*
X50385081Y-132160325D01*
X36746143Y-145799263D01*
X36720395Y-145820394D01*
X36699264Y-145846142D01*
X36699256Y-145846150D01*
X36636043Y-145923176D01*
X36573365Y-146040439D01*
X36534767Y-146167677D01*
X36521735Y-146300000D01*
X36525001Y-146333162D01*
X36525000Y-162855375D01*
X36500000Y-162981056D01*
X36500000Y-163118944D01*
X36526901Y-163254182D01*
X36579668Y-163381574D01*
X36656274Y-163496224D01*
X36753776Y-163593726D01*
X36868426Y-163670332D01*
X36995818Y-163723099D01*
X37131056Y-163750000D01*
X37268944Y-163750000D01*
X37404182Y-163723099D01*
X37531574Y-163670332D01*
X37646224Y-163593726D01*
X37725000Y-163514950D01*
X37803776Y-163593726D01*
X37918426Y-163670332D01*
X38045818Y-163723099D01*
X38181056Y-163750000D01*
X38318944Y-163750000D01*
X38454182Y-163723099D01*
X38581574Y-163670332D01*
X38696224Y-163593726D01*
X38793726Y-163496224D01*
X38870332Y-163381574D01*
X38923099Y-163254182D01*
X38950000Y-163118944D01*
X38950000Y-162981056D01*
X38925000Y-162855375D01*
X38925000Y-146883151D01*
X38928265Y-146849999D01*
X38925000Y-146816847D01*
X38925000Y-146816841D01*
X38915233Y-146717677D01*
X38876636Y-146590439D01*
X38872289Y-146582305D01*
X51779594Y-133675000D01*
X52055375Y-133675000D01*
X52181056Y-133700000D01*
X52318944Y-133700000D01*
X52454182Y-133673099D01*
X52550002Y-133633410D01*
X52550001Y-135777136D01*
X52547946Y-135798003D01*
X52550001Y-135818870D01*
X52550001Y-135818876D01*
X52553604Y-135855452D01*
X52556151Y-135881317D01*
X52560277Y-135894917D01*
X52580453Y-135961429D01*
X52619917Y-136035262D01*
X52673027Y-136099977D01*
X52689245Y-136113287D01*
X57611719Y-141035762D01*
X57625024Y-141051974D01*
X57689738Y-141105084D01*
X57763571Y-141144548D01*
X57819381Y-141161478D01*
X57843683Y-141168850D01*
X57852096Y-141169679D01*
X57906124Y-141175000D01*
X57906130Y-141175000D01*
X57926997Y-141177055D01*
X57947864Y-141175000D01*
X60192093Y-141175000D01*
X60206274Y-141196224D01*
X60303776Y-141293726D01*
X60418426Y-141370332D01*
X60545818Y-141423099D01*
X60681056Y-141450000D01*
X60818944Y-141450000D01*
X60954182Y-141423099D01*
X61012502Y-141398942D01*
X61012501Y-144134460D01*
X60396034Y-144750928D01*
X60379822Y-144764233D01*
X60326712Y-144828947D01*
X60311549Y-144857316D01*
X60287248Y-144902780D01*
X60262945Y-144982893D01*
X60254740Y-145066207D01*
X60256796Y-145087083D01*
X60256795Y-146005754D01*
X42634230Y-163628320D01*
X42618018Y-163641625D01*
X42604713Y-163657837D01*
X42604711Y-163657839D01*
X42592445Y-163672786D01*
X42564908Y-163706339D01*
X42557563Y-163720081D01*
X42525444Y-163780172D01*
X42501141Y-163860285D01*
X42492936Y-163943599D01*
X42494992Y-163964476D01*
X42494990Y-174573959D01*
X40544239Y-176524711D01*
X40528027Y-176538016D01*
X40474917Y-176602730D01*
X40441870Y-176664557D01*
X40435453Y-176676563D01*
X40411150Y-176756676D01*
X40402945Y-176839990D01*
X40405001Y-176860867D01*
X40405000Y-181931290D01*
X40285271Y-181980884D01*
X40096918Y-182106737D01*
X39936737Y-182266918D01*
X39810884Y-182455271D01*
X39724194Y-182664557D01*
X39680000Y-182886735D01*
X39680000Y-183113265D01*
X39724194Y-183335443D01*
X39810884Y-183544729D01*
X39936737Y-183733082D01*
X40096918Y-183893263D01*
X40285271Y-184019116D01*
X40494557Y-184105806D01*
X40716735Y-184150000D01*
X40943265Y-184150000D01*
X41165443Y-184105806D01*
X41374729Y-184019116D01*
X41563082Y-183893263D01*
X41723263Y-183733082D01*
X41849116Y-183544729D01*
X41935806Y-183335443D01*
X41980000Y-183113265D01*
X41980000Y-182886735D01*
X41935806Y-182664557D01*
X41849116Y-182455271D01*
X41723263Y-182266918D01*
X41563082Y-182106737D01*
X41374729Y-181980884D01*
X41255000Y-181931290D01*
X41255000Y-177016030D01*
X42945001Y-175326030D01*
X42945001Y-181931290D01*
X42825271Y-181980884D01*
X42636918Y-182106737D01*
X42476737Y-182266918D01*
X42350884Y-182455271D01*
X42264194Y-182664557D01*
X42220000Y-182886735D01*
X42220000Y-183113265D01*
X42264194Y-183335443D01*
X42350884Y-183544729D01*
X42476737Y-183733082D01*
X42636918Y-183893263D01*
X42825271Y-184019116D01*
X43034557Y-184105806D01*
X43256735Y-184150000D01*
X43483265Y-184150000D01*
X43705443Y-184105806D01*
X43914729Y-184019116D01*
X44103082Y-183893263D01*
X44263263Y-183733082D01*
X44389116Y-183544729D01*
X44475806Y-183335443D01*
X44520000Y-183113265D01*
X44520000Y-182886735D01*
X44475806Y-182664557D01*
X44389116Y-182455271D01*
X44263263Y-182266918D01*
X44103082Y-182106737D01*
X43914729Y-181980884D01*
X43795000Y-181931290D01*
X43795000Y-181486040D01*
X44853788Y-182544828D01*
X44804194Y-182664557D01*
X44760000Y-182886735D01*
X44760000Y-183113265D01*
X44804194Y-183335443D01*
X44890884Y-183544729D01*
X45016737Y-183733082D01*
X45176918Y-183893263D01*
X45365271Y-184019116D01*
X45574557Y-184105806D01*
X45796735Y-184150000D01*
X46023265Y-184150000D01*
X46245443Y-184105806D01*
X46454729Y-184019116D01*
X46643082Y-183893263D01*
X46803263Y-183733082D01*
X46929116Y-183544729D01*
X47015806Y-183335443D01*
X47060000Y-183113265D01*
X47060000Y-182886735D01*
X47015806Y-182664557D01*
X46929116Y-182455271D01*
X46803263Y-182266918D01*
X46643082Y-182106737D01*
X46454729Y-181980884D01*
X46245443Y-181894194D01*
X46023265Y-181850000D01*
X45796735Y-181850000D01*
X45574557Y-181894194D01*
X45454828Y-181943788D01*
X44245010Y-180733970D01*
X44245010Y-179396050D01*
X47393788Y-182544829D01*
X47344194Y-182664557D01*
X47300000Y-182886735D01*
X47300000Y-183113265D01*
X47344194Y-183335443D01*
X47430884Y-183544729D01*
X47556737Y-183733082D01*
X47716918Y-183893263D01*
X47905271Y-184019116D01*
X48114557Y-184105806D01*
X48336735Y-184150000D01*
X48563265Y-184150000D01*
X48785443Y-184105806D01*
X48994729Y-184019116D01*
X49183082Y-183893263D01*
X49343263Y-183733082D01*
X49469116Y-183544729D01*
X49555806Y-183335443D01*
X49600000Y-183113265D01*
X49600000Y-182886735D01*
X49555806Y-182664557D01*
X49469116Y-182455271D01*
X49343263Y-182266918D01*
X49183082Y-182106737D01*
X48994729Y-181980884D01*
X48785443Y-181894194D01*
X48563265Y-181850000D01*
X48336735Y-181850000D01*
X48114557Y-181894194D01*
X47994829Y-181943788D01*
X44695020Y-178643980D01*
X44695020Y-176150000D01*
X46248549Y-176150000D01*
X46248549Y-177850000D01*
X46254341Y-177908810D01*
X46271496Y-177965360D01*
X46299353Y-178017477D01*
X46336842Y-178063158D01*
X46382523Y-178100647D01*
X46434640Y-178128504D01*
X46491190Y-178145659D01*
X46550000Y-178151451D01*
X48250000Y-178151451D01*
X48308810Y-178145659D01*
X48365360Y-178128504D01*
X48417477Y-178100647D01*
X48463158Y-178063158D01*
X48500647Y-178017477D01*
X48528504Y-177965360D01*
X48545659Y-177908810D01*
X48551451Y-177850000D01*
X48551451Y-176886735D01*
X48790000Y-176886735D01*
X48790000Y-177113265D01*
X48834194Y-177335443D01*
X48920884Y-177544729D01*
X49046737Y-177733082D01*
X49206918Y-177893263D01*
X49395271Y-178019116D01*
X49604557Y-178105806D01*
X49826735Y-178150000D01*
X50053265Y-178150000D01*
X50275443Y-178105806D01*
X50484729Y-178019116D01*
X50673082Y-177893263D01*
X50833263Y-177733082D01*
X50959116Y-177544729D01*
X51045806Y-177335443D01*
X51090000Y-177113265D01*
X51090000Y-176886735D01*
X51045806Y-176664557D01*
X50959116Y-176455271D01*
X50833263Y-176266918D01*
X50673082Y-176106737D01*
X50484729Y-175980884D01*
X50275443Y-175894194D01*
X50053265Y-175850000D01*
X49826735Y-175850000D01*
X49604557Y-175894194D01*
X49395271Y-175980884D01*
X49206918Y-176106737D01*
X49046737Y-176266918D01*
X48920884Y-176455271D01*
X48834194Y-176664557D01*
X48790000Y-176886735D01*
X48551451Y-176886735D01*
X48551451Y-176150000D01*
X48545659Y-176091190D01*
X48528504Y-176034640D01*
X48500647Y-175982523D01*
X48463158Y-175936842D01*
X48417477Y-175899353D01*
X48365360Y-175871496D01*
X48308810Y-175854341D01*
X48250000Y-175848549D01*
X46550000Y-175848549D01*
X46491190Y-175854341D01*
X46434640Y-175871496D01*
X46382523Y-175899353D01*
X46336842Y-175936842D01*
X46299353Y-175982523D01*
X46271496Y-176034640D01*
X46254341Y-176091190D01*
X46248549Y-176150000D01*
X44695020Y-176150000D01*
X44695020Y-172800000D01*
X60048549Y-172800000D01*
X60048549Y-174500000D01*
X60054341Y-174558810D01*
X60071496Y-174615360D01*
X60099353Y-174667477D01*
X60136842Y-174713158D01*
X60182523Y-174750647D01*
X60234640Y-174778504D01*
X60291190Y-174795659D01*
X60350000Y-174801451D01*
X62050000Y-174801451D01*
X62108810Y-174795659D01*
X62165360Y-174778504D01*
X62217477Y-174750647D01*
X62263158Y-174713158D01*
X62300647Y-174667477D01*
X62328504Y-174615360D01*
X62345659Y-174558810D01*
X62351451Y-174500000D01*
X62351451Y-173536735D01*
X65130000Y-173536735D01*
X65130000Y-173763265D01*
X65174194Y-173985443D01*
X65260884Y-174194729D01*
X65386737Y-174383082D01*
X65546918Y-174543263D01*
X65735271Y-174669116D01*
X65944557Y-174755806D01*
X66166735Y-174800000D01*
X66393265Y-174800000D01*
X66615443Y-174755806D01*
X66824729Y-174669116D01*
X67013082Y-174543263D01*
X67173263Y-174383082D01*
X67299116Y-174194729D01*
X67385806Y-173985443D01*
X67430000Y-173763265D01*
X67430000Y-173536735D01*
X67670000Y-173536735D01*
X67670000Y-173763265D01*
X67714194Y-173985443D01*
X67800884Y-174194729D01*
X67926737Y-174383082D01*
X68086918Y-174543263D01*
X68275271Y-174669116D01*
X68484557Y-174755806D01*
X68706735Y-174800000D01*
X68933265Y-174800000D01*
X69155443Y-174755806D01*
X69364729Y-174669116D01*
X69553082Y-174543263D01*
X69713263Y-174383082D01*
X69839116Y-174194729D01*
X69925806Y-173985443D01*
X69970000Y-173763265D01*
X69970000Y-173536735D01*
X70210000Y-173536735D01*
X70210000Y-173763265D01*
X70254194Y-173985443D01*
X70340884Y-174194729D01*
X70466737Y-174383082D01*
X70626918Y-174543263D01*
X70815271Y-174669116D01*
X71024557Y-174755806D01*
X71246735Y-174800000D01*
X71473265Y-174800000D01*
X71695443Y-174755806D01*
X71904729Y-174669116D01*
X72093082Y-174543263D01*
X72253263Y-174383082D01*
X72379116Y-174194729D01*
X72465806Y-173985443D01*
X72510000Y-173763265D01*
X72510000Y-173536735D01*
X72465806Y-173314557D01*
X72379116Y-173105271D01*
X72253263Y-172916918D01*
X72093082Y-172756737D01*
X71904729Y-172630884D01*
X71695443Y-172544194D01*
X71473265Y-172500000D01*
X71246735Y-172500000D01*
X71024557Y-172544194D01*
X70815271Y-172630884D01*
X70626918Y-172756737D01*
X70466737Y-172916918D01*
X70340884Y-173105271D01*
X70254194Y-173314557D01*
X70210000Y-173536735D01*
X69970000Y-173536735D01*
X69925806Y-173314557D01*
X69839116Y-173105271D01*
X69713263Y-172916918D01*
X69553082Y-172756737D01*
X69364729Y-172630884D01*
X69155443Y-172544194D01*
X68933265Y-172500000D01*
X68706735Y-172500000D01*
X68484557Y-172544194D01*
X68275271Y-172630884D01*
X68086918Y-172756737D01*
X67926737Y-172916918D01*
X67800884Y-173105271D01*
X67714194Y-173314557D01*
X67670000Y-173536735D01*
X67430000Y-173536735D01*
X67385806Y-173314557D01*
X67299116Y-173105271D01*
X67173263Y-172916918D01*
X67013082Y-172756737D01*
X66824729Y-172630884D01*
X66615443Y-172544194D01*
X66393265Y-172500000D01*
X66166735Y-172500000D01*
X65944557Y-172544194D01*
X65735271Y-172630884D01*
X65546918Y-172756737D01*
X65386737Y-172916918D01*
X65260884Y-173105271D01*
X65174194Y-173314557D01*
X65130000Y-173536735D01*
X62351451Y-173536735D01*
X62351451Y-172800000D01*
X62345659Y-172741190D01*
X62328504Y-172684640D01*
X62300647Y-172632523D01*
X62263158Y-172586842D01*
X62217477Y-172549353D01*
X62165360Y-172521496D01*
X62108810Y-172504341D01*
X62050000Y-172498549D01*
X60350000Y-172498549D01*
X60291190Y-172504341D01*
X60234640Y-172521496D01*
X60182523Y-172549353D01*
X60136842Y-172586842D01*
X60099353Y-172632523D01*
X60071496Y-172684640D01*
X60054341Y-172741190D01*
X60048549Y-172800000D01*
X44695020Y-172800000D01*
X44695020Y-164678840D01*
X61305647Y-148068214D01*
X61722321Y-148068213D01*
X61743196Y-148070269D01*
X61826510Y-148062064D01*
X61906623Y-148037761D01*
X61944572Y-148017477D01*
X61980456Y-147998297D01*
X62014009Y-147970760D01*
X62028956Y-147958494D01*
X62028958Y-147958492D01*
X62045170Y-147945187D01*
X62058475Y-147928975D01*
X63087450Y-146900001D01*
X63327134Y-146900001D01*
X63348001Y-146902056D01*
X63368868Y-146900001D01*
X63368875Y-146900001D01*
X63431315Y-146893851D01*
X63511428Y-146869549D01*
X63585261Y-146830085D01*
X63649975Y-146776975D01*
X63663285Y-146760757D01*
X64660757Y-145763285D01*
X64675001Y-145751595D01*
X64675000Y-156688957D01*
X58314239Y-163049719D01*
X58298027Y-163063024D01*
X58244917Y-163127738D01*
X58215742Y-163182322D01*
X58205453Y-163201571D01*
X58181150Y-163281684D01*
X58172945Y-163364998D01*
X58175001Y-163385875D01*
X58175000Y-167498549D01*
X57750000Y-167498549D01*
X57691190Y-167504341D01*
X57634640Y-167521496D01*
X57582523Y-167549353D01*
X57536842Y-167586842D01*
X57499353Y-167632523D01*
X57471496Y-167684640D01*
X57454341Y-167741190D01*
X57448549Y-167800000D01*
X57448549Y-169500000D01*
X57454341Y-169558810D01*
X57471496Y-169615360D01*
X57499353Y-169667477D01*
X57536842Y-169713158D01*
X57582523Y-169750647D01*
X57634640Y-169778504D01*
X57691190Y-169795659D01*
X57750000Y-169801451D01*
X59450000Y-169801451D01*
X59508810Y-169795659D01*
X59565360Y-169778504D01*
X59617477Y-169750647D01*
X59663158Y-169713158D01*
X59700647Y-169667477D01*
X59728504Y-169615360D01*
X59745659Y-169558810D01*
X59751451Y-169500000D01*
X59751451Y-168536735D01*
X59990000Y-168536735D01*
X59990000Y-168763265D01*
X60034194Y-168985443D01*
X60120884Y-169194729D01*
X60246737Y-169383082D01*
X60406918Y-169543263D01*
X60595271Y-169669116D01*
X60804557Y-169755806D01*
X61026735Y-169800000D01*
X61253265Y-169800000D01*
X61475443Y-169755806D01*
X61684729Y-169669116D01*
X61873082Y-169543263D01*
X62033263Y-169383082D01*
X62159116Y-169194729D01*
X62245806Y-168985443D01*
X62290000Y-168763265D01*
X62290000Y-168536735D01*
X65070000Y-168536735D01*
X65070000Y-168763265D01*
X65114194Y-168985443D01*
X65200884Y-169194729D01*
X65326737Y-169383082D01*
X65486918Y-169543263D01*
X65675271Y-169669116D01*
X65884557Y-169755806D01*
X66106735Y-169800000D01*
X66333265Y-169800000D01*
X66555443Y-169755806D01*
X66764729Y-169669116D01*
X66953082Y-169543263D01*
X67113263Y-169383082D01*
X67239116Y-169194729D01*
X67325806Y-168985443D01*
X67370000Y-168763265D01*
X67370000Y-168536735D01*
X67325806Y-168314557D01*
X67239116Y-168105271D01*
X67113263Y-167916918D01*
X66953082Y-167756737D01*
X66764729Y-167630884D01*
X66555443Y-167544194D01*
X66333265Y-167500000D01*
X66106735Y-167500000D01*
X65884557Y-167544194D01*
X65675271Y-167630884D01*
X65486918Y-167756737D01*
X65326737Y-167916918D01*
X65200884Y-168105271D01*
X65114194Y-168314557D01*
X65070000Y-168536735D01*
X62290000Y-168536735D01*
X62245806Y-168314557D01*
X62159116Y-168105271D01*
X62033263Y-167916918D01*
X61873082Y-167756737D01*
X61684729Y-167630884D01*
X61475443Y-167544194D01*
X61253265Y-167500000D01*
X61026735Y-167500000D01*
X60804557Y-167544194D01*
X60595271Y-167630884D01*
X60406918Y-167756737D01*
X60246737Y-167916918D01*
X60120884Y-168105271D01*
X60034194Y-168314557D01*
X59990000Y-168536735D01*
X59751451Y-168536735D01*
X59751451Y-167800000D01*
X59745659Y-167741190D01*
X59728504Y-167684640D01*
X59700647Y-167632523D01*
X59663158Y-167586842D01*
X59617477Y-167549353D01*
X59565360Y-167521496D01*
X59508810Y-167504341D01*
X59450000Y-167498549D01*
X59025000Y-167498549D01*
X59025000Y-163541038D01*
X60048549Y-162517489D01*
X60048549Y-163900000D01*
X60054341Y-163958810D01*
X60071496Y-164015360D01*
X60099353Y-164067477D01*
X60136842Y-164113158D01*
X60182523Y-164150647D01*
X60234640Y-164178504D01*
X60291190Y-164195659D01*
X60350000Y-164201451D01*
X62050000Y-164201451D01*
X62108810Y-164195659D01*
X62165360Y-164178504D01*
X62217477Y-164150647D01*
X62263158Y-164113158D01*
X62300647Y-164067477D01*
X62328504Y-164015360D01*
X62345659Y-163958810D01*
X62351451Y-163900000D01*
X62351451Y-162936735D01*
X65130000Y-162936735D01*
X65130000Y-163163265D01*
X65174194Y-163385443D01*
X65260884Y-163594729D01*
X65386737Y-163783082D01*
X65546918Y-163943263D01*
X65735271Y-164069116D01*
X65944557Y-164155806D01*
X66166735Y-164200000D01*
X66393265Y-164200000D01*
X66615443Y-164155806D01*
X66824729Y-164069116D01*
X67013082Y-163943263D01*
X67173263Y-163783082D01*
X67299116Y-163594729D01*
X67385806Y-163385443D01*
X67430000Y-163163265D01*
X67430000Y-162936735D01*
X67385806Y-162714557D01*
X67299116Y-162505271D01*
X67173263Y-162316918D01*
X67013082Y-162156737D01*
X66824729Y-162030884D01*
X66615443Y-161944194D01*
X66393265Y-161900000D01*
X66166735Y-161900000D01*
X65944557Y-161944194D01*
X65735271Y-162030884D01*
X65546918Y-162156737D01*
X65386737Y-162316918D01*
X65260884Y-162505271D01*
X65174194Y-162714557D01*
X65130000Y-162936735D01*
X62351451Y-162936735D01*
X62351451Y-162200000D01*
X62345659Y-162141190D01*
X62328504Y-162084640D01*
X62300647Y-162032523D01*
X62263158Y-161986842D01*
X62217477Y-161949353D01*
X62165360Y-161921496D01*
X62108810Y-161904341D01*
X62050000Y-161898549D01*
X60667489Y-161898549D01*
X65385763Y-157180276D01*
X65401974Y-157166972D01*
X65455084Y-157102258D01*
X65494548Y-157028425D01*
X65518850Y-156948312D01*
X65525000Y-156885872D01*
X65525000Y-156885866D01*
X65527055Y-156864999D01*
X65525000Y-156844132D01*
X65525000Y-145331066D01*
X66050000Y-145331066D01*
X66050000Y-145468954D01*
X66076901Y-145604192D01*
X66129668Y-145731584D01*
X66206274Y-145846234D01*
X66303776Y-145943736D01*
X66325001Y-145957918D01*
X66325000Y-155579133D01*
X66322945Y-155600000D01*
X66325000Y-155620867D01*
X66325000Y-155620873D01*
X66331150Y-155683313D01*
X66355452Y-155763426D01*
X66394916Y-155837259D01*
X66448026Y-155901974D01*
X66464243Y-155915283D01*
X69570002Y-159021043D01*
X69570002Y-162173657D01*
X69553082Y-162156737D01*
X69364729Y-162030884D01*
X69155443Y-161944194D01*
X68933265Y-161900000D01*
X68706735Y-161900000D01*
X68484557Y-161944194D01*
X68275271Y-162030884D01*
X68086918Y-162156737D01*
X67926737Y-162316918D01*
X67800884Y-162505271D01*
X67714194Y-162714557D01*
X67670000Y-162936735D01*
X67670000Y-163163265D01*
X67714194Y-163385443D01*
X67800884Y-163594729D01*
X67926737Y-163783082D01*
X68086918Y-163943263D01*
X68275271Y-164069116D01*
X68484557Y-164155806D01*
X68706735Y-164200000D01*
X68933265Y-164200000D01*
X69155443Y-164155806D01*
X69364729Y-164069116D01*
X69553082Y-163943263D01*
X69570002Y-163926343D01*
X69570001Y-167833656D01*
X69493082Y-167756737D01*
X69304729Y-167630884D01*
X69095443Y-167544194D01*
X68873265Y-167500000D01*
X68646735Y-167500000D01*
X68424557Y-167544194D01*
X68215271Y-167630884D01*
X68026918Y-167756737D01*
X67866737Y-167916918D01*
X67740884Y-168105271D01*
X67654194Y-168314557D01*
X67610000Y-168536735D01*
X67610000Y-168763265D01*
X67654194Y-168985443D01*
X67740884Y-169194729D01*
X67866737Y-169383082D01*
X68026918Y-169543263D01*
X68215271Y-169669116D01*
X68424557Y-169755806D01*
X68646735Y-169800000D01*
X68873265Y-169800000D01*
X69095443Y-169755806D01*
X69304729Y-169669116D01*
X69493082Y-169543263D01*
X69570001Y-169466344D01*
X69570001Y-169724134D01*
X69567946Y-169745001D01*
X69570001Y-169765868D01*
X69570001Y-169765874D01*
X69576151Y-169828314D01*
X69600453Y-169908427D01*
X69639917Y-169982260D01*
X69693027Y-170046975D01*
X69709245Y-170060285D01*
X72843788Y-173194828D01*
X72794194Y-173314557D01*
X72750000Y-173536735D01*
X72750000Y-173763265D01*
X72794194Y-173985443D01*
X72880884Y-174194729D01*
X73006737Y-174383082D01*
X73166918Y-174543263D01*
X73355271Y-174669116D01*
X73564557Y-174755806D01*
X73786735Y-174800000D01*
X74013265Y-174800000D01*
X74235443Y-174755806D01*
X74444729Y-174669116D01*
X74633082Y-174543263D01*
X74793263Y-174383082D01*
X74919116Y-174194729D01*
X75005806Y-173985443D01*
X75050000Y-173763265D01*
X75050000Y-173536735D01*
X75005806Y-173314557D01*
X74919116Y-173105271D01*
X74793263Y-172916918D01*
X74633082Y-172756737D01*
X74444729Y-172630884D01*
X74235443Y-172544194D01*
X74013265Y-172500000D01*
X73786735Y-172500000D01*
X73564557Y-172544194D01*
X73444828Y-172593788D01*
X70420001Y-169568961D01*
X70420001Y-169396346D01*
X70566918Y-169543263D01*
X70755271Y-169669116D01*
X70964557Y-169755806D01*
X71186735Y-169800000D01*
X71413265Y-169800000D01*
X71635443Y-169755806D01*
X71755172Y-169706212D01*
X82734721Y-180685762D01*
X82748026Y-180701974D01*
X82812740Y-180755084D01*
X82886573Y-180794548D01*
X82942383Y-180811478D01*
X82966685Y-180818850D01*
X82975098Y-180819679D01*
X83029126Y-180825000D01*
X83029132Y-180825000D01*
X83049999Y-180827055D01*
X83070866Y-180825000D01*
X93048549Y-180825000D01*
X93048549Y-181250000D01*
X93054341Y-181308810D01*
X93071496Y-181365360D01*
X93099353Y-181417477D01*
X93136842Y-181463158D01*
X93182523Y-181500647D01*
X93234640Y-181528504D01*
X93291190Y-181545659D01*
X93350000Y-181551451D01*
X95050000Y-181551451D01*
X95108810Y-181545659D01*
X95165360Y-181528504D01*
X95217477Y-181500647D01*
X95263158Y-181463158D01*
X95300647Y-181417477D01*
X95328504Y-181365360D01*
X95345659Y-181308810D01*
X95351451Y-181250000D01*
X95351451Y-179550000D01*
X95345659Y-179491190D01*
X95328504Y-179434640D01*
X95300647Y-179382523D01*
X95263158Y-179336842D01*
X95217477Y-179299353D01*
X95165360Y-179271496D01*
X95108810Y-179254341D01*
X95050000Y-179248549D01*
X93350000Y-179248549D01*
X93291190Y-179254341D01*
X93234640Y-179271496D01*
X93182523Y-179299353D01*
X93136842Y-179336842D01*
X93099353Y-179382523D01*
X93071496Y-179434640D01*
X93054341Y-179491190D01*
X93048549Y-179550000D01*
X93048549Y-179975000D01*
X83226041Y-179975000D01*
X72356212Y-169105172D01*
X72405806Y-168985443D01*
X72450000Y-168763265D01*
X72450000Y-168536735D01*
X72690000Y-168536735D01*
X72690000Y-168763265D01*
X72734194Y-168985443D01*
X72820884Y-169194729D01*
X72946737Y-169383082D01*
X73106918Y-169543263D01*
X73295271Y-169669116D01*
X73504557Y-169755806D01*
X73726735Y-169800000D01*
X73953265Y-169800000D01*
X74175443Y-169755806D01*
X74295172Y-169706212D01*
X76674721Y-172085762D01*
X76688026Y-172101974D01*
X76752740Y-172155084D01*
X76800855Y-172180801D01*
X76826572Y-172194548D01*
X76906686Y-172218850D01*
X76969126Y-172225000D01*
X76969133Y-172225000D01*
X76990000Y-172227055D01*
X77010867Y-172225000D01*
X78442093Y-172225000D01*
X78456274Y-172246224D01*
X78553776Y-172343726D01*
X78668426Y-172420332D01*
X78795818Y-172473099D01*
X78931056Y-172500000D01*
X79068944Y-172500000D01*
X79204182Y-172473099D01*
X79331574Y-172420332D01*
X79446224Y-172343726D01*
X79543726Y-172246224D01*
X79620332Y-172131574D01*
X79673099Y-172004182D01*
X79700000Y-171868944D01*
X79700000Y-171731056D01*
X79673099Y-171595818D01*
X79620332Y-171468426D01*
X79543726Y-171353776D01*
X79446224Y-171256274D01*
X79331574Y-171179668D01*
X79204182Y-171126901D01*
X79068944Y-171100000D01*
X78931056Y-171100000D01*
X78795818Y-171126901D01*
X78668426Y-171179668D01*
X78553776Y-171256274D01*
X78456274Y-171353776D01*
X78442093Y-171375000D01*
X77166041Y-171375000D01*
X74896212Y-169105172D01*
X74945806Y-168985443D01*
X74990000Y-168763265D01*
X74990000Y-168536735D01*
X74945806Y-168314557D01*
X74859116Y-168105271D01*
X74733263Y-167916918D01*
X74573082Y-167756737D01*
X74384729Y-167630884D01*
X74175443Y-167544194D01*
X73953265Y-167500000D01*
X73726735Y-167500000D01*
X73504557Y-167544194D01*
X73295271Y-167630884D01*
X73106918Y-167756737D01*
X72946737Y-167916918D01*
X72820884Y-168105271D01*
X72734194Y-168314557D01*
X72690000Y-168536735D01*
X72450000Y-168536735D01*
X72405806Y-168314557D01*
X72319116Y-168105271D01*
X72193263Y-167916918D01*
X72033082Y-167756737D01*
X71844729Y-167630884D01*
X71635443Y-167544194D01*
X71413265Y-167500000D01*
X71186735Y-167500000D01*
X70964557Y-167544194D01*
X70755271Y-167630884D01*
X70566918Y-167756737D01*
X70420001Y-167903654D01*
X70420001Y-163713136D01*
X70466737Y-163783082D01*
X70626918Y-163943263D01*
X70815271Y-164069116D01*
X71024557Y-164155806D01*
X71246735Y-164200000D01*
X71473265Y-164200000D01*
X71695443Y-164155806D01*
X71904729Y-164069116D01*
X72093082Y-163943263D01*
X72253263Y-163783082D01*
X72379116Y-163594729D01*
X72465806Y-163385443D01*
X72510000Y-163163265D01*
X72510000Y-162936735D01*
X72750000Y-162936735D01*
X72750000Y-163163265D01*
X72794194Y-163385443D01*
X72880884Y-163594729D01*
X73006737Y-163783082D01*
X73166918Y-163943263D01*
X73355271Y-164069116D01*
X73564557Y-164155806D01*
X73786735Y-164200000D01*
X74013265Y-164200000D01*
X74235443Y-164155806D01*
X74355172Y-164106212D01*
X88394721Y-178145762D01*
X88408026Y-178161974D01*
X88472740Y-178215084D01*
X88520855Y-178240801D01*
X88546572Y-178254548D01*
X88626685Y-178278850D01*
X88634327Y-178279603D01*
X88689126Y-178285000D01*
X88689133Y-178285000D01*
X88710000Y-178287055D01*
X88730867Y-178285000D01*
X93131290Y-178285000D01*
X93180884Y-178404729D01*
X93306737Y-178593082D01*
X93466918Y-178753263D01*
X93655271Y-178879116D01*
X93864557Y-178965806D01*
X94086735Y-179010000D01*
X94313265Y-179010000D01*
X94535443Y-178965806D01*
X94744729Y-178879116D01*
X94933082Y-178753263D01*
X95093263Y-178593082D01*
X95219116Y-178404729D01*
X95305806Y-178195443D01*
X95350000Y-177973265D01*
X95350000Y-177746735D01*
X95305806Y-177524557D01*
X95219116Y-177315271D01*
X95093263Y-177126918D01*
X94933082Y-176966737D01*
X94744729Y-176840884D01*
X94535443Y-176754194D01*
X94313265Y-176710000D01*
X94086735Y-176710000D01*
X93864557Y-176754194D01*
X93655271Y-176840884D01*
X93466918Y-176966737D01*
X93306737Y-177126918D01*
X93180884Y-177315271D01*
X93131290Y-177435000D01*
X88886041Y-177435000D01*
X74956212Y-163505172D01*
X75005806Y-163385443D01*
X75050000Y-163163265D01*
X75050000Y-162936735D01*
X75290000Y-162936735D01*
X75290000Y-163163265D01*
X75334194Y-163385443D01*
X75420884Y-163594729D01*
X75546737Y-163783082D01*
X75706918Y-163943263D01*
X75895271Y-164069116D01*
X76104557Y-164155806D01*
X76326735Y-164200000D01*
X76553265Y-164200000D01*
X76775443Y-164155806D01*
X76984729Y-164069116D01*
X77173082Y-163943263D01*
X77333263Y-163783082D01*
X77349195Y-163759237D01*
X89195719Y-175605762D01*
X89209024Y-175621974D01*
X89273738Y-175675084D01*
X89347571Y-175714548D01*
X89403381Y-175731478D01*
X89427683Y-175738850D01*
X89436096Y-175739679D01*
X89490124Y-175745000D01*
X89490130Y-175745000D01*
X89510997Y-175747055D01*
X89531864Y-175745000D01*
X93131290Y-175745000D01*
X93180884Y-175864729D01*
X93306737Y-176053082D01*
X93466918Y-176213263D01*
X93655271Y-176339116D01*
X93864557Y-176425806D01*
X94086735Y-176470000D01*
X94313265Y-176470000D01*
X94535443Y-176425806D01*
X94744729Y-176339116D01*
X94933082Y-176213263D01*
X95093263Y-176053082D01*
X95219116Y-175864729D01*
X95305806Y-175655443D01*
X95350000Y-175433265D01*
X95350000Y-175206735D01*
X95305806Y-174984557D01*
X95219116Y-174775271D01*
X95093263Y-174586918D01*
X94933082Y-174426737D01*
X94744729Y-174300884D01*
X94535443Y-174214194D01*
X94313265Y-174170000D01*
X94086735Y-174170000D01*
X93864557Y-174214194D01*
X93655271Y-174300884D01*
X93466918Y-174426737D01*
X93306737Y-174586918D01*
X93180884Y-174775271D01*
X93131290Y-174895000D01*
X89687039Y-174895000D01*
X78992038Y-164200000D01*
X79093265Y-164200000D01*
X79315443Y-164155806D01*
X79435172Y-164106212D01*
X88394721Y-173065762D01*
X88408026Y-173081974D01*
X88472740Y-173135084D01*
X88546573Y-173174548D01*
X88602383Y-173191478D01*
X88626685Y-173198850D01*
X88634327Y-173199603D01*
X88689126Y-173205000D01*
X88689133Y-173205000D01*
X88710000Y-173207055D01*
X88730867Y-173205000D01*
X93131290Y-173205000D01*
X93180884Y-173324729D01*
X93306737Y-173513082D01*
X93466918Y-173673263D01*
X93655271Y-173799116D01*
X93864557Y-173885806D01*
X94086735Y-173930000D01*
X94313265Y-173930000D01*
X94535443Y-173885806D01*
X94744729Y-173799116D01*
X94933082Y-173673263D01*
X95093263Y-173513082D01*
X95219116Y-173324729D01*
X95305806Y-173115443D01*
X95350000Y-172893265D01*
X95350000Y-172666735D01*
X95305806Y-172444557D01*
X95219116Y-172235271D01*
X95093263Y-172046918D01*
X94933082Y-171886737D01*
X94744729Y-171760884D01*
X94535443Y-171674194D01*
X94313265Y-171630000D01*
X94086735Y-171630000D01*
X93864557Y-171674194D01*
X93655271Y-171760884D01*
X93466918Y-171886737D01*
X93306737Y-172046918D01*
X93180884Y-172235271D01*
X93131290Y-172355000D01*
X88886041Y-172355000D01*
X86657776Y-170126735D01*
X93050000Y-170126735D01*
X93050000Y-170353265D01*
X93094194Y-170575443D01*
X93180884Y-170784729D01*
X93306737Y-170973082D01*
X93466918Y-171133263D01*
X93655271Y-171259116D01*
X93864557Y-171345806D01*
X94086735Y-171390000D01*
X94313265Y-171390000D01*
X94535443Y-171345806D01*
X94744729Y-171259116D01*
X94933082Y-171133263D01*
X95093263Y-170973082D01*
X95219116Y-170784729D01*
X95305806Y-170575443D01*
X95350000Y-170353265D01*
X95350000Y-170126735D01*
X95305806Y-169904557D01*
X95219116Y-169695271D01*
X95093263Y-169506918D01*
X94933082Y-169346737D01*
X94744729Y-169220884D01*
X94535443Y-169134194D01*
X94313265Y-169090000D01*
X94086735Y-169090000D01*
X93864557Y-169134194D01*
X93655271Y-169220884D01*
X93466918Y-169346737D01*
X93306737Y-169506918D01*
X93180884Y-169695271D01*
X93094194Y-169904557D01*
X93050000Y-170126735D01*
X86657776Y-170126735D01*
X84117776Y-167586735D01*
X93050000Y-167586735D01*
X93050000Y-167813265D01*
X93094194Y-168035443D01*
X93180884Y-168244729D01*
X93306737Y-168433082D01*
X93466918Y-168593263D01*
X93655271Y-168719116D01*
X93864557Y-168805806D01*
X94086735Y-168850000D01*
X94313265Y-168850000D01*
X94535443Y-168805806D01*
X94744729Y-168719116D01*
X94933082Y-168593263D01*
X95093263Y-168433082D01*
X95219116Y-168244729D01*
X95305806Y-168035443D01*
X95350000Y-167813265D01*
X95350000Y-167586735D01*
X95305806Y-167364557D01*
X95219116Y-167155271D01*
X95093263Y-166966918D01*
X94933082Y-166806737D01*
X94744729Y-166680884D01*
X94535443Y-166594194D01*
X94313265Y-166550000D01*
X94086735Y-166550000D01*
X93864557Y-166594194D01*
X93655271Y-166680884D01*
X93466918Y-166806737D01*
X93306737Y-166966918D01*
X93180884Y-167155271D01*
X93094194Y-167364557D01*
X93050000Y-167586735D01*
X84117776Y-167586735D01*
X81577776Y-165046735D01*
X93050000Y-165046735D01*
X93050000Y-165273265D01*
X93094194Y-165495443D01*
X93180884Y-165704729D01*
X93306737Y-165893082D01*
X93466918Y-166053263D01*
X93655271Y-166179116D01*
X93864557Y-166265806D01*
X94086735Y-166310000D01*
X94313265Y-166310000D01*
X94535443Y-166265806D01*
X94744729Y-166179116D01*
X94933082Y-166053263D01*
X95093263Y-165893082D01*
X95219116Y-165704729D01*
X95305806Y-165495443D01*
X95350000Y-165273265D01*
X95350000Y-165046735D01*
X95305806Y-164824557D01*
X95219116Y-164615271D01*
X95093263Y-164426918D01*
X94933082Y-164266737D01*
X94744729Y-164140884D01*
X94535443Y-164054194D01*
X94313265Y-164010000D01*
X94086735Y-164010000D01*
X93864557Y-164054194D01*
X93655271Y-164140884D01*
X93466918Y-164266737D01*
X93306737Y-164426918D01*
X93180884Y-164615271D01*
X93094194Y-164824557D01*
X93050000Y-165046735D01*
X81577776Y-165046735D01*
X80036212Y-163505172D01*
X80085806Y-163385443D01*
X80130000Y-163163265D01*
X80130000Y-162936735D01*
X80085806Y-162714557D01*
X79999723Y-162506735D01*
X93050000Y-162506735D01*
X93050000Y-162733265D01*
X93094194Y-162955443D01*
X93180884Y-163164729D01*
X93306737Y-163353082D01*
X93466918Y-163513263D01*
X93655271Y-163639116D01*
X93864557Y-163725806D01*
X94086735Y-163770000D01*
X94313265Y-163770000D01*
X94535443Y-163725806D01*
X94744729Y-163639116D01*
X94933082Y-163513263D01*
X95093263Y-163353082D01*
X95219116Y-163164729D01*
X95305806Y-162955443D01*
X95350000Y-162733265D01*
X95350000Y-162506735D01*
X95305806Y-162284557D01*
X95219116Y-162075271D01*
X95093263Y-161886918D01*
X94933082Y-161726737D01*
X94744729Y-161600884D01*
X94535443Y-161514194D01*
X94313265Y-161470000D01*
X94086735Y-161470000D01*
X93864557Y-161514194D01*
X93655271Y-161600884D01*
X93466918Y-161726737D01*
X93306737Y-161886918D01*
X93180884Y-162075271D01*
X93094194Y-162284557D01*
X93050000Y-162506735D01*
X79999723Y-162506735D01*
X79999116Y-162505271D01*
X79873263Y-162316918D01*
X79713082Y-162156737D01*
X79524729Y-162030884D01*
X79315443Y-161944194D01*
X79093265Y-161900000D01*
X78866735Y-161900000D01*
X78644557Y-161944194D01*
X78435271Y-162030884D01*
X78246918Y-162156737D01*
X78086737Y-162316918D01*
X77960884Y-162505271D01*
X77874194Y-162714557D01*
X77830000Y-162936735D01*
X77830000Y-163037962D01*
X77556282Y-162764244D01*
X77555500Y-162763291D01*
X77545806Y-162714557D01*
X77459116Y-162505271D01*
X77333263Y-162316918D01*
X77173082Y-162156737D01*
X76984729Y-162030884D01*
X76775443Y-161944194D01*
X76553265Y-161900000D01*
X76326735Y-161900000D01*
X76104557Y-161944194D01*
X75895271Y-162030884D01*
X75706918Y-162156737D01*
X75546737Y-162316918D01*
X75420884Y-162505271D01*
X75334194Y-162714557D01*
X75290000Y-162936735D01*
X75050000Y-162936735D01*
X75005806Y-162714557D01*
X74919116Y-162505271D01*
X74793263Y-162316918D01*
X74633082Y-162156737D01*
X74444729Y-162030884D01*
X74235443Y-161944194D01*
X74013265Y-161900000D01*
X73786735Y-161900000D01*
X73564557Y-161944194D01*
X73355271Y-162030884D01*
X73166918Y-162156737D01*
X73006737Y-162316918D01*
X72880884Y-162505271D01*
X72794194Y-162714557D01*
X72750000Y-162936735D01*
X72510000Y-162936735D01*
X72465806Y-162714557D01*
X72379116Y-162505271D01*
X72253263Y-162316918D01*
X72093082Y-162156737D01*
X71904729Y-162030884D01*
X71695443Y-161944194D01*
X71473265Y-161900000D01*
X71246735Y-161900000D01*
X71024557Y-161944194D01*
X70815271Y-162030884D01*
X70626918Y-162156737D01*
X70466737Y-162316918D01*
X70420001Y-162386864D01*
X70420001Y-159966735D01*
X93050000Y-159966735D01*
X93050000Y-160193265D01*
X93094194Y-160415443D01*
X93180884Y-160624729D01*
X93306737Y-160813082D01*
X93466918Y-160973263D01*
X93655271Y-161099116D01*
X93864557Y-161185806D01*
X94086735Y-161230000D01*
X94313265Y-161230000D01*
X94535443Y-161185806D01*
X94744729Y-161099116D01*
X94933082Y-160973263D01*
X95093263Y-160813082D01*
X95219116Y-160624729D01*
X95305806Y-160415443D01*
X95350000Y-160193265D01*
X95350000Y-159966735D01*
X95305806Y-159744557D01*
X95219116Y-159535271D01*
X95093263Y-159346918D01*
X94933082Y-159186737D01*
X94744729Y-159060884D01*
X94535443Y-158974194D01*
X94313265Y-158930000D01*
X94086735Y-158930000D01*
X93864557Y-158974194D01*
X93655271Y-159060884D01*
X93466918Y-159186737D01*
X93306737Y-159346918D01*
X93180884Y-159535271D01*
X93094194Y-159744557D01*
X93050000Y-159966735D01*
X70420001Y-159966735D01*
X70420001Y-158865867D01*
X70422056Y-158845000D01*
X70420001Y-158824133D01*
X70420001Y-158824127D01*
X70413851Y-158761687D01*
X70389549Y-158681574D01*
X70350085Y-158607741D01*
X70296975Y-158543027D01*
X70280763Y-158529722D01*
X69501041Y-157750000D01*
X79048549Y-157750000D01*
X79048549Y-159450000D01*
X79054341Y-159508810D01*
X79071496Y-159565360D01*
X79099353Y-159617477D01*
X79136842Y-159663158D01*
X79182523Y-159700647D01*
X79234640Y-159728504D01*
X79291190Y-159745659D01*
X79350000Y-159751451D01*
X81050000Y-159751451D01*
X81108810Y-159745659D01*
X81165360Y-159728504D01*
X81217477Y-159700647D01*
X81263158Y-159663158D01*
X81300647Y-159617477D01*
X81328504Y-159565360D01*
X81345659Y-159508810D01*
X81351451Y-159450000D01*
X81351451Y-157750000D01*
X81345659Y-157691190D01*
X81328504Y-157634640D01*
X81300647Y-157582523D01*
X81263158Y-157536842D01*
X81217477Y-157499353D01*
X81165360Y-157471496D01*
X81108810Y-157454341D01*
X81050000Y-157448549D01*
X79350000Y-157448549D01*
X79291190Y-157454341D01*
X79234640Y-157471496D01*
X79182523Y-157499353D01*
X79136842Y-157536842D01*
X79099353Y-157582523D01*
X79071496Y-157634640D01*
X79054341Y-157691190D01*
X79048549Y-157750000D01*
X69501041Y-157750000D01*
X67175000Y-155423960D01*
X67175000Y-152210000D01*
X77446009Y-152210000D01*
X77461938Y-152371728D01*
X77509112Y-152527241D01*
X77585719Y-152670563D01*
X77688815Y-152796185D01*
X77748296Y-152845000D01*
X77688815Y-152893815D01*
X77585719Y-153019437D01*
X77509112Y-153162759D01*
X77461938Y-153318272D01*
X77446009Y-153480000D01*
X77461938Y-153641728D01*
X77509112Y-153797241D01*
X77585719Y-153940563D01*
X77688815Y-154066185D01*
X77814437Y-154169281D01*
X77957759Y-154245888D01*
X78113272Y-154293062D01*
X78234479Y-154305000D01*
X78765521Y-154305000D01*
X78886728Y-154293062D01*
X79042241Y-154245888D01*
X79185563Y-154169281D01*
X79311185Y-154066185D01*
X79414281Y-153940563D01*
X79490888Y-153797241D01*
X79538062Y-153641728D01*
X79553991Y-153480000D01*
X79538062Y-153318272D01*
X79490888Y-153162759D01*
X79414281Y-153019437D01*
X79311185Y-152893815D01*
X79251704Y-152845000D01*
X79311185Y-152796185D01*
X79414281Y-152670563D01*
X79490888Y-152527241D01*
X79538062Y-152371728D01*
X79553991Y-152210000D01*
X79538062Y-152048272D01*
X79490888Y-151892759D01*
X79414281Y-151749437D01*
X79311185Y-151623815D01*
X79185563Y-151520719D01*
X79042241Y-151444112D01*
X78886728Y-151396938D01*
X78765521Y-151385000D01*
X78234479Y-151385000D01*
X78113272Y-151396938D01*
X77957759Y-151444112D01*
X77814437Y-151520719D01*
X77688815Y-151623815D01*
X77585719Y-151749437D01*
X77509112Y-151892759D01*
X77461938Y-152048272D01*
X77446009Y-152210000D01*
X67175000Y-152210000D01*
X67175000Y-145957917D01*
X67196224Y-145943736D01*
X67293726Y-145846234D01*
X67370332Y-145731584D01*
X67423099Y-145604192D01*
X67450000Y-145468954D01*
X67450000Y-145331066D01*
X67423099Y-145195828D01*
X67370332Y-145068436D01*
X67293726Y-144953786D01*
X67196224Y-144856284D01*
X67081574Y-144779678D01*
X66954182Y-144726911D01*
X66818944Y-144700010D01*
X66681056Y-144700010D01*
X66545818Y-144726911D01*
X66418426Y-144779678D01*
X66303776Y-144856284D01*
X66206274Y-144953786D01*
X66129668Y-145068436D01*
X66076901Y-145195828D01*
X66050000Y-145331066D01*
X65525000Y-145331066D01*
X65525000Y-144871497D01*
X65546224Y-144857316D01*
X65643726Y-144759814D01*
X65720332Y-144645164D01*
X65773099Y-144517772D01*
X65800000Y-144382534D01*
X65800000Y-144244646D01*
X65773099Y-144109408D01*
X65720332Y-143982016D01*
X65643726Y-143867366D01*
X65546224Y-143769864D01*
X65431574Y-143693258D01*
X65304182Y-143640491D01*
X65301642Y-143639986D01*
X67510572Y-141431056D01*
X71800000Y-141431056D01*
X71800000Y-141568944D01*
X71826901Y-141704182D01*
X71879668Y-141831574D01*
X71956274Y-141946224D01*
X72053776Y-142043726D01*
X72074467Y-142057551D01*
X72072945Y-142073002D01*
X72075000Y-142093869D01*
X72075000Y-142093875D01*
X72081150Y-142156315D01*
X72105452Y-142236428D01*
X72144916Y-142310261D01*
X72198026Y-142374976D01*
X72214244Y-142388286D01*
X84375001Y-154549044D01*
X84375000Y-157842093D01*
X84353776Y-157856274D01*
X84256274Y-157953776D01*
X84179668Y-158068426D01*
X84126901Y-158195818D01*
X84100000Y-158331056D01*
X84100000Y-158468944D01*
X84126901Y-158604182D01*
X84179668Y-158731574D01*
X84256274Y-158846224D01*
X84353776Y-158943726D01*
X84468426Y-159020332D01*
X84595818Y-159073099D01*
X84731056Y-159100000D01*
X84868944Y-159100000D01*
X85004182Y-159073099D01*
X85131574Y-159020332D01*
X85246224Y-158943726D01*
X85343726Y-158846224D01*
X85420332Y-158731574D01*
X85473099Y-158604182D01*
X85500000Y-158468944D01*
X85500000Y-158331056D01*
X85473099Y-158195818D01*
X85420332Y-158068426D01*
X85343726Y-157953776D01*
X85246224Y-157856274D01*
X85225000Y-157842093D01*
X85225000Y-157426735D01*
X93050000Y-157426735D01*
X93050000Y-157653265D01*
X93094194Y-157875443D01*
X93180884Y-158084729D01*
X93306737Y-158273082D01*
X93466918Y-158433263D01*
X93655271Y-158559116D01*
X93864557Y-158645806D01*
X94086735Y-158690000D01*
X94313265Y-158690000D01*
X94535443Y-158645806D01*
X94744729Y-158559116D01*
X94933082Y-158433263D01*
X95093263Y-158273082D01*
X95219116Y-158084729D01*
X95305806Y-157875443D01*
X95350000Y-157653265D01*
X95350000Y-157426735D01*
X95305806Y-157204557D01*
X95219116Y-156995271D01*
X95093263Y-156806918D01*
X94933082Y-156646737D01*
X94744729Y-156520884D01*
X94535443Y-156434194D01*
X94313265Y-156390000D01*
X94086735Y-156390000D01*
X93864557Y-156434194D01*
X93655271Y-156520884D01*
X93466918Y-156646737D01*
X93306737Y-156806918D01*
X93180884Y-156995271D01*
X93094194Y-157204557D01*
X93050000Y-157426735D01*
X85225000Y-157426735D01*
X85225000Y-154393869D01*
X85227055Y-154373002D01*
X85225000Y-154352135D01*
X85225000Y-154352128D01*
X85218850Y-154289688D01*
X85218850Y-154289687D01*
X85194548Y-154209574D01*
X85180801Y-154183857D01*
X85155084Y-154135742D01*
X85101974Y-154071028D01*
X85085762Y-154057723D01*
X80454774Y-149426735D01*
X87600000Y-149426735D01*
X87600000Y-149653265D01*
X87644194Y-149875443D01*
X87730884Y-150084729D01*
X87856737Y-150273082D01*
X88016918Y-150433263D01*
X88205271Y-150559116D01*
X88414557Y-150645806D01*
X88636735Y-150690000D01*
X88863265Y-150690000D01*
X89085443Y-150645806D01*
X89294729Y-150559116D01*
X89483082Y-150433263D01*
X89643263Y-150273082D01*
X89769116Y-150084729D01*
X89855806Y-149875443D01*
X89900000Y-149653265D01*
X89900000Y-149426735D01*
X89855806Y-149204557D01*
X89769116Y-148995271D01*
X89643263Y-148806918D01*
X89483082Y-148646737D01*
X89294729Y-148520884D01*
X89085443Y-148434194D01*
X88863265Y-148390000D01*
X88636735Y-148390000D01*
X88414557Y-148434194D01*
X88205271Y-148520884D01*
X88016918Y-148646737D01*
X87856737Y-148806918D01*
X87730884Y-148995271D01*
X87644194Y-149204557D01*
X87600000Y-149426735D01*
X80454774Y-149426735D01*
X77178039Y-146150000D01*
X87598549Y-146150000D01*
X87598549Y-147850000D01*
X87604341Y-147908810D01*
X87621496Y-147965360D01*
X87649353Y-148017477D01*
X87686842Y-148063158D01*
X87732523Y-148100647D01*
X87784640Y-148128504D01*
X87841190Y-148145659D01*
X87900000Y-148151451D01*
X89600000Y-148151451D01*
X89658810Y-148145659D01*
X89715360Y-148128504D01*
X89767477Y-148100647D01*
X89813158Y-148063158D01*
X89850647Y-148017477D01*
X89878504Y-147965360D01*
X89895659Y-147908810D01*
X89901451Y-147850000D01*
X89901451Y-146150000D01*
X95348549Y-146150000D01*
X95348549Y-147850000D01*
X95354341Y-147908810D01*
X95371496Y-147965360D01*
X95399353Y-148017477D01*
X95436842Y-148063158D01*
X95482523Y-148100647D01*
X95534640Y-148128504D01*
X95591190Y-148145659D01*
X95650000Y-148151451D01*
X97350000Y-148151451D01*
X97408810Y-148145659D01*
X97465360Y-148128504D01*
X97517477Y-148100647D01*
X97563158Y-148063158D01*
X97600647Y-148017477D01*
X97628504Y-147965360D01*
X97645659Y-147908810D01*
X97651451Y-147850000D01*
X97651451Y-146150000D01*
X97645659Y-146091190D01*
X97628504Y-146034640D01*
X97600647Y-145982523D01*
X97563158Y-145936842D01*
X97517477Y-145899353D01*
X97465360Y-145871496D01*
X97408810Y-145854341D01*
X97350000Y-145848549D01*
X95650000Y-145848549D01*
X95591190Y-145854341D01*
X95534640Y-145871496D01*
X95482523Y-145899353D01*
X95436842Y-145936842D01*
X95399353Y-145982523D01*
X95371496Y-146034640D01*
X95354341Y-146091190D01*
X95348549Y-146150000D01*
X89901451Y-146150000D01*
X89895659Y-146091190D01*
X89878504Y-146034640D01*
X89850647Y-145982523D01*
X89813158Y-145936842D01*
X89767477Y-145899353D01*
X89715360Y-145871496D01*
X89658810Y-145854341D01*
X89600000Y-145848549D01*
X87900000Y-145848549D01*
X87841190Y-145854341D01*
X87784640Y-145871496D01*
X87732523Y-145899353D01*
X87686842Y-145936842D01*
X87649353Y-145982523D01*
X87621496Y-146034640D01*
X87604341Y-146091190D01*
X87598549Y-146150000D01*
X77178039Y-146150000D01*
X73008994Y-141980956D01*
X73043726Y-141946224D01*
X73120332Y-141831574D01*
X73173099Y-141704182D01*
X73200000Y-141568944D01*
X73200000Y-141431056D01*
X73173099Y-141295818D01*
X73120332Y-141168426D01*
X73043726Y-141053776D01*
X72946224Y-140956274D01*
X72831574Y-140879668D01*
X72704182Y-140826901D01*
X72568944Y-140800000D01*
X72431056Y-140800000D01*
X72295818Y-140826901D01*
X72168426Y-140879668D01*
X72053776Y-140956274D01*
X71956274Y-141053776D01*
X71879668Y-141168426D01*
X71826901Y-141295818D01*
X71800000Y-141431056D01*
X67510572Y-141431056D01*
X72266628Y-136675000D01*
X74323960Y-136675000D01*
X74934721Y-137285762D01*
X74948026Y-137301974D01*
X75012740Y-137355084D01*
X75086573Y-137394548D01*
X75142383Y-137411478D01*
X75166685Y-137418850D01*
X75175098Y-137419679D01*
X75229126Y-137425000D01*
X75229132Y-137425000D01*
X75249999Y-137427055D01*
X75270866Y-137425000D01*
X77442093Y-137425000D01*
X77456274Y-137446224D01*
X77553776Y-137543726D01*
X77668426Y-137620332D01*
X77795818Y-137673099D01*
X77931056Y-137700000D01*
X78068944Y-137700000D01*
X78204182Y-137673099D01*
X78241189Y-137657771D01*
X75093980Y-140804980D01*
X75068944Y-140800000D01*
X74931056Y-140800000D01*
X74795818Y-140826901D01*
X74668426Y-140879668D01*
X74553776Y-140956274D01*
X74456274Y-141053776D01*
X74379668Y-141168426D01*
X74326901Y-141295818D01*
X74300000Y-141431056D01*
X74300000Y-141568944D01*
X74326901Y-141704182D01*
X74379668Y-141831574D01*
X74456274Y-141946224D01*
X74553776Y-142043726D01*
X74668426Y-142120332D01*
X74795818Y-142173099D01*
X74931056Y-142200000D01*
X75068944Y-142200000D01*
X75204182Y-142173099D01*
X75331574Y-142120332D01*
X75446224Y-142043726D01*
X75543726Y-141946224D01*
X75553860Y-141931056D01*
X78500000Y-141931056D01*
X78500000Y-142068944D01*
X78526901Y-142204182D01*
X78579668Y-142331574D01*
X78656274Y-142446224D01*
X78753776Y-142543726D01*
X78868426Y-142620332D01*
X78995818Y-142673099D01*
X79131056Y-142700000D01*
X79268944Y-142700000D01*
X79404182Y-142673099D01*
X79531574Y-142620332D01*
X79646224Y-142543726D01*
X79743726Y-142446224D01*
X79814919Y-142339675D01*
X80347859Y-141806735D01*
X95350000Y-141806735D01*
X95350000Y-142033265D01*
X95394194Y-142255443D01*
X95480884Y-142464729D01*
X95606737Y-142653082D01*
X95766918Y-142813263D01*
X95955271Y-142939116D01*
X96164557Y-143025806D01*
X96386735Y-143070000D01*
X96613265Y-143070000D01*
X96835443Y-143025806D01*
X97044729Y-142939116D01*
X97233082Y-142813263D01*
X97393263Y-142653082D01*
X97519116Y-142464729D01*
X97605806Y-142255443D01*
X97650000Y-142033265D01*
X97650000Y-141806735D01*
X97605806Y-141584557D01*
X97519116Y-141375271D01*
X97393263Y-141186918D01*
X97233082Y-141026737D01*
X97044729Y-140900884D01*
X96835443Y-140814194D01*
X96613265Y-140770000D01*
X96386735Y-140770000D01*
X96164557Y-140814194D01*
X95955271Y-140900884D01*
X95766918Y-141026737D01*
X95606737Y-141186918D01*
X95480884Y-141375271D01*
X95394194Y-141584557D01*
X95350000Y-141806735D01*
X80347859Y-141806735D01*
X82887859Y-139266735D01*
X95350000Y-139266735D01*
X95350000Y-139493265D01*
X95394194Y-139715443D01*
X95480884Y-139924729D01*
X95606737Y-140113082D01*
X95766918Y-140273263D01*
X95955271Y-140399116D01*
X96164557Y-140485806D01*
X96386735Y-140530000D01*
X96613265Y-140530000D01*
X96835443Y-140485806D01*
X97044729Y-140399116D01*
X97233082Y-140273263D01*
X97393263Y-140113082D01*
X97519116Y-139924729D01*
X97605806Y-139715443D01*
X97650000Y-139493265D01*
X97650000Y-139266735D01*
X97605806Y-139044557D01*
X97519116Y-138835271D01*
X97393263Y-138646918D01*
X97233082Y-138486737D01*
X97044729Y-138360884D01*
X96835443Y-138274194D01*
X96613265Y-138230000D01*
X96386735Y-138230000D01*
X96164557Y-138274194D01*
X95955271Y-138360884D01*
X95766918Y-138486737D01*
X95606737Y-138646918D01*
X95480884Y-138835271D01*
X95394194Y-139044557D01*
X95350000Y-139266735D01*
X82887859Y-139266735D01*
X83053852Y-139100742D01*
X83079606Y-139079606D01*
X83163958Y-138976824D01*
X83226636Y-138859561D01*
X83265233Y-138732323D01*
X83275000Y-138633159D01*
X83275000Y-138633153D01*
X83278265Y-138600001D01*
X83275000Y-138566849D01*
X83275000Y-136726735D01*
X95350000Y-136726735D01*
X95350000Y-136953265D01*
X95394194Y-137175443D01*
X95480884Y-137384729D01*
X95606737Y-137573082D01*
X95766918Y-137733263D01*
X95955271Y-137859116D01*
X96164557Y-137945806D01*
X96386735Y-137990000D01*
X96613265Y-137990000D01*
X96835443Y-137945806D01*
X97044729Y-137859116D01*
X97233082Y-137733263D01*
X97393263Y-137573082D01*
X97519116Y-137384729D01*
X97605806Y-137175443D01*
X97650000Y-136953265D01*
X97650000Y-136726735D01*
X97605806Y-136504557D01*
X97519116Y-136295271D01*
X97393263Y-136106918D01*
X97233082Y-135946737D01*
X97044729Y-135820884D01*
X96835443Y-135734194D01*
X96613265Y-135690000D01*
X96386735Y-135690000D01*
X96164557Y-135734194D01*
X95955271Y-135820884D01*
X95766918Y-135946737D01*
X95606737Y-136106918D01*
X95480884Y-136295271D01*
X95394194Y-136504557D01*
X95350000Y-136726735D01*
X83275000Y-136726735D01*
X83275000Y-135994625D01*
X83300000Y-135868944D01*
X83300000Y-135731056D01*
X83273099Y-135595818D01*
X83220332Y-135468426D01*
X83143726Y-135353776D01*
X83046224Y-135256274D01*
X82931574Y-135179668D01*
X82804182Y-135126901D01*
X82668944Y-135100000D01*
X82531056Y-135100000D01*
X82395818Y-135126901D01*
X82268426Y-135179668D01*
X82153776Y-135256274D01*
X82056274Y-135353776D01*
X81979668Y-135468426D01*
X81926901Y-135595818D01*
X81900000Y-135731056D01*
X81900000Y-135868944D01*
X81925000Y-135994626D01*
X81925001Y-138320405D01*
X78860325Y-141385081D01*
X78753776Y-141456274D01*
X78656274Y-141553776D01*
X78579668Y-141668426D01*
X78526901Y-141795818D01*
X78500000Y-141931056D01*
X75553860Y-141931056D01*
X75620332Y-141831574D01*
X75673099Y-141704182D01*
X75700000Y-141568944D01*
X75700000Y-141431056D01*
X75695020Y-141406020D01*
X79010764Y-138090277D01*
X79026975Y-138076973D01*
X79080085Y-138012259D01*
X79119549Y-137938426D01*
X79136479Y-137882616D01*
X79143851Y-137858314D01*
X79144604Y-137850672D01*
X79150001Y-137795873D01*
X79150001Y-137795866D01*
X79152056Y-137774999D01*
X79150001Y-137754132D01*
X79150001Y-136672873D01*
X79152057Y-136651999D01*
X79143851Y-136568685D01*
X79119549Y-136488572D01*
X79118847Y-136487259D01*
X79080085Y-136414739D01*
X79026975Y-136350025D01*
X79010757Y-136336715D01*
X78663285Y-135989243D01*
X78649975Y-135973025D01*
X78585261Y-135919915D01*
X78511428Y-135880451D01*
X78431315Y-135856149D01*
X78368875Y-135849999D01*
X78368868Y-135849999D01*
X78348001Y-135847944D01*
X78327134Y-135849999D01*
X77672865Y-135849999D01*
X77651998Y-135847944D01*
X77631131Y-135849999D01*
X77631125Y-135849999D01*
X77577097Y-135855320D01*
X77568684Y-135856149D01*
X77544382Y-135863521D01*
X77488572Y-135880451D01*
X77414739Y-135919915D01*
X77350025Y-135973025D01*
X77336715Y-135989243D01*
X77200968Y-136124990D01*
X76841323Y-136124990D01*
X76870332Y-136081574D01*
X76923099Y-135954182D01*
X76950000Y-135818944D01*
X76950000Y-135681056D01*
X76945020Y-135656020D01*
X80574305Y-132026735D01*
X95450000Y-132026735D01*
X95450000Y-132253265D01*
X95494194Y-132475443D01*
X95580884Y-132684729D01*
X95706737Y-132873082D01*
X95866918Y-133033263D01*
X96055271Y-133159116D01*
X96264557Y-133245806D01*
X96486735Y-133290000D01*
X96713265Y-133290000D01*
X96935443Y-133245806D01*
X97144729Y-133159116D01*
X97333082Y-133033263D01*
X97493263Y-132873082D01*
X97619116Y-132684729D01*
X97705806Y-132475443D01*
X97750000Y-132253265D01*
X97750000Y-132026735D01*
X97705806Y-131804557D01*
X97619116Y-131595271D01*
X97493263Y-131406918D01*
X97333082Y-131246737D01*
X97144729Y-131120884D01*
X96935443Y-131034194D01*
X96713265Y-130990000D01*
X96486735Y-130990000D01*
X96264557Y-131034194D01*
X96055271Y-131120884D01*
X95866918Y-131246737D01*
X95706737Y-131406918D01*
X95580884Y-131595271D01*
X95494194Y-131804557D01*
X95450000Y-132026735D01*
X80574305Y-132026735D01*
X83851040Y-128750000D01*
X95448549Y-128750000D01*
X95448549Y-130450000D01*
X95454341Y-130508810D01*
X95471496Y-130565360D01*
X95499353Y-130617477D01*
X95536842Y-130663158D01*
X95582523Y-130700647D01*
X95634640Y-130728504D01*
X95691190Y-130745659D01*
X95750000Y-130751451D01*
X97450000Y-130751451D01*
X97508810Y-130745659D01*
X97565360Y-130728504D01*
X97617477Y-130700647D01*
X97663158Y-130663158D01*
X97700647Y-130617477D01*
X97728504Y-130565360D01*
X97745659Y-130508810D01*
X97751451Y-130450000D01*
X97751451Y-128750000D01*
X97745659Y-128691190D01*
X97728504Y-128634640D01*
X97700647Y-128582523D01*
X97663158Y-128536842D01*
X97617477Y-128499353D01*
X97565360Y-128471496D01*
X97508810Y-128454341D01*
X97450000Y-128448549D01*
X95750000Y-128448549D01*
X95691190Y-128454341D01*
X95634640Y-128471496D01*
X95582523Y-128499353D01*
X95536842Y-128536842D01*
X95499353Y-128582523D01*
X95471496Y-128634640D01*
X95454341Y-128691190D01*
X95448549Y-128750000D01*
X83851040Y-128750000D01*
X88066031Y-124535010D01*
X100333970Y-124535010D01*
X101543788Y-125744828D01*
X101494194Y-125864557D01*
X101450000Y-126086735D01*
X101450000Y-126313265D01*
X101494194Y-126535443D01*
X101580884Y-126744729D01*
X101706737Y-126933082D01*
X101866918Y-127093263D01*
X102055271Y-127219116D01*
X102264557Y-127305806D01*
X102486735Y-127350000D01*
X102713265Y-127350000D01*
X102935443Y-127305806D01*
X103144729Y-127219116D01*
X103333082Y-127093263D01*
X103493263Y-126933082D01*
X103619116Y-126744729D01*
X103705806Y-126535443D01*
X103750000Y-126313265D01*
X103750000Y-126086735D01*
X103705806Y-125864557D01*
X103619116Y-125655271D01*
X103493263Y-125466918D01*
X103333082Y-125306737D01*
X103144729Y-125180884D01*
X102935443Y-125094194D01*
X102713265Y-125050000D01*
X102486735Y-125050000D01*
X102264557Y-125094194D01*
X102144828Y-125143788D01*
X101086040Y-124085000D01*
X101531290Y-124085000D01*
X101580884Y-124204729D01*
X101706737Y-124393082D01*
X101866918Y-124553263D01*
X102055271Y-124679116D01*
X102264557Y-124765806D01*
X102486735Y-124810000D01*
X102713265Y-124810000D01*
X102935443Y-124765806D01*
X103144729Y-124679116D01*
X103333082Y-124553263D01*
X103493263Y-124393082D01*
X103619116Y-124204729D01*
X103705806Y-123995443D01*
X103750000Y-123773265D01*
X103750000Y-123546735D01*
X103705806Y-123324557D01*
X103619116Y-123115271D01*
X103493263Y-122926918D01*
X103333082Y-122766737D01*
X103144729Y-122640884D01*
X102935443Y-122554194D01*
X102713265Y-122510000D01*
X102486735Y-122510000D01*
X102264557Y-122554194D01*
X102055271Y-122640884D01*
X101866918Y-122766737D01*
X101706737Y-122926918D01*
X101580884Y-123115271D01*
X101531290Y-123235000D01*
X83160867Y-123235000D01*
X83140000Y-123232945D01*
X83119133Y-123235000D01*
X83119126Y-123235000D01*
X83056686Y-123241150D01*
X82976573Y-123265452D01*
X82902740Y-123304916D01*
X82865847Y-123335194D01*
X85194306Y-121006735D01*
X101450000Y-121006735D01*
X101450000Y-121233265D01*
X101494194Y-121455443D01*
X101580884Y-121664729D01*
X101706737Y-121853082D01*
X101866918Y-122013263D01*
X102055271Y-122139116D01*
X102264557Y-122225806D01*
X102486735Y-122270000D01*
X102713265Y-122270000D01*
X102935443Y-122225806D01*
X103144729Y-122139116D01*
X103333082Y-122013263D01*
X103493263Y-121853082D01*
X103619116Y-121664729D01*
X103705806Y-121455443D01*
X103750000Y-121233265D01*
X103750000Y-121006735D01*
X103705806Y-120784557D01*
X103619116Y-120575271D01*
X103493263Y-120386918D01*
X103333082Y-120226737D01*
X103144729Y-120100884D01*
X102935443Y-120014194D01*
X102713265Y-119970000D01*
X102486735Y-119970000D01*
X102264557Y-120014194D01*
X102055271Y-120100884D01*
X101866918Y-120226737D01*
X101706737Y-120386918D01*
X101580884Y-120575271D01*
X101494194Y-120784557D01*
X101450000Y-121006735D01*
X85194306Y-121006735D01*
X88976041Y-117225000D01*
X101819133Y-117225000D01*
X101840000Y-117227055D01*
X101860867Y-117225000D01*
X101860874Y-117225000D01*
X101923314Y-117218850D01*
X102003427Y-117194548D01*
X102009221Y-117191451D01*
X103450000Y-117191451D01*
X103508810Y-117185659D01*
X103565360Y-117168504D01*
X103617477Y-117140647D01*
X103663158Y-117103158D01*
X103700647Y-117057477D01*
X103728504Y-117005360D01*
X103745659Y-116948810D01*
X103751451Y-116890000D01*
X103751451Y-115190000D01*
X103745659Y-115131190D01*
X103728504Y-115074640D01*
X103700647Y-115022523D01*
X103663158Y-114976842D01*
X103617477Y-114939353D01*
X103565360Y-114911496D01*
X103508810Y-114894341D01*
X103450000Y-114888549D01*
X101750000Y-114888549D01*
X101691190Y-114894341D01*
X101634640Y-114911496D01*
X101582523Y-114939353D01*
X101536842Y-114976842D01*
X101499353Y-115022523D01*
X101471496Y-115074640D01*
X101454341Y-115131190D01*
X101448549Y-115190000D01*
X101448549Y-116375000D01*
X88820866Y-116375000D01*
X88799999Y-116372945D01*
X88779132Y-116375000D01*
X88779126Y-116375000D01*
X88727519Y-116380083D01*
X88716685Y-116381150D01*
X88695169Y-116387677D01*
X88636573Y-116405452D01*
X88562740Y-116444916D01*
X88498026Y-116498026D01*
X88484721Y-116514238D01*
X73893980Y-131104980D01*
X73868944Y-131100000D01*
X73731056Y-131100000D01*
X73595818Y-131126901D01*
X73468426Y-131179668D01*
X73353776Y-131256274D01*
X73256274Y-131353776D01*
X73179668Y-131468426D01*
X73126901Y-131595818D01*
X73100000Y-131731056D01*
X73100000Y-131868944D01*
X73126901Y-132004182D01*
X73166590Y-132100001D01*
X72901042Y-132100001D01*
X72095020Y-131293980D01*
X72100000Y-131268944D01*
X72100000Y-131131056D01*
X72073099Y-130995818D01*
X72020332Y-130868426D01*
X71943726Y-130753776D01*
X71846224Y-130656274D01*
X71731574Y-130579668D01*
X71604182Y-130526901D01*
X71468944Y-130500000D01*
X71331056Y-130500000D01*
X71195818Y-130526901D01*
X71068426Y-130579668D01*
X70953776Y-130656274D01*
X70856274Y-130753776D01*
X70779668Y-130868426D01*
X70726901Y-130995818D01*
X70700000Y-131131056D01*
X70700000Y-131268944D01*
X70726901Y-131404182D01*
X70779668Y-131531574D01*
X70856274Y-131646224D01*
X70953776Y-131743726D01*
X71068426Y-131820332D01*
X71195818Y-131873099D01*
X71331056Y-131900000D01*
X71468944Y-131900000D01*
X71493980Y-131895020D01*
X72409722Y-132810763D01*
X72423027Y-132826975D01*
X72487741Y-132880085D01*
X72561574Y-132919549D01*
X72599508Y-132931056D01*
X72641686Y-132943851D01*
X72650099Y-132944680D01*
X72704127Y-132950001D01*
X72704133Y-132950001D01*
X72725000Y-132952056D01*
X72745867Y-132950001D01*
X74254132Y-132950001D01*
X74274999Y-132952056D01*
X74295866Y-132950001D01*
X74295873Y-132950001D01*
X74358313Y-132943851D01*
X74438426Y-132919549D01*
X74512259Y-132880085D01*
X74576973Y-132826975D01*
X74590283Y-132810757D01*
X83316040Y-124085000D01*
X87313959Y-124085000D01*
X76343980Y-135054980D01*
X76318944Y-135050000D01*
X76181056Y-135050000D01*
X76045818Y-135076901D01*
X75918426Y-135129668D01*
X75803776Y-135206274D01*
X75706274Y-135303776D01*
X75629668Y-135418426D01*
X75576901Y-135545818D01*
X75550000Y-135681056D01*
X75550000Y-135818944D01*
X75576901Y-135954182D01*
X75629668Y-136081574D01*
X75658677Y-136124990D01*
X75612441Y-136124990D01*
X74951693Y-135464243D01*
X74938384Y-135448026D01*
X74873670Y-135394916D01*
X74799837Y-135355452D01*
X74719724Y-135331150D01*
X74657284Y-135325000D01*
X74657277Y-135325000D01*
X74636410Y-135322945D01*
X74615543Y-135325000D01*
X63426041Y-135325000D01*
X53315284Y-125214244D01*
X53301974Y-125198026D01*
X53237260Y-125144916D01*
X53163427Y-125105452D01*
X53083314Y-125081150D01*
X53020874Y-125075000D01*
X53020867Y-125075000D01*
X53000000Y-125072945D01*
X52979133Y-125075000D01*
X45676041Y-125075000D01*
X41806212Y-121205172D01*
X41855806Y-121085443D01*
X41900000Y-120863265D01*
X41900000Y-120636735D01*
X41855806Y-120414557D01*
X41769116Y-120205271D01*
X41643263Y-120016918D01*
X41483082Y-119856737D01*
X41294729Y-119730884D01*
X41085443Y-119644194D01*
X40863265Y-119600000D01*
X40636735Y-119600000D01*
X40414557Y-119644194D01*
X40205271Y-119730884D01*
X40016918Y-119856737D01*
X39856737Y-120016918D01*
X39730884Y-120205271D01*
X39644194Y-120414557D01*
X39600000Y-120636735D01*
X39600000Y-120863265D01*
X39644194Y-121085443D01*
X39730884Y-121294729D01*
X39856737Y-121483082D01*
X40016918Y-121643263D01*
X40205271Y-121769116D01*
X40414557Y-121855806D01*
X40636735Y-121900000D01*
X40863265Y-121900000D01*
X41085443Y-121855806D01*
X41205172Y-121806212D01*
X45184719Y-125785760D01*
X45198026Y-125801974D01*
X45262740Y-125855084D01*
X45336573Y-125894548D01*
X45392383Y-125911478D01*
X45416685Y-125918850D01*
X45425098Y-125919679D01*
X45479126Y-125925000D01*
X45479132Y-125925000D01*
X45499999Y-125927055D01*
X45520866Y-125925000D01*
X52823960Y-125925000D01*
X61198959Y-134300000D01*
X61181056Y-134300000D01*
X61045818Y-134326901D01*
X60918426Y-134379668D01*
X60803776Y-134456274D01*
X60706274Y-134553776D01*
X60629668Y-134668426D01*
X60576901Y-134795818D01*
X60550000Y-134931056D01*
X60550000Y-135068944D01*
X60576901Y-135204182D01*
X60629668Y-135331574D01*
X60706274Y-135446224D01*
X60803776Y-135543726D01*
X60918426Y-135620332D01*
X61045818Y-135673099D01*
X61181056Y-135700000D01*
X61300002Y-135700000D01*
X61300001Y-139313168D01*
X61293726Y-139303776D01*
X61196224Y-139206274D01*
X61081574Y-139129668D01*
X60954182Y-139076901D01*
X60818944Y-139050000D01*
X60681056Y-139050000D01*
X60656021Y-139054980D01*
X49662079Y-128061039D01*
X49648769Y-128044821D01*
X49584055Y-127991711D01*
X49510222Y-127952247D01*
X49430109Y-127927945D01*
X49367669Y-127921795D01*
X49367662Y-127921795D01*
X49346795Y-127919740D01*
X49325928Y-127921795D01*
X45982835Y-127921795D01*
X39266212Y-121205172D01*
X39315806Y-121085443D01*
X39360000Y-120863265D01*
X39360000Y-120636735D01*
X39315806Y-120414557D01*
X39229116Y-120205271D01*
X39103263Y-120016918D01*
X38943082Y-119856737D01*
X38754729Y-119730884D01*
X38545443Y-119644194D01*
X38323265Y-119600000D01*
X38096735Y-119600000D01*
X37874557Y-119644194D01*
X37665271Y-119730884D01*
X37476918Y-119856737D01*
X37316737Y-120016918D01*
X37190884Y-120205271D01*
X37104194Y-120414557D01*
X37060000Y-120636735D01*
X37060000Y-120863265D01*
X37104194Y-121085443D01*
X37190884Y-121294729D01*
X37316737Y-121483082D01*
X37476918Y-121643263D01*
X37665271Y-121769116D01*
X37874557Y-121855806D01*
X38096735Y-121900000D01*
X38323265Y-121900000D01*
X38545443Y-121855806D01*
X38665172Y-121806212D01*
X45433960Y-128575000D01*
X44096041Y-128575000D01*
X36821451Y-121300411D01*
X36821451Y-119900000D01*
X36815659Y-119841190D01*
X36798504Y-119784640D01*
X36770647Y-119732523D01*
X36733158Y-119686842D01*
X36687477Y-119649353D01*
X36635360Y-119621496D01*
X36578810Y-119604341D01*
X36520000Y-119598549D01*
X34820000Y-119598549D01*
X34761190Y-119604341D01*
X34704640Y-119621496D01*
X34652523Y-119649353D01*
X34606842Y-119686842D01*
X34569353Y-119732523D01*
X34541496Y-119784640D01*
X34524341Y-119841190D01*
X34518549Y-119900000D01*
X14411936Y-119900000D01*
X14378054Y-106414998D01*
X40921735Y-106414998D01*
X40925000Y-106448150D01*
X40925001Y-116486838D01*
X40921735Y-116520000D01*
X40934767Y-116652323D01*
X40973365Y-116779561D01*
X41036043Y-116896824D01*
X41099256Y-116973850D01*
X41099264Y-116973858D01*
X41120395Y-116999606D01*
X41146143Y-117020737D01*
X44693628Y-120568222D01*
X44680000Y-120636735D01*
X44680000Y-120863265D01*
X44724194Y-121085443D01*
X44810884Y-121294729D01*
X44936737Y-121483082D01*
X45096918Y-121643263D01*
X45285271Y-121769116D01*
X45494557Y-121855806D01*
X45716735Y-121900000D01*
X45943265Y-121900000D01*
X46165443Y-121855806D01*
X46374729Y-121769116D01*
X46563082Y-121643263D01*
X46723263Y-121483082D01*
X46849116Y-121294729D01*
X46935806Y-121085443D01*
X46980000Y-120863265D01*
X46980000Y-120636735D01*
X46935806Y-120414557D01*
X46849116Y-120205271D01*
X46723263Y-120016918D01*
X46563082Y-119856737D01*
X46374729Y-119730884D01*
X46165443Y-119644194D01*
X45943265Y-119600000D01*
X45716735Y-119600000D01*
X45648222Y-119613628D01*
X42275000Y-116240406D01*
X42275000Y-106694592D01*
X44098549Y-104871043D01*
X44098549Y-106350000D01*
X44104341Y-106408810D01*
X44121496Y-106465360D01*
X44149353Y-106517477D01*
X44186842Y-106563158D01*
X44232523Y-106600647D01*
X44284640Y-106628504D01*
X44341190Y-106645659D01*
X44400000Y-106651451D01*
X45800411Y-106651451D01*
X56959717Y-117810757D01*
X56973027Y-117826975D01*
X57037741Y-117880085D01*
X57111572Y-117919548D01*
X57111574Y-117919549D01*
X57191687Y-117943851D01*
X57275001Y-117952057D01*
X57295875Y-117950001D01*
X68204132Y-117950001D01*
X68224999Y-117952056D01*
X68245866Y-117950001D01*
X68245873Y-117950001D01*
X68308313Y-117943851D01*
X68388426Y-117919549D01*
X68462259Y-117880085D01*
X68526973Y-117826975D01*
X68540282Y-117810758D01*
X68906020Y-117445020D01*
X68931056Y-117450000D01*
X69068944Y-117450000D01*
X69204182Y-117423099D01*
X69331574Y-117370332D01*
X69446224Y-117293726D01*
X69500000Y-117239950D01*
X69553776Y-117293726D01*
X69668426Y-117370332D01*
X69795818Y-117423099D01*
X69931056Y-117450000D01*
X70068944Y-117450000D01*
X70204182Y-117423099D01*
X70331574Y-117370332D01*
X70446224Y-117293726D01*
X70500000Y-117239950D01*
X70553776Y-117293726D01*
X70668426Y-117370332D01*
X70795818Y-117423099D01*
X70931056Y-117450000D01*
X71068944Y-117450000D01*
X71204182Y-117423099D01*
X71331574Y-117370332D01*
X71446224Y-117293726D01*
X71543726Y-117196224D01*
X71620332Y-117081574D01*
X71625000Y-117070304D01*
X71629668Y-117081574D01*
X71706274Y-117196224D01*
X71803776Y-117293726D01*
X71918426Y-117370332D01*
X72045818Y-117423099D01*
X72181056Y-117450000D01*
X72318944Y-117450000D01*
X72454182Y-117423099D01*
X72581574Y-117370332D01*
X72696224Y-117293726D01*
X72793726Y-117196224D01*
X72870332Y-117081574D01*
X72923099Y-116954182D01*
X72950000Y-116818944D01*
X72950000Y-116681056D01*
X72923099Y-116545818D01*
X72870332Y-116418426D01*
X72793726Y-116303776D01*
X72696224Y-116206274D01*
X72581574Y-116129668D01*
X72454182Y-116076901D01*
X72318944Y-116050000D01*
X72181056Y-116050000D01*
X72045818Y-116076901D01*
X72014087Y-116090044D01*
X71663284Y-115739242D01*
X71649975Y-115723025D01*
X71585261Y-115669915D01*
X71511428Y-115630451D01*
X71431315Y-115606149D01*
X71368875Y-115599999D01*
X71368868Y-115599999D01*
X71348001Y-115597944D01*
X71327134Y-115599999D01*
X67395868Y-115599999D01*
X67375001Y-115597944D01*
X67354134Y-115599999D01*
X67354127Y-115599999D01*
X67299328Y-115605396D01*
X67291686Y-115606149D01*
X67269284Y-115612945D01*
X67211574Y-115630451D01*
X67137741Y-115669915D01*
X67073027Y-115723025D01*
X67059722Y-115739237D01*
X66693980Y-116104980D01*
X66668944Y-116100000D01*
X66531056Y-116100000D01*
X66395818Y-116126901D01*
X66268426Y-116179668D01*
X66153776Y-116256274D01*
X66056274Y-116353776D01*
X65979668Y-116468426D01*
X65926901Y-116595818D01*
X65900000Y-116731056D01*
X65900000Y-116868944D01*
X65926901Y-117004182D01*
X65966590Y-117100001D01*
X57451041Y-117100001D01*
X46401451Y-106050411D01*
X46401451Y-104749999D01*
X46913656Y-104749999D01*
X46896737Y-104766918D01*
X46770884Y-104955271D01*
X46684194Y-105164557D01*
X46640000Y-105386735D01*
X46640000Y-105613265D01*
X46684194Y-105835443D01*
X46770884Y-106044729D01*
X46896737Y-106233082D01*
X47056918Y-106393263D01*
X47245271Y-106519116D01*
X47454557Y-106605806D01*
X47676735Y-106650000D01*
X47903265Y-106650000D01*
X48125443Y-106605806D01*
X48334729Y-106519116D01*
X48523082Y-106393263D01*
X48683263Y-106233082D01*
X48809116Y-106044729D01*
X48895806Y-105835443D01*
X48940000Y-105613265D01*
X48940000Y-105386735D01*
X48895806Y-105164557D01*
X48809116Y-104955271D01*
X48683263Y-104766918D01*
X48666344Y-104749999D01*
X51993656Y-104749999D01*
X51976737Y-104766918D01*
X51850884Y-104955271D01*
X51764194Y-105164557D01*
X51720000Y-105386735D01*
X51720000Y-105613265D01*
X51764194Y-105835443D01*
X51850884Y-106044729D01*
X51976737Y-106233082D01*
X52136918Y-106393263D01*
X52325271Y-106519116D01*
X52534557Y-106605806D01*
X52756735Y-106650000D01*
X52983265Y-106650000D01*
X53205443Y-106605806D01*
X53414729Y-106519116D01*
X53603082Y-106393263D01*
X53763263Y-106233082D01*
X53889116Y-106044729D01*
X53975806Y-105835443D01*
X54020000Y-105613265D01*
X54020000Y-105386735D01*
X53975806Y-105164557D01*
X53889116Y-104955271D01*
X53763263Y-104766918D01*
X53746344Y-104749999D01*
X54533656Y-104749999D01*
X54516737Y-104766918D01*
X54390884Y-104955271D01*
X54304194Y-105164557D01*
X54260000Y-105386735D01*
X54260000Y-105613265D01*
X54304194Y-105835443D01*
X54390884Y-106044729D01*
X54516737Y-106233082D01*
X54676918Y-106393263D01*
X54865271Y-106519116D01*
X55074557Y-106605806D01*
X55296735Y-106650000D01*
X55523265Y-106650000D01*
X55745443Y-106605806D01*
X55865172Y-106556212D01*
X56969732Y-107660773D01*
X56983037Y-107676985D01*
X57047751Y-107730095D01*
X57121584Y-107769559D01*
X57177394Y-107786489D01*
X57201696Y-107793861D01*
X57209338Y-107794614D01*
X57264137Y-107800011D01*
X57264144Y-107800011D01*
X57285011Y-107802066D01*
X57305878Y-107800011D01*
X98044122Y-107800011D01*
X98064989Y-107802066D01*
X98085856Y-107800011D01*
X98085863Y-107800011D01*
X98148303Y-107793861D01*
X98228416Y-107769559D01*
X98302249Y-107730095D01*
X98366963Y-107676985D01*
X98380272Y-107660768D01*
X99784828Y-106256212D01*
X99904557Y-106305806D01*
X100126735Y-106350000D01*
X100353265Y-106350000D01*
X100575443Y-106305806D01*
X100784729Y-106219116D01*
X100973082Y-106093263D01*
X101133263Y-105933082D01*
X101259116Y-105744729D01*
X101345806Y-105535443D01*
X101390000Y-105313265D01*
X101390000Y-105086735D01*
X101345806Y-104864557D01*
X101259116Y-104655271D01*
X101133263Y-104466918D01*
X100973082Y-104306737D01*
X100784729Y-104180884D01*
X100575443Y-104094194D01*
X100353265Y-104050000D01*
X100126735Y-104050000D01*
X99904557Y-104094194D01*
X99695271Y-104180884D01*
X99506918Y-104306737D01*
X99346737Y-104466918D01*
X99220884Y-104655271D01*
X99134194Y-104864557D01*
X99090000Y-105086735D01*
X99090000Y-105313265D01*
X99134194Y-105535443D01*
X99183788Y-105655172D01*
X97888949Y-106950011D01*
X79874583Y-106950011D01*
X80438222Y-106386372D01*
X80506735Y-106400000D01*
X80733265Y-106400000D01*
X80955443Y-106355806D01*
X81164729Y-106269116D01*
X81353082Y-106143263D01*
X81513263Y-105983082D01*
X81639116Y-105794729D01*
X81725806Y-105585443D01*
X81770000Y-105363265D01*
X81770000Y-105136735D01*
X81725806Y-104914557D01*
X81639116Y-104705271D01*
X81513263Y-104516918D01*
X81496344Y-104499999D01*
X83698959Y-104499999D01*
X83848549Y-104649589D01*
X83848549Y-106050000D01*
X83854341Y-106108810D01*
X83871496Y-106165360D01*
X83899353Y-106217477D01*
X83936842Y-106263158D01*
X83982523Y-106300647D01*
X84034640Y-106328504D01*
X84091190Y-106345659D01*
X84150000Y-106351451D01*
X85850000Y-106351451D01*
X85908810Y-106345659D01*
X85965360Y-106328504D01*
X86017477Y-106300647D01*
X86063158Y-106263158D01*
X86100647Y-106217477D01*
X86128504Y-106165360D01*
X86145659Y-106108810D01*
X86151451Y-106050000D01*
X86151451Y-104412491D01*
X86483788Y-104744828D01*
X86434194Y-104864557D01*
X86390000Y-105086735D01*
X86390000Y-105313265D01*
X86434194Y-105535443D01*
X86520884Y-105744729D01*
X86646737Y-105933082D01*
X86806918Y-106093263D01*
X86995271Y-106219116D01*
X87204557Y-106305806D01*
X87426735Y-106350000D01*
X87653265Y-106350000D01*
X87875443Y-106305806D01*
X88084729Y-106219116D01*
X88273082Y-106093263D01*
X88433263Y-105933082D01*
X88559116Y-105744729D01*
X88645806Y-105535443D01*
X88690000Y-105313265D01*
X88690000Y-105086735D01*
X88645806Y-104864557D01*
X88559116Y-104655271D01*
X88433263Y-104466918D01*
X88273082Y-104306737D01*
X88084729Y-104180884D01*
X87875443Y-104094194D01*
X87653265Y-104050000D01*
X87426735Y-104050000D01*
X87204557Y-104094194D01*
X87084828Y-104143788D01*
X86291018Y-103349978D01*
X87628938Y-103349978D01*
X89023788Y-104744828D01*
X88974194Y-104864557D01*
X88930000Y-105086735D01*
X88930000Y-105313265D01*
X88974194Y-105535443D01*
X89060884Y-105744729D01*
X89186737Y-105933082D01*
X89346918Y-106093263D01*
X89535271Y-106219116D01*
X89744557Y-106305806D01*
X89966735Y-106350000D01*
X90193265Y-106350000D01*
X90415443Y-106305806D01*
X90624729Y-106219116D01*
X90813082Y-106093263D01*
X90973263Y-105933082D01*
X91099116Y-105744729D01*
X91185806Y-105535443D01*
X91230000Y-105313265D01*
X91230000Y-105086735D01*
X91185806Y-104864557D01*
X91099116Y-104655271D01*
X90973263Y-104466918D01*
X90813082Y-104306737D01*
X90624729Y-104180884D01*
X90415443Y-104094194D01*
X90193265Y-104050000D01*
X89966735Y-104050000D01*
X89744557Y-104094194D01*
X89624828Y-104143788D01*
X88381010Y-102899970D01*
X89718930Y-102899970D01*
X91563788Y-104744828D01*
X91514194Y-104864557D01*
X91470000Y-105086735D01*
X91470000Y-105313265D01*
X91514194Y-105535443D01*
X91600884Y-105744729D01*
X91726737Y-105933082D01*
X91886918Y-106093263D01*
X92075271Y-106219116D01*
X92284557Y-106305806D01*
X92506735Y-106350000D01*
X92733265Y-106350000D01*
X92955443Y-106305806D01*
X93164729Y-106219116D01*
X93353082Y-106093263D01*
X93513263Y-105933082D01*
X93639116Y-105744729D01*
X93725806Y-105535443D01*
X93770000Y-105313265D01*
X93770000Y-105086735D01*
X93725806Y-104864557D01*
X93639116Y-104655271D01*
X93513263Y-104466918D01*
X93353082Y-104306737D01*
X93164729Y-104180884D01*
X92955443Y-104094194D01*
X92733265Y-104050000D01*
X92506735Y-104050000D01*
X92284557Y-104094194D01*
X92164828Y-104143788D01*
X90471000Y-102449960D01*
X91808920Y-102449960D01*
X94103788Y-104744828D01*
X94054194Y-104864557D01*
X94010000Y-105086735D01*
X94010000Y-105313265D01*
X94054194Y-105535443D01*
X94140884Y-105744729D01*
X94266737Y-105933082D01*
X94426918Y-106093263D01*
X94615271Y-106219116D01*
X94824557Y-106305806D01*
X95046735Y-106350000D01*
X95273265Y-106350000D01*
X95495443Y-106305806D01*
X95704729Y-106219116D01*
X95893082Y-106093263D01*
X96053263Y-105933082D01*
X96179116Y-105744729D01*
X96265806Y-105535443D01*
X96310000Y-105313265D01*
X96310000Y-105086735D01*
X96265806Y-104864557D01*
X96179116Y-104655271D01*
X96053263Y-104466918D01*
X95893082Y-104306737D01*
X95704729Y-104180884D01*
X95495443Y-104094194D01*
X95273265Y-104050000D01*
X95046735Y-104050000D01*
X94824557Y-104094194D01*
X94704828Y-104143788D01*
X92560990Y-101999950D01*
X93898910Y-101999950D01*
X96643788Y-104744828D01*
X96594194Y-104864557D01*
X96550000Y-105086735D01*
X96550000Y-105313265D01*
X96594194Y-105535443D01*
X96680884Y-105744729D01*
X96806737Y-105933082D01*
X96966918Y-106093263D01*
X97155271Y-106219116D01*
X97364557Y-106305806D01*
X97586735Y-106350000D01*
X97813265Y-106350000D01*
X98035443Y-106305806D01*
X98244729Y-106219116D01*
X98433082Y-106093263D01*
X98593263Y-105933082D01*
X98719116Y-105744729D01*
X98805806Y-105535443D01*
X98850000Y-105313265D01*
X98850000Y-105086735D01*
X98805806Y-104864557D01*
X98719116Y-104655271D01*
X98593263Y-104466918D01*
X98433082Y-104306737D01*
X98244729Y-104180884D01*
X98035443Y-104094194D01*
X97813265Y-104050000D01*
X97586735Y-104050000D01*
X97364557Y-104094194D01*
X97244828Y-104143788D01*
X94390234Y-101289193D01*
X94376924Y-101272976D01*
X94312210Y-101219866D01*
X94238377Y-101180402D01*
X94158264Y-101156100D01*
X94095824Y-101149950D01*
X94095817Y-101149950D01*
X94074950Y-101147895D01*
X94054083Y-101149950D01*
X66535924Y-101149950D01*
X66515050Y-101147894D01*
X66494176Y-101149950D01*
X66431736Y-101156100D01*
X66351623Y-101180402D01*
X66277790Y-101219866D01*
X66213076Y-101272976D01*
X66199766Y-101289194D01*
X63390411Y-104098549D01*
X61990000Y-104098549D01*
X61931190Y-104104341D01*
X61874640Y-104121496D01*
X61822523Y-104149353D01*
X61776842Y-104186842D01*
X61739353Y-104232523D01*
X61711496Y-104284640D01*
X61694341Y-104341190D01*
X61688549Y-104400000D01*
X61688549Y-106000001D01*
X59404595Y-106000001D01*
X59086372Y-105681778D01*
X59100000Y-105613265D01*
X59100000Y-105386735D01*
X59055806Y-105164557D01*
X58969116Y-104955271D01*
X58843263Y-104766918D01*
X58683082Y-104606737D01*
X58494729Y-104480884D01*
X58285443Y-104394194D01*
X58063265Y-104350000D01*
X57836735Y-104350000D01*
X57768222Y-104363628D01*
X57025741Y-103621147D01*
X57004605Y-103595393D01*
X56901823Y-103511041D01*
X56784560Y-103448363D01*
X56657322Y-103409766D01*
X56558158Y-103399999D01*
X56558151Y-103399999D01*
X56524999Y-103396734D01*
X56491847Y-103399999D01*
X43973150Y-103399999D01*
X43939998Y-103396734D01*
X43906846Y-103399999D01*
X43906840Y-103399999D01*
X43821498Y-103408405D01*
X43807675Y-103409766D01*
X43769078Y-103421475D01*
X43680438Y-103448363D01*
X43563175Y-103511041D01*
X43460393Y-103595393D01*
X43439257Y-103621147D01*
X41146144Y-105914260D01*
X41120394Y-105935393D01*
X41099263Y-105961141D01*
X41099256Y-105961148D01*
X41066761Y-106000744D01*
X41036042Y-106038175D01*
X40973364Y-106155438D01*
X40955187Y-106215360D01*
X40939378Y-106267477D01*
X40934767Y-106282676D01*
X40925000Y-106381840D01*
X40925000Y-106381846D01*
X40921735Y-106414998D01*
X14378054Y-106414998D01*
X14350252Y-95350000D01*
X113650000Y-95350000D01*
X113650000Y-194650000D01*
G37*
%TD.AperFunction*%
X62934719Y-136035760D02*
X62948026Y-136051974D01*
X63012740Y-136105084D01*
X63086573Y-136144548D01*
X63142383Y-136161478D01*
X63166685Y-136168850D01*
X63175098Y-136169679D01*
X63229126Y-136175000D01*
X63229132Y-136175000D01*
X63249999Y-136177055D01*
X63270866Y-136175000D01*
X71564548Y-136175000D01*
X64089238Y-143650310D01*
X64073026Y-143663615D01*
X64019916Y-143728329D01*
X63980452Y-143802162D01*
X63956149Y-143882275D01*
X63947944Y-143965589D01*
X63950000Y-143986465D01*
X63949999Y-145271963D01*
X63673604Y-145548358D01*
X63673099Y-145545818D01*
X63620332Y-145418426D01*
X63543726Y-145303776D01*
X63446224Y-145206274D01*
X63331574Y-145129668D01*
X63204182Y-145076901D01*
X63068944Y-145050000D01*
X62931056Y-145050000D01*
X62795818Y-145076901D01*
X62668426Y-145129668D01*
X62553776Y-145206274D01*
X62456274Y-145303776D01*
X62379668Y-145418426D01*
X62375000Y-145429696D01*
X62370332Y-145418426D01*
X62293726Y-145303776D01*
X62196224Y-145206274D01*
X62081574Y-145129668D01*
X61954182Y-145076901D01*
X61818944Y-145050000D01*
X61681056Y-145050000D01*
X61545818Y-145076901D01*
X61418426Y-145129668D01*
X61303776Y-145206274D01*
X61206274Y-145303776D01*
X61129668Y-145418426D01*
X61106795Y-145473647D01*
X61106795Y-145242247D01*
X61723264Y-144625779D01*
X61739475Y-144612475D01*
X61792585Y-144547761D01*
X61832049Y-144473928D01*
X61856351Y-144393815D01*
X61862501Y-144331375D01*
X61862501Y-144331368D01*
X61864556Y-144310501D01*
X61862501Y-144289634D01*
X61862501Y-141311541D01*
X62010764Y-141163279D01*
X62026975Y-141149975D01*
X62080085Y-141085261D01*
X62119549Y-141011428D01*
X62143851Y-140931315D01*
X62150001Y-140868875D01*
X62150001Y-140868869D01*
X62152056Y-140848002D01*
X62150001Y-140827135D01*
X62150001Y-135495868D01*
X62152056Y-135475001D01*
X62150001Y-135454134D01*
X62150001Y-135454127D01*
X62143851Y-135391687D01*
X62132860Y-135355453D01*
X62119549Y-135311573D01*
X62105751Y-135285760D01*
X62080085Y-135237741D01*
X62026975Y-135173027D01*
X62010763Y-135159722D01*
X61945020Y-135093979D01*
X61950000Y-135068944D01*
X61950000Y-135051041D01*
X62934719Y-136035760D01*
%TA.AperFunction,Conductor*%
G36*
X62934719Y-136035760D02*
G01*
X62948026Y-136051974D01*
X63012740Y-136105084D01*
X63086573Y-136144548D01*
X63142383Y-136161478D01*
X63166685Y-136168850D01*
X63175098Y-136169679D01*
X63229126Y-136175000D01*
X63229132Y-136175000D01*
X63249999Y-136177055D01*
X63270866Y-136175000D01*
X71564548Y-136175000D01*
X64089238Y-143650310D01*
X64073026Y-143663615D01*
X64019916Y-143728329D01*
X63980452Y-143802162D01*
X63956149Y-143882275D01*
X63947944Y-143965589D01*
X63950000Y-143986465D01*
X63949999Y-145271963D01*
X63673604Y-145548358D01*
X63673099Y-145545818D01*
X63620332Y-145418426D01*
X63543726Y-145303776D01*
X63446224Y-145206274D01*
X63331574Y-145129668D01*
X63204182Y-145076901D01*
X63068944Y-145050000D01*
X62931056Y-145050000D01*
X62795818Y-145076901D01*
X62668426Y-145129668D01*
X62553776Y-145206274D01*
X62456274Y-145303776D01*
X62379668Y-145418426D01*
X62375000Y-145429696D01*
X62370332Y-145418426D01*
X62293726Y-145303776D01*
X62196224Y-145206274D01*
X62081574Y-145129668D01*
X61954182Y-145076901D01*
X61818944Y-145050000D01*
X61681056Y-145050000D01*
X61545818Y-145076901D01*
X61418426Y-145129668D01*
X61303776Y-145206274D01*
X61206274Y-145303776D01*
X61129668Y-145418426D01*
X61106795Y-145473647D01*
X61106795Y-145242247D01*
X61723264Y-144625779D01*
X61739475Y-144612475D01*
X61792585Y-144547761D01*
X61832049Y-144473928D01*
X61856351Y-144393815D01*
X61862501Y-144331375D01*
X61862501Y-144331368D01*
X61864556Y-144310501D01*
X61862501Y-144289634D01*
X61862501Y-141311541D01*
X62010764Y-141163279D01*
X62026975Y-141149975D01*
X62080085Y-141085261D01*
X62119549Y-141011428D01*
X62143851Y-140931315D01*
X62150001Y-140868875D01*
X62150001Y-140868869D01*
X62152056Y-140848002D01*
X62150001Y-140827135D01*
X62150001Y-135495868D01*
X62152056Y-135475001D01*
X62150001Y-135454134D01*
X62150001Y-135454127D01*
X62143851Y-135391687D01*
X62132860Y-135355453D01*
X62119549Y-135311573D01*
X62105751Y-135285760D01*
X62080085Y-135237741D01*
X62026975Y-135173027D01*
X62010763Y-135159722D01*
X61945020Y-135093979D01*
X61950000Y-135068944D01*
X61950000Y-135051041D01*
X62934719Y-136035760D01*
G37*
%TD.AperFunction*%
X79726737Y-104516918D02*
X79600884Y-104705271D01*
X79514194Y-104914557D01*
X79470000Y-105136735D01*
X79470000Y-105363265D01*
X79483628Y-105431778D01*
X78915405Y-106000001D01*
X76416344Y-106000001D01*
X76433263Y-105983082D01*
X76559116Y-105794729D01*
X76645806Y-105585443D01*
X76690000Y-105363265D01*
X76690000Y-105136735D01*
X76645806Y-104914557D01*
X76596212Y-104794828D01*
X76891042Y-104499999D01*
X79743656Y-104499999D01*
X79726737Y-104516918D01*
%TA.AperFunction,Conductor*%
G36*
X79726737Y-104516918D02*
G01*
X79600884Y-104705271D01*
X79514194Y-104914557D01*
X79470000Y-105136735D01*
X79470000Y-105363265D01*
X79483628Y-105431778D01*
X78915405Y-106000001D01*
X76416344Y-106000001D01*
X76433263Y-105983082D01*
X76559116Y-105794729D01*
X76645806Y-105585443D01*
X76690000Y-105363265D01*
X76690000Y-105136735D01*
X76645806Y-104914557D01*
X76596212Y-104794828D01*
X76891042Y-104499999D01*
X79743656Y-104499999D01*
X79726737Y-104516918D01*
G37*
%TD.AperFunction*%
M02*
