%FSLAX45Y45*%
G04 Gerber Fmt 4.5, Leading zero omitted, Abs format (unit mm)*
G04 Created by KiCad (PCBNEW (5.1.12)-1) date 2022-08-06 16:23:51*
%MOMM*%
%LPD*%
G01*
G04 APERTURE LIST*
%TA.AperFunction,Profile*%
%ADD10C,0.050000*%
%TD*%
%ADD11C,0.200000*%
%ADD12C,0.300000*%
G04 APERTURE END LIST*
D10*
X1400000Y-19500000D02*
X1400000Y-9500000D01*
X11400000Y-19500000D02*
X1400000Y-19500000D01*
X11400000Y-9500000D02*
X11400000Y-19500000D01*
X1400000Y-9500000D02*
X11400000Y-9500000D01*
D11*
D12*
X1683928Y-19968214D02*
X1683928Y-19668214D01*
X1755357Y-19668214D01*
X1798214Y-19682500D01*
X1826786Y-19711072D01*
X1841071Y-19739643D01*
X1855357Y-19796786D01*
X1855357Y-19839643D01*
X1841071Y-19896786D01*
X1826786Y-19925357D01*
X1798214Y-19953929D01*
X1755357Y-19968214D01*
X1683928Y-19968214D01*
X1983928Y-19968214D02*
X1983928Y-19768214D01*
X1983928Y-19825357D02*
X1998214Y-19796786D01*
X2012500Y-19782500D01*
X2041071Y-19768214D01*
X2069643Y-19768214D01*
X2169643Y-19968214D02*
X2169643Y-19768214D01*
X2169643Y-19668214D02*
X2155357Y-19682500D01*
X2169643Y-19696786D01*
X2183928Y-19682500D01*
X2169643Y-19668214D01*
X2169643Y-19696786D01*
X2355357Y-19968214D02*
X2326786Y-19953929D01*
X2312500Y-19925357D01*
X2312500Y-19668214D01*
X2512500Y-19968214D02*
X2483928Y-19953929D01*
X2469643Y-19925357D01*
X2469643Y-19668214D01*
X2855357Y-19968214D02*
X2855357Y-19668214D01*
X2955357Y-19882500D01*
X3055357Y-19668214D01*
X3055357Y-19968214D01*
X3326786Y-19968214D02*
X3326786Y-19811072D01*
X3312500Y-19782500D01*
X3283928Y-19768214D01*
X3226786Y-19768214D01*
X3198214Y-19782500D01*
X3326786Y-19953929D02*
X3298214Y-19968214D01*
X3226786Y-19968214D01*
X3198214Y-19953929D01*
X3183928Y-19925357D01*
X3183928Y-19896786D01*
X3198214Y-19868214D01*
X3226786Y-19853929D01*
X3298214Y-19853929D01*
X3326786Y-19839643D01*
X3469643Y-19768214D02*
X3469643Y-20068214D01*
X3469643Y-19782500D02*
X3498214Y-19768214D01*
X3555357Y-19768214D01*
X3583928Y-19782500D01*
X3598214Y-19796786D01*
X3612500Y-19825357D01*
X3612500Y-19911072D01*
X3598214Y-19939643D01*
X3583928Y-19953929D01*
X3555357Y-19968214D01*
X3498214Y-19968214D01*
X3469643Y-19953929D01*
X3741071Y-19939643D02*
X3755357Y-19953929D01*
X3741071Y-19968214D01*
X3726786Y-19953929D01*
X3741071Y-19939643D01*
X3741071Y-19968214D01*
X3741071Y-19782500D02*
X3755357Y-19796786D01*
X3741071Y-19811072D01*
X3726786Y-19796786D01*
X3741071Y-19782500D01*
X3741071Y-19811072D01*
M02*
