M48
; DRILL file {KiCad (5.1.12)-1} date 08/06/22 16:23:50
; FORMAT={-:-/ absolute / metric / decimal}
; #@! TF.CreationDate,2022-08-06T16:23:50+02:00
; #@! TF.GenerationSoftware,Kicad,Pcbnew,(5.1.12)-1
; #@! TF.FileFunction,Plated,1,2,PTH
FMAT,2
METRIC
T1C0.400
T2C0.750
T3C1.000
T4C1.100
T5C4.000
%
G90
G05
T1
X22.637Y-157.812
X29.4Y-190.6
X33.8Y-131.0
X37.2Y-163.05
X38.25Y-163.05
X42.813Y-131.587
X44.438Y-143.562
X44.438Y-144.562
X44.5Y-136.0
X49.013Y-131.587
X50.95Y-128.8
X51.0Y-132.5
X51.8Y-139.4
X52.25Y-133.0
X57.062Y-126.688
X60.2Y-150.4
X60.75Y-139.75
X60.75Y-140.75
X61.0Y-131.0
X61.25Y-135.0
X61.75Y-145.75
X63.0Y-132.75
X63.0Y-142.75
X63.0Y-145.75
X65.1Y-144.314
X66.2Y-122.4
X66.6Y-116.8
X66.75Y-145.4
X69.0Y-116.75
X70.0Y-116.75
X71.0Y-116.75
X71.4Y-131.2
X72.25Y-116.75
X72.5Y-141.5
X73.156Y-119.356
X73.8Y-131.8
X74.056Y-118.456
X74.956Y-117.556
X75.0Y-141.5
X75.85Y-144.35
X75.856Y-116.656
X76.25Y-135.75
X76.715Y-114.485
X76.715Y-115.685
X78.0Y-137.0
X79.0Y-171.8
X79.2Y-142.0
X80.438Y-135.5
X82.6Y-135.8
X84.6Y-163.0
X84.8Y-158.4
T2
X78.5Y-152.21
X78.5Y-153.48
X78.5Y-154.75
T3
X18.2Y-137.6
X18.2Y-143.65
X18.2Y-146.19
X19.4Y-128.2
X19.4Y-130.74
X20.74Y-143.65
X20.74Y-146.19
X35.67Y-120.75
X35.75Y-183.0
X38.21Y-120.75
X38.29Y-183.0
X40.75Y-120.75
X40.83Y-183.0
X43.29Y-120.75
X43.37Y-183.0
X45.25Y-105.5
X45.83Y-120.75
X45.91Y-183.0
X47.4Y-177.0
X47.79Y-105.5
X48.45Y-183.0
X49.94Y-177.0
X50.33Y-105.5
X50.99Y-183.0
X52.87Y-105.5
X53.53Y-183.0
X55.41Y-105.5
X57.95Y-105.5
X58.6Y-168.65
X61.14Y-168.65
X61.2Y-163.05
X61.2Y-173.65
X62.84Y-105.25
X63.68Y-168.65
X63.74Y-163.05
X63.74Y-173.65
X65.38Y-105.25
X66.22Y-168.65
X66.28Y-163.05
X66.28Y-173.65
X67.92Y-105.25
X68.76Y-168.65
X68.82Y-163.05
X68.82Y-173.65
X70.46Y-105.25
X71.3Y-168.65
X71.36Y-163.05
X71.36Y-173.65
X73.0Y-105.25
X73.84Y-168.65
X73.9Y-163.05
X73.9Y-173.65
X75.54Y-105.25
X76.44Y-163.05
X78.08Y-105.25
X78.98Y-163.05
X80.2Y-158.6
X80.62Y-105.25
X85.0Y-105.2
X87.54Y-105.2
X88.75Y-147.0
X88.75Y-149.54
X88.75Y-152.08
X90.08Y-105.2
X92.62Y-105.2
X94.0Y-188.2
X94.2Y-157.54
X94.2Y-160.08
X94.2Y-162.62
X94.2Y-165.16
X94.2Y-167.7
X94.2Y-170.24
X94.2Y-172.78
X94.2Y-175.32
X94.2Y-177.86
X94.2Y-180.4
X95.16Y-105.2
X96.5Y-136.84
X96.5Y-139.38
X96.5Y-141.92
X96.5Y-144.46
X96.5Y-147.0
X96.6Y-129.6
X96.6Y-132.14
X97.7Y-105.2
X100.24Y-105.2
X102.6Y-116.04
X102.6Y-118.58
X102.6Y-121.12
X102.6Y-123.66
X102.6Y-126.2
X106.6Y-111.2
T4
X20.4Y-157.17
X20.4Y-159.71
X20.4Y-162.25
X20.4Y-179.32
X20.4Y-181.86
X20.4Y-184.4
T5
X17.4Y-191.8
X110.6Y-98.2
T0
M30
