%FSLAX45Y45*%
G04 Gerber Fmt 4.5, Leading zero omitted, Abs format (unit mm)*
G04 Created by KiCad (PCBNEW (5.1.12)-1) date 2022-08-06 16:23:51*
%MOMM*%
%LPD*%
G01*
G04 APERTURE LIST*
%TA.AperFunction,Profile*%
%ADD10C,0.050000*%
%TD*%
%ADD11C,0.200000*%
%ADD12C,0.300000*%
G04 APERTURE END LIST*
D10*
X1400000Y-19500000D02*
X1400000Y-9500000D01*
X11400000Y-19500000D02*
X1400000Y-19500000D01*
X11400000Y-9500000D02*
X11400000Y-19500000D01*
X1400000Y-9500000D02*
X11400000Y-9500000D01*
D11*
X2243750Y-15761250D02*
X2283750Y-15801250D01*
X2283750Y-15761250D02*
X2243750Y-15801250D01*
X2920000Y-19040000D02*
X2960000Y-19080000D01*
X2960000Y-19040000D02*
X2920000Y-19080000D01*
X3360000Y-13080000D02*
X3400000Y-13120000D01*
X3400000Y-13080000D02*
X3360000Y-13120000D01*
X3700000Y-16285000D02*
X3740000Y-16325000D01*
X3740000Y-16285000D02*
X3700000Y-16325000D01*
X3805000Y-16285000D02*
X3845000Y-16325000D01*
X3845000Y-16285000D02*
X3805000Y-16325000D01*
X4261350Y-13138650D02*
X4301350Y-13178650D01*
X4301350Y-13138650D02*
X4261350Y-13178650D01*
X4423750Y-14336250D02*
X4463750Y-14376250D01*
X4463750Y-14336250D02*
X4423750Y-14376250D01*
X4423750Y-14436250D02*
X4463750Y-14476250D01*
X4463750Y-14436250D02*
X4423750Y-14476250D01*
X4430000Y-13580000D02*
X4470000Y-13620000D01*
X4470000Y-13580000D02*
X4430000Y-13620000D01*
X4881350Y-13138650D02*
X4921350Y-13178650D01*
X4921350Y-13138650D02*
X4881350Y-13178650D01*
X5075000Y-12860000D02*
X5115000Y-12900000D01*
X5115000Y-12860000D02*
X5075000Y-12900000D01*
X5080000Y-13230000D02*
X5120000Y-13270000D01*
X5120000Y-13230000D02*
X5080000Y-13270000D01*
X5160000Y-13920000D02*
X5200000Y-13960000D01*
X5200000Y-13920000D02*
X5160000Y-13960000D01*
X5205000Y-13280000D02*
X5245000Y-13320000D01*
X5245000Y-13280000D02*
X5205000Y-13320000D01*
X5686250Y-12648750D02*
X5726250Y-12688750D01*
X5726250Y-12648750D02*
X5686250Y-12688750D01*
X6000000Y-15020000D02*
X6040000Y-15060000D01*
X6040000Y-15020000D02*
X6000000Y-15060000D01*
X6055000Y-13955000D02*
X6095000Y-13995000D01*
X6095000Y-13955000D02*
X6055000Y-13995000D01*
X6055000Y-14055000D02*
X6095000Y-14095000D01*
X6095000Y-14055000D02*
X6055000Y-14095000D01*
X6080000Y-13080000D02*
X6120000Y-13120000D01*
X6120000Y-13080000D02*
X6080000Y-13120000D01*
X6105000Y-13480000D02*
X6145000Y-13520000D01*
X6145000Y-13480000D02*
X6105000Y-13520000D01*
X6155000Y-14555000D02*
X6195000Y-14595000D01*
X6195000Y-14555000D02*
X6155000Y-14595000D01*
X6280000Y-13255000D02*
X6320000Y-13295000D01*
X6320000Y-13255000D02*
X6280000Y-13295000D01*
X6280000Y-14255000D02*
X6320000Y-14295000D01*
X6320000Y-14255000D02*
X6280000Y-14295000D01*
X6280000Y-14555000D02*
X6320000Y-14595000D01*
X6320000Y-14555000D02*
X6280000Y-14595000D01*
X6490000Y-14411359D02*
X6530000Y-14451359D01*
X6530000Y-14411359D02*
X6490000Y-14451359D01*
X6600000Y-12220000D02*
X6640000Y-12260000D01*
X6640000Y-12220000D02*
X6600000Y-12260000D01*
X6640000Y-11660000D02*
X6680000Y-11700000D01*
X6680000Y-11660000D02*
X6640000Y-11700000D01*
X6655000Y-14520001D02*
X6695000Y-14560001D01*
X6695000Y-14520001D02*
X6655000Y-14560001D01*
X6880000Y-11655000D02*
X6920000Y-11695000D01*
X6920000Y-11655000D02*
X6880000Y-11695000D01*
X6980000Y-11655000D02*
X7020000Y-11695000D01*
X7020000Y-11655000D02*
X6980000Y-11695000D01*
X7080000Y-11655000D02*
X7120000Y-11695000D01*
X7120000Y-11655000D02*
X7080000Y-11695000D01*
X7120000Y-13100000D02*
X7160000Y-13140000D01*
X7160000Y-13100000D02*
X7120000Y-13140000D01*
X7205000Y-11655000D02*
X7245000Y-11695000D01*
X7245000Y-11655000D02*
X7205000Y-11695000D01*
X7230000Y-14130000D02*
X7270000Y-14170000D01*
X7270000Y-14130000D02*
X7230000Y-14170000D01*
X7295625Y-11915625D02*
X7335625Y-11955625D01*
X7335625Y-11915625D02*
X7295625Y-11955625D01*
X7360000Y-13160000D02*
X7400000Y-13200000D01*
X7400000Y-13160000D02*
X7360000Y-13200000D01*
X7385625Y-11825625D02*
X7425625Y-11865625D01*
X7425625Y-11825625D02*
X7385625Y-11865625D01*
X7475625Y-11735625D02*
X7515625Y-11775625D01*
X7515625Y-11735625D02*
X7475625Y-11775625D01*
X7480000Y-14130000D02*
X7520000Y-14170000D01*
X7520000Y-14130000D02*
X7480000Y-14170000D01*
X7565000Y-14415000D02*
X7605000Y-14455000D01*
X7605000Y-14415000D02*
X7565000Y-14455000D01*
X7565625Y-11645625D02*
X7605625Y-11685625D01*
X7605625Y-11645625D02*
X7565625Y-11685625D01*
X7605000Y-13555000D02*
X7645000Y-13595000D01*
X7645000Y-13555000D02*
X7605000Y-13595000D01*
X7651500Y-11428500D02*
X7691500Y-11468500D01*
X7691500Y-11428500D02*
X7651500Y-11468500D01*
X7651500Y-11548500D02*
X7691500Y-11588500D01*
X7691500Y-11548500D02*
X7651500Y-11588500D01*
X7780000Y-13680000D02*
X7820000Y-13720000D01*
X7820000Y-13680000D02*
X7780000Y-13720000D01*
X7880000Y-17160000D02*
X7920000Y-17200000D01*
X7920000Y-17160000D02*
X7880000Y-17200000D01*
X7900000Y-14180000D02*
X7940000Y-14220000D01*
X7940000Y-14180000D02*
X7900000Y-14220000D01*
X8023750Y-13530000D02*
X8063750Y-13570000D01*
X8063750Y-13530000D02*
X8023750Y-13570000D01*
X8240000Y-13560000D02*
X8280000Y-13600000D01*
X8280000Y-13560000D02*
X8240000Y-13600000D01*
X8440000Y-16280000D02*
X8480000Y-16320000D01*
X8480000Y-16280000D02*
X8440000Y-16320000D01*
X8460000Y-15820000D02*
X8500000Y-15860000D01*
X8500000Y-15820000D02*
X8460000Y-15860000D01*
X7887500Y-15221000D02*
G75*
G03*
X7887500Y-15221000I-37500J0D01*
G01*
X7887500Y-15348000D02*
G75*
G03*
X7887500Y-15348000I-37500J0D01*
G01*
X7887500Y-15475000D02*
G75*
G03*
X7887500Y-15475000I-37500J0D01*
G01*
X1820000Y-13710000D02*
X1820000Y-13810000D01*
X1770000Y-13760000D02*
X1870000Y-13760000D01*
X1820000Y-14315000D02*
X1820000Y-14415000D01*
X1770000Y-14365000D02*
X1870000Y-14365000D01*
X1820000Y-14569000D02*
X1820000Y-14669000D01*
X1770000Y-14619000D02*
X1870000Y-14619000D01*
X1940000Y-12770000D02*
X1940000Y-12870000D01*
X1890000Y-12820000D02*
X1990000Y-12820000D01*
X1940000Y-13024000D02*
X1940000Y-13124000D01*
X1890000Y-13074000D02*
X1990000Y-13074000D01*
X2074000Y-14315000D02*
X2074000Y-14415000D01*
X2024000Y-14365000D02*
X2124000Y-14365000D01*
X2074000Y-14569000D02*
X2074000Y-14669000D01*
X2024000Y-14619000D02*
X2124000Y-14619000D01*
X3567000Y-12025000D02*
X3567000Y-12125000D01*
X3517000Y-12075000D02*
X3617000Y-12075000D01*
X3575000Y-18250000D02*
X3575000Y-18350000D01*
X3525000Y-18300000D02*
X3625000Y-18300000D01*
X3821000Y-12025000D02*
X3821000Y-12125000D01*
X3771000Y-12075000D02*
X3871000Y-12075000D01*
X3829000Y-18250000D02*
X3829000Y-18350000D01*
X3779000Y-18300000D02*
X3879000Y-18300000D01*
X4075000Y-12025000D02*
X4075000Y-12125000D01*
X4025000Y-12075000D02*
X4125000Y-12075000D01*
X4083000Y-18250000D02*
X4083000Y-18350000D01*
X4033000Y-18300000D02*
X4133000Y-18300000D01*
X4329000Y-12025000D02*
X4329000Y-12125000D01*
X4279000Y-12075000D02*
X4379000Y-12075000D01*
X4337000Y-18250000D02*
X4337000Y-18350000D01*
X4287000Y-18300000D02*
X4387000Y-18300000D01*
X4525000Y-10500000D02*
X4525000Y-10600000D01*
X4475000Y-10550000D02*
X4575000Y-10550000D01*
X4583000Y-12025000D02*
X4583000Y-12125000D01*
X4533000Y-12075000D02*
X4633000Y-12075000D01*
X4591000Y-18250000D02*
X4591000Y-18350000D01*
X4541000Y-18300000D02*
X4641000Y-18300000D01*
X4740000Y-17650000D02*
X4740000Y-17750000D01*
X4690000Y-17700000D02*
X4790000Y-17700000D01*
X4779000Y-10500000D02*
X4779000Y-10600000D01*
X4729000Y-10550000D02*
X4829000Y-10550000D01*
X4845000Y-18250000D02*
X4845000Y-18350000D01*
X4795000Y-18300000D02*
X4895000Y-18300000D01*
X4994000Y-17650000D02*
X4994000Y-17750000D01*
X4944000Y-17700000D02*
X5044000Y-17700000D01*
X5033000Y-10500000D02*
X5033000Y-10600000D01*
X4983000Y-10550000D02*
X5083000Y-10550000D01*
X5099000Y-18250000D02*
X5099000Y-18350000D01*
X5049000Y-18300000D02*
X5149000Y-18300000D01*
X5287000Y-10500000D02*
X5287000Y-10600000D01*
X5237000Y-10550000D02*
X5337000Y-10550000D01*
X5353000Y-18250000D02*
X5353000Y-18350000D01*
X5303000Y-18300000D02*
X5403000Y-18300000D01*
X5541000Y-10500000D02*
X5541000Y-10600000D01*
X5491000Y-10550000D02*
X5591000Y-10550000D01*
X5795000Y-10500000D02*
X5795000Y-10600000D01*
X5745000Y-10550000D02*
X5845000Y-10550000D01*
X5860000Y-16815000D02*
X5860000Y-16915000D01*
X5810000Y-16865000D02*
X5910000Y-16865000D01*
X6114000Y-16815000D02*
X6114000Y-16915000D01*
X6064000Y-16865000D02*
X6164000Y-16865000D01*
X6120000Y-16255000D02*
X6120000Y-16355000D01*
X6070000Y-16305000D02*
X6170000Y-16305000D01*
X6120000Y-17315000D02*
X6120000Y-17415000D01*
X6070000Y-17365000D02*
X6170000Y-17365000D01*
X6284000Y-10475000D02*
X6284000Y-10575000D01*
X6234000Y-10525000D02*
X6334000Y-10525000D01*
X6368000Y-16815000D02*
X6368000Y-16915000D01*
X6318000Y-16865000D02*
X6418000Y-16865000D01*
X6374000Y-16255000D02*
X6374000Y-16355000D01*
X6324000Y-16305000D02*
X6424000Y-16305000D01*
X6374000Y-17315000D02*
X6374000Y-17415000D01*
X6324000Y-17365000D02*
X6424000Y-17365000D01*
X6538000Y-10475000D02*
X6538000Y-10575000D01*
X6488000Y-10525000D02*
X6588000Y-10525000D01*
X6622000Y-16815000D02*
X6622000Y-16915000D01*
X6572000Y-16865000D02*
X6672000Y-16865000D01*
X6628000Y-16255000D02*
X6628000Y-16355000D01*
X6578000Y-16305000D02*
X6678000Y-16305000D01*
X6628000Y-17315000D02*
X6628000Y-17415000D01*
X6578000Y-17365000D02*
X6678000Y-17365000D01*
X6792000Y-10475000D02*
X6792000Y-10575000D01*
X6742000Y-10525000D02*
X6842000Y-10525000D01*
X6876000Y-16815000D02*
X6876000Y-16915000D01*
X6826000Y-16865000D02*
X6926000Y-16865000D01*
X6882000Y-16255000D02*
X6882000Y-16355000D01*
X6832000Y-16305000D02*
X6932000Y-16305000D01*
X6882000Y-17315000D02*
X6882000Y-17415000D01*
X6832000Y-17365000D02*
X6932000Y-17365000D01*
X7046000Y-10475000D02*
X7046000Y-10575000D01*
X6996000Y-10525000D02*
X7096000Y-10525000D01*
X7130000Y-16815000D02*
X7130000Y-16915000D01*
X7080000Y-16865000D02*
X7180000Y-16865000D01*
X7136000Y-16255000D02*
X7136000Y-16355000D01*
X7086000Y-16305000D02*
X7186000Y-16305000D01*
X7136000Y-17315000D02*
X7136000Y-17415000D01*
X7086000Y-17365000D02*
X7186000Y-17365000D01*
X7300000Y-10475000D02*
X7300000Y-10575000D01*
X7250000Y-10525000D02*
X7350000Y-10525000D01*
X7384000Y-16815000D02*
X7384000Y-16915000D01*
X7334000Y-16865000D02*
X7434000Y-16865000D01*
X7390000Y-16255000D02*
X7390000Y-16355000D01*
X7340000Y-16305000D02*
X7440000Y-16305000D01*
X7390000Y-17315000D02*
X7390000Y-17415000D01*
X7340000Y-17365000D02*
X7440000Y-17365000D01*
X7554000Y-10475000D02*
X7554000Y-10575000D01*
X7504000Y-10525000D02*
X7604000Y-10525000D01*
X7644000Y-16255000D02*
X7644000Y-16355000D01*
X7594000Y-16305000D02*
X7694000Y-16305000D01*
X7808000Y-10475000D02*
X7808000Y-10575000D01*
X7758000Y-10525000D02*
X7858000Y-10525000D01*
X7898000Y-16255000D02*
X7898000Y-16355000D01*
X7848000Y-16305000D02*
X7948000Y-16305000D01*
X8020000Y-15810000D02*
X8020000Y-15910000D01*
X7970000Y-15860000D02*
X8070000Y-15860000D01*
X8062000Y-10475000D02*
X8062000Y-10575000D01*
X8012000Y-10525000D02*
X8112000Y-10525000D01*
X8500000Y-10470000D02*
X8500000Y-10570000D01*
X8450000Y-10520000D02*
X8550000Y-10520000D01*
X8754000Y-10470000D02*
X8754000Y-10570000D01*
X8704000Y-10520000D02*
X8804000Y-10520000D01*
X8875000Y-14650000D02*
X8875000Y-14750000D01*
X8825000Y-14700000D02*
X8925000Y-14700000D01*
X8875000Y-14904000D02*
X8875000Y-15004000D01*
X8825000Y-14954000D02*
X8925000Y-14954000D01*
X8875000Y-15158000D02*
X8875000Y-15258000D01*
X8825000Y-15208000D02*
X8925000Y-15208000D01*
X9008000Y-10470000D02*
X9008000Y-10570000D01*
X8958000Y-10520000D02*
X9058000Y-10520000D01*
X9262000Y-10470000D02*
X9262000Y-10570000D01*
X9212000Y-10520000D02*
X9312000Y-10520000D01*
X9400000Y-18770000D02*
X9400000Y-18870000D01*
X9350000Y-18820000D02*
X9450000Y-18820000D01*
X9420000Y-15704000D02*
X9420000Y-15804000D01*
X9370000Y-15754000D02*
X9470000Y-15754000D01*
X9420000Y-15958000D02*
X9420000Y-16058000D01*
X9370000Y-16008000D02*
X9470000Y-16008000D01*
X9420000Y-16212000D02*
X9420000Y-16312000D01*
X9370000Y-16262000D02*
X9470000Y-16262000D01*
X9420000Y-16466000D02*
X9420000Y-16566000D01*
X9370000Y-16516000D02*
X9470000Y-16516000D01*
X9420000Y-16720000D02*
X9420000Y-16820000D01*
X9370000Y-16770000D02*
X9470000Y-16770000D01*
X9420000Y-16974000D02*
X9420000Y-17074000D01*
X9370000Y-17024000D02*
X9470000Y-17024000D01*
X9420000Y-17228000D02*
X9420000Y-17328000D01*
X9370000Y-17278000D02*
X9470000Y-17278000D01*
X9420000Y-17482000D02*
X9420000Y-17582000D01*
X9370000Y-17532000D02*
X9470000Y-17532000D01*
X9420000Y-17736000D02*
X9420000Y-17836000D01*
X9370000Y-17786000D02*
X9470000Y-17786000D01*
X9420000Y-17990000D02*
X9420000Y-18090000D01*
X9370000Y-18040000D02*
X9470000Y-18040000D01*
X9516000Y-10470000D02*
X9516000Y-10570000D01*
X9466000Y-10520000D02*
X9566000Y-10520000D01*
X9650000Y-13634000D02*
X9650000Y-13734000D01*
X9600000Y-13684000D02*
X9700000Y-13684000D01*
X9650000Y-13888000D02*
X9650000Y-13988000D01*
X9600000Y-13938000D02*
X9700000Y-13938000D01*
X9650000Y-14142000D02*
X9650000Y-14242000D01*
X9600000Y-14192000D02*
X9700000Y-14192000D01*
X9650000Y-14396000D02*
X9650000Y-14496000D01*
X9600000Y-14446000D02*
X9700000Y-14446000D01*
X9650000Y-14650000D02*
X9650000Y-14750000D01*
X9600000Y-14700000D02*
X9700000Y-14700000D01*
X9660000Y-12910000D02*
X9660000Y-13010000D01*
X9610000Y-12960000D02*
X9710000Y-12960000D01*
X9660000Y-13164000D02*
X9660000Y-13264000D01*
X9610000Y-13214000D02*
X9710000Y-13214000D01*
X9770000Y-10470000D02*
X9770000Y-10570000D01*
X9720000Y-10520000D02*
X9820000Y-10520000D01*
X10024000Y-10470000D02*
X10024000Y-10570000D01*
X9974000Y-10520000D02*
X10074000Y-10520000D01*
X10260000Y-11554000D02*
X10260000Y-11654000D01*
X10210000Y-11604000D02*
X10310000Y-11604000D01*
X10260000Y-11808000D02*
X10260000Y-11908000D01*
X10210000Y-11858000D02*
X10310000Y-11858000D01*
X10260000Y-12062000D02*
X10260000Y-12162000D01*
X10210000Y-12112000D02*
X10310000Y-12112000D01*
X10260000Y-12316000D02*
X10260000Y-12416000D01*
X10210000Y-12366000D02*
X10310000Y-12366000D01*
X10260000Y-12570000D02*
X10260000Y-12670000D01*
X10210000Y-12620000D02*
X10310000Y-12620000D01*
X10660000Y-11070000D02*
X10660000Y-11170000D01*
X10610000Y-11120000D02*
X10710000Y-11120000D01*
X2078891Y-15755891D02*
X2078891Y-15678109D01*
X2001109Y-15678109D01*
X2001109Y-15755891D01*
X2078891Y-15755891D01*
X2078891Y-16009891D02*
X2078891Y-15932109D01*
X2001109Y-15932109D01*
X2001109Y-16009891D01*
X2078891Y-16009891D01*
X2078891Y-16263891D02*
X2078891Y-16186109D01*
X2001109Y-16186109D01*
X2001109Y-16263891D01*
X2078891Y-16263891D01*
X2078891Y-17970891D02*
X2078891Y-17893109D01*
X2001109Y-17893109D01*
X2001109Y-17970891D01*
X2078891Y-17970891D01*
X2078891Y-18224891D02*
X2078891Y-18147109D01*
X2001109Y-18147109D01*
X2001109Y-18224891D01*
X2078891Y-18224891D01*
X2078891Y-18478891D02*
X2078891Y-18401109D01*
X2001109Y-18401109D01*
X2001109Y-18478891D01*
X2078891Y-18478891D01*
X1740000Y-19380000D02*
X1940000Y-19180000D01*
X1740000Y-18980000D01*
X1540000Y-19180000D01*
X1740000Y-19380000D01*
X11060000Y-10020000D02*
X11260000Y-9820000D01*
X11060000Y-9620000D01*
X10860000Y-9820000D01*
X11060000Y-10020000D01*
D12*
X1683928Y-19968214D02*
X1683928Y-19668214D01*
X1755357Y-19668214D01*
X1798214Y-19682500D01*
X1826786Y-19711072D01*
X1841071Y-19739643D01*
X1855357Y-19796786D01*
X1855357Y-19839643D01*
X1841071Y-19896786D01*
X1826786Y-19925357D01*
X1798214Y-19953929D01*
X1755357Y-19968214D01*
X1683928Y-19968214D01*
X1983928Y-19968214D02*
X1983928Y-19768214D01*
X1983928Y-19825357D02*
X1998214Y-19796786D01*
X2012500Y-19782500D01*
X2041071Y-19768214D01*
X2069643Y-19768214D01*
X2169643Y-19968214D02*
X2169643Y-19768214D01*
X2169643Y-19668214D02*
X2155357Y-19682500D01*
X2169643Y-19696786D01*
X2183928Y-19682500D01*
X2169643Y-19668214D01*
X2169643Y-19696786D01*
X2355357Y-19968214D02*
X2326786Y-19953929D01*
X2312500Y-19925357D01*
X2312500Y-19668214D01*
X2512500Y-19968214D02*
X2483928Y-19953929D01*
X2469643Y-19925357D01*
X2469643Y-19668214D01*
X2855357Y-19968214D02*
X2855357Y-19668214D01*
X2955357Y-19882500D01*
X3055357Y-19668214D01*
X3055357Y-19968214D01*
X3326786Y-19968214D02*
X3326786Y-19811072D01*
X3312500Y-19782500D01*
X3283928Y-19768214D01*
X3226786Y-19768214D01*
X3198214Y-19782500D01*
X3326786Y-19953929D02*
X3298214Y-19968214D01*
X3226786Y-19968214D01*
X3198214Y-19953929D01*
X3183928Y-19925357D01*
X3183928Y-19896786D01*
X3198214Y-19868214D01*
X3226786Y-19853929D01*
X3298214Y-19853929D01*
X3326786Y-19839643D01*
X3469643Y-19768214D02*
X3469643Y-20068214D01*
X3469643Y-19782500D02*
X3498214Y-19768214D01*
X3555357Y-19768214D01*
X3583928Y-19782500D01*
X3598214Y-19796786D01*
X3612500Y-19825357D01*
X3612500Y-19911072D01*
X3598214Y-19939643D01*
X3583928Y-19953929D01*
X3555357Y-19968214D01*
X3498214Y-19968214D01*
X3469643Y-19953929D01*
X3741071Y-19939643D02*
X3755357Y-19953929D01*
X3741071Y-19968214D01*
X3726786Y-19953929D01*
X3741071Y-19939643D01*
X3741071Y-19968214D01*
X3741071Y-19782500D02*
X3755357Y-19796786D01*
X3741071Y-19811072D01*
X3726786Y-19796786D01*
X3741071Y-19782500D01*
X3741071Y-19811072D01*
X1357500Y-20442500D02*
X1397500Y-20482500D01*
X1397500Y-20442500D02*
X1357500Y-20482500D01*
X1741071Y-20298214D02*
X1769643Y-20298214D01*
X1798214Y-20312500D01*
X1812500Y-20326786D01*
X1826786Y-20355357D01*
X1841071Y-20412500D01*
X1841071Y-20483929D01*
X1826786Y-20541072D01*
X1812500Y-20569643D01*
X1798214Y-20583929D01*
X1769643Y-20598214D01*
X1741071Y-20598214D01*
X1712500Y-20583929D01*
X1698214Y-20569643D01*
X1683928Y-20541072D01*
X1669643Y-20483929D01*
X1669643Y-20412500D01*
X1683928Y-20355357D01*
X1698214Y-20326786D01*
X1712500Y-20312500D01*
X1741071Y-20298214D01*
X1969643Y-20569643D02*
X1983928Y-20583929D01*
X1969643Y-20598214D01*
X1955357Y-20583929D01*
X1969643Y-20569643D01*
X1969643Y-20598214D01*
X2241071Y-20398214D02*
X2241071Y-20598214D01*
X2169643Y-20283929D02*
X2098214Y-20498214D01*
X2283928Y-20498214D01*
X2455357Y-20298214D02*
X2483928Y-20298214D01*
X2512500Y-20312500D01*
X2526786Y-20326786D01*
X2541071Y-20355357D01*
X2555357Y-20412500D01*
X2555357Y-20483929D01*
X2541071Y-20541072D01*
X2526786Y-20569643D01*
X2512500Y-20583929D01*
X2483928Y-20598214D01*
X2455357Y-20598214D01*
X2426786Y-20583929D01*
X2412500Y-20569643D01*
X2398214Y-20541072D01*
X2383928Y-20483929D01*
X2383928Y-20412500D01*
X2398214Y-20355357D01*
X2412500Y-20326786D01*
X2426786Y-20312500D01*
X2455357Y-20298214D01*
X2741071Y-20298214D02*
X2769643Y-20298214D01*
X2798214Y-20312500D01*
X2812500Y-20326786D01*
X2826786Y-20355357D01*
X2841071Y-20412500D01*
X2841071Y-20483929D01*
X2826786Y-20541072D01*
X2812500Y-20569643D01*
X2798214Y-20583929D01*
X2769643Y-20598214D01*
X2741071Y-20598214D01*
X2712500Y-20583929D01*
X2698214Y-20569643D01*
X2683928Y-20541072D01*
X2669643Y-20483929D01*
X2669643Y-20412500D01*
X2683928Y-20355357D01*
X2698214Y-20326786D01*
X2712500Y-20312500D01*
X2741071Y-20298214D01*
X2969643Y-20598214D02*
X2969643Y-20398214D01*
X2969643Y-20426786D02*
X2983928Y-20412500D01*
X3012500Y-20398214D01*
X3055357Y-20398214D01*
X3083928Y-20412500D01*
X3098214Y-20441072D01*
X3098214Y-20598214D01*
X3098214Y-20441072D02*
X3112500Y-20412500D01*
X3141071Y-20398214D01*
X3183928Y-20398214D01*
X3212500Y-20412500D01*
X3226786Y-20441072D01*
X3226786Y-20598214D01*
X3369643Y-20598214D02*
X3369643Y-20398214D01*
X3369643Y-20426786D02*
X3383928Y-20412500D01*
X3412500Y-20398214D01*
X3455357Y-20398214D01*
X3483928Y-20412500D01*
X3498214Y-20441072D01*
X3498214Y-20598214D01*
X3498214Y-20441072D02*
X3512500Y-20412500D01*
X3541071Y-20398214D01*
X3583928Y-20398214D01*
X3612500Y-20412500D01*
X3626786Y-20441072D01*
X3626786Y-20598214D01*
X4212500Y-20283929D02*
X3955357Y-20669643D01*
X4598214Y-20298214D02*
X4626786Y-20298214D01*
X4655357Y-20312500D01*
X4669643Y-20326786D01*
X4683928Y-20355357D01*
X4698214Y-20412500D01*
X4698214Y-20483929D01*
X4683928Y-20541072D01*
X4669643Y-20569643D01*
X4655357Y-20583929D01*
X4626786Y-20598214D01*
X4598214Y-20598214D01*
X4569643Y-20583929D01*
X4555357Y-20569643D01*
X4541071Y-20541072D01*
X4526786Y-20483929D01*
X4526786Y-20412500D01*
X4541071Y-20355357D01*
X4555357Y-20326786D01*
X4569643Y-20312500D01*
X4598214Y-20298214D01*
X4826786Y-20569643D02*
X4841071Y-20583929D01*
X4826786Y-20598214D01*
X4812500Y-20583929D01*
X4826786Y-20569643D01*
X4826786Y-20598214D01*
X5026786Y-20298214D02*
X5055357Y-20298214D01*
X5083928Y-20312500D01*
X5098214Y-20326786D01*
X5112500Y-20355357D01*
X5126786Y-20412500D01*
X5126786Y-20483929D01*
X5112500Y-20541072D01*
X5098214Y-20569643D01*
X5083928Y-20583929D01*
X5055357Y-20598214D01*
X5026786Y-20598214D01*
X4998214Y-20583929D01*
X4983928Y-20569643D01*
X4969643Y-20541072D01*
X4955357Y-20483929D01*
X4955357Y-20412500D01*
X4969643Y-20355357D01*
X4983928Y-20326786D01*
X4998214Y-20312500D01*
X5026786Y-20298214D01*
X5412500Y-20598214D02*
X5241071Y-20598214D01*
X5326786Y-20598214D02*
X5326786Y-20298214D01*
X5298214Y-20341072D01*
X5269643Y-20369643D01*
X5241071Y-20383929D01*
X5683928Y-20298214D02*
X5541071Y-20298214D01*
X5526786Y-20441072D01*
X5541071Y-20426786D01*
X5569643Y-20412500D01*
X5641071Y-20412500D01*
X5669643Y-20426786D01*
X5683928Y-20441072D01*
X5698214Y-20469643D01*
X5698214Y-20541072D01*
X5683928Y-20569643D01*
X5669643Y-20583929D01*
X5641071Y-20598214D01*
X5569643Y-20598214D01*
X5541071Y-20583929D01*
X5526786Y-20569643D01*
X5798214Y-20298214D02*
X5998214Y-20298214D01*
X5869643Y-20598214D01*
X6098214Y-20298214D02*
X6098214Y-20355357D01*
X6212500Y-20298214D02*
X6212500Y-20355357D01*
X6655357Y-20712500D02*
X6641071Y-20698214D01*
X6612500Y-20655357D01*
X6598214Y-20626786D01*
X6583928Y-20583929D01*
X6569643Y-20512500D01*
X6569643Y-20455357D01*
X6583928Y-20383929D01*
X6598214Y-20341072D01*
X6612500Y-20312500D01*
X6641071Y-20269643D01*
X6655357Y-20255357D01*
X6912500Y-20298214D02*
X6769643Y-20298214D01*
X6755357Y-20441072D01*
X6769643Y-20426786D01*
X6798214Y-20412500D01*
X6869643Y-20412500D01*
X6898214Y-20426786D01*
X6912500Y-20441072D01*
X6926786Y-20469643D01*
X6926786Y-20541072D01*
X6912500Y-20569643D01*
X6898214Y-20583929D01*
X6869643Y-20598214D01*
X6798214Y-20598214D01*
X6769643Y-20583929D01*
X6755357Y-20569643D01*
X7212500Y-20598214D02*
X7041071Y-20598214D01*
X7126786Y-20598214D02*
X7126786Y-20298214D01*
X7098214Y-20341072D01*
X7069643Y-20369643D01*
X7041071Y-20383929D01*
X7569643Y-20598214D02*
X7569643Y-20298214D01*
X7698214Y-20598214D02*
X7698214Y-20441072D01*
X7683928Y-20412500D01*
X7655357Y-20398214D01*
X7612500Y-20398214D01*
X7583928Y-20412500D01*
X7569643Y-20426786D01*
X7883928Y-20598214D02*
X7855357Y-20583929D01*
X7841071Y-20569643D01*
X7826786Y-20541072D01*
X7826786Y-20455357D01*
X7841071Y-20426786D01*
X7855357Y-20412500D01*
X7883928Y-20398214D01*
X7926786Y-20398214D01*
X7955357Y-20412500D01*
X7969643Y-20426786D01*
X7983928Y-20455357D01*
X7983928Y-20541072D01*
X7969643Y-20569643D01*
X7955357Y-20583929D01*
X7926786Y-20598214D01*
X7883928Y-20598214D01*
X8155357Y-20598214D02*
X8126786Y-20583929D01*
X8112500Y-20555357D01*
X8112500Y-20298214D01*
X8383928Y-20583929D02*
X8355357Y-20598214D01*
X8298214Y-20598214D01*
X8269643Y-20583929D01*
X8255357Y-20555357D01*
X8255357Y-20441072D01*
X8269643Y-20412500D01*
X8298214Y-20398214D01*
X8355357Y-20398214D01*
X8383928Y-20412500D01*
X8398214Y-20441072D01*
X8398214Y-20469643D01*
X8255357Y-20498214D01*
X8512500Y-20583929D02*
X8541071Y-20598214D01*
X8598214Y-20598214D01*
X8626786Y-20583929D01*
X8641071Y-20555357D01*
X8641071Y-20541072D01*
X8626786Y-20512500D01*
X8598214Y-20498214D01*
X8555357Y-20498214D01*
X8526786Y-20483929D01*
X8512500Y-20455357D01*
X8512500Y-20441072D01*
X8526786Y-20412500D01*
X8555357Y-20398214D01*
X8598214Y-20398214D01*
X8626786Y-20412500D01*
X8741071Y-20712500D02*
X8755357Y-20698214D01*
X8783928Y-20655357D01*
X8798214Y-20626786D01*
X8812500Y-20583929D01*
X8826786Y-20512500D01*
X8826786Y-20455357D01*
X8812500Y-20383929D01*
X8798214Y-20341072D01*
X8783928Y-20312500D01*
X8755357Y-20269643D01*
X8741071Y-20255357D01*
X1397500Y-20858500D02*
G75*
G03*
X1397500Y-20858500I-37500J0D01*
G01*
X1741071Y-20694214D02*
X1769643Y-20694214D01*
X1798214Y-20708500D01*
X1812500Y-20722786D01*
X1826786Y-20751357D01*
X1841071Y-20808500D01*
X1841071Y-20879929D01*
X1826786Y-20937072D01*
X1812500Y-20965643D01*
X1798214Y-20979929D01*
X1769643Y-20994214D01*
X1741071Y-20994214D01*
X1712500Y-20979929D01*
X1698214Y-20965643D01*
X1683928Y-20937072D01*
X1669643Y-20879929D01*
X1669643Y-20808500D01*
X1683928Y-20751357D01*
X1698214Y-20722786D01*
X1712500Y-20708500D01*
X1741071Y-20694214D01*
X1969643Y-20965643D02*
X1983928Y-20979929D01*
X1969643Y-20994214D01*
X1955357Y-20979929D01*
X1969643Y-20965643D01*
X1969643Y-20994214D01*
X2083928Y-20694214D02*
X2283928Y-20694214D01*
X2155357Y-20994214D01*
X2541071Y-20694214D02*
X2398214Y-20694214D01*
X2383928Y-20837072D01*
X2398214Y-20822786D01*
X2426786Y-20808500D01*
X2498214Y-20808500D01*
X2526786Y-20822786D01*
X2541071Y-20837072D01*
X2555357Y-20865643D01*
X2555357Y-20937072D01*
X2541071Y-20965643D01*
X2526786Y-20979929D01*
X2498214Y-20994214D01*
X2426786Y-20994214D01*
X2398214Y-20979929D01*
X2383928Y-20965643D01*
X2741071Y-20694214D02*
X2769643Y-20694214D01*
X2798214Y-20708500D01*
X2812500Y-20722786D01*
X2826786Y-20751357D01*
X2841071Y-20808500D01*
X2841071Y-20879929D01*
X2826786Y-20937072D01*
X2812500Y-20965643D01*
X2798214Y-20979929D01*
X2769643Y-20994214D01*
X2741071Y-20994214D01*
X2712500Y-20979929D01*
X2698214Y-20965643D01*
X2683928Y-20937072D01*
X2669643Y-20879929D01*
X2669643Y-20808500D01*
X2683928Y-20751357D01*
X2698214Y-20722786D01*
X2712500Y-20708500D01*
X2741071Y-20694214D01*
X2969643Y-20994214D02*
X2969643Y-20794214D01*
X2969643Y-20822786D02*
X2983928Y-20808500D01*
X3012500Y-20794214D01*
X3055357Y-20794214D01*
X3083928Y-20808500D01*
X3098214Y-20837072D01*
X3098214Y-20994214D01*
X3098214Y-20837072D02*
X3112500Y-20808500D01*
X3141071Y-20794214D01*
X3183928Y-20794214D01*
X3212500Y-20808500D01*
X3226786Y-20837072D01*
X3226786Y-20994214D01*
X3369643Y-20994214D02*
X3369643Y-20794214D01*
X3369643Y-20822786D02*
X3383928Y-20808500D01*
X3412500Y-20794214D01*
X3455357Y-20794214D01*
X3483928Y-20808500D01*
X3498214Y-20837072D01*
X3498214Y-20994214D01*
X3498214Y-20837072D02*
X3512500Y-20808500D01*
X3541071Y-20794214D01*
X3583928Y-20794214D01*
X3612500Y-20808500D01*
X3626786Y-20837072D01*
X3626786Y-20994214D01*
X4212500Y-20679929D02*
X3955357Y-21065643D01*
X4598214Y-20694214D02*
X4626786Y-20694214D01*
X4655357Y-20708500D01*
X4669643Y-20722786D01*
X4683928Y-20751357D01*
X4698214Y-20808500D01*
X4698214Y-20879929D01*
X4683928Y-20937072D01*
X4669643Y-20965643D01*
X4655357Y-20979929D01*
X4626786Y-20994214D01*
X4598214Y-20994214D01*
X4569643Y-20979929D01*
X4555357Y-20965643D01*
X4541071Y-20937072D01*
X4526786Y-20879929D01*
X4526786Y-20808500D01*
X4541071Y-20751357D01*
X4555357Y-20722786D01*
X4569643Y-20708500D01*
X4598214Y-20694214D01*
X4826786Y-20965643D02*
X4841071Y-20979929D01*
X4826786Y-20994214D01*
X4812500Y-20979929D01*
X4826786Y-20965643D01*
X4826786Y-20994214D01*
X5026786Y-20694214D02*
X5055357Y-20694214D01*
X5083928Y-20708500D01*
X5098214Y-20722786D01*
X5112500Y-20751357D01*
X5126786Y-20808500D01*
X5126786Y-20879929D01*
X5112500Y-20937072D01*
X5098214Y-20965643D01*
X5083928Y-20979929D01*
X5055357Y-20994214D01*
X5026786Y-20994214D01*
X4998214Y-20979929D01*
X4983928Y-20965643D01*
X4969643Y-20937072D01*
X4955357Y-20879929D01*
X4955357Y-20808500D01*
X4969643Y-20751357D01*
X4983928Y-20722786D01*
X4998214Y-20708500D01*
X5026786Y-20694214D01*
X5241071Y-20722786D02*
X5255357Y-20708500D01*
X5283928Y-20694214D01*
X5355357Y-20694214D01*
X5383928Y-20708500D01*
X5398214Y-20722786D01*
X5412500Y-20751357D01*
X5412500Y-20779929D01*
X5398214Y-20822786D01*
X5226786Y-20994214D01*
X5412500Y-20994214D01*
X5555357Y-20994214D02*
X5612500Y-20994214D01*
X5641071Y-20979929D01*
X5655357Y-20965643D01*
X5683928Y-20922786D01*
X5698214Y-20865643D01*
X5698214Y-20751357D01*
X5683928Y-20722786D01*
X5669643Y-20708500D01*
X5641071Y-20694214D01*
X5583928Y-20694214D01*
X5555357Y-20708500D01*
X5541071Y-20722786D01*
X5526786Y-20751357D01*
X5526786Y-20822786D01*
X5541071Y-20851357D01*
X5555357Y-20865643D01*
X5583928Y-20879929D01*
X5641071Y-20879929D01*
X5669643Y-20865643D01*
X5683928Y-20851357D01*
X5698214Y-20822786D01*
X5969643Y-20694214D02*
X5826786Y-20694214D01*
X5812500Y-20837072D01*
X5826786Y-20822786D01*
X5855357Y-20808500D01*
X5926786Y-20808500D01*
X5955357Y-20822786D01*
X5969643Y-20837072D01*
X5983928Y-20865643D01*
X5983928Y-20937072D01*
X5969643Y-20965643D01*
X5955357Y-20979929D01*
X5926786Y-20994214D01*
X5855357Y-20994214D01*
X5826786Y-20979929D01*
X5812500Y-20965643D01*
X6098214Y-20694214D02*
X6098214Y-20751357D01*
X6212500Y-20694214D02*
X6212500Y-20751357D01*
X6655357Y-21108500D02*
X6641071Y-21094214D01*
X6612500Y-21051357D01*
X6598214Y-21022786D01*
X6583928Y-20979929D01*
X6569643Y-20908500D01*
X6569643Y-20851357D01*
X6583928Y-20779929D01*
X6598214Y-20737072D01*
X6612500Y-20708500D01*
X6641071Y-20665643D01*
X6655357Y-20651357D01*
X6741071Y-20694214D02*
X6926786Y-20694214D01*
X6826786Y-20808500D01*
X6869643Y-20808500D01*
X6898214Y-20822786D01*
X6912500Y-20837072D01*
X6926786Y-20865643D01*
X6926786Y-20937072D01*
X6912500Y-20965643D01*
X6898214Y-20979929D01*
X6869643Y-20994214D01*
X6783928Y-20994214D01*
X6755357Y-20979929D01*
X6741071Y-20965643D01*
X7283928Y-20994214D02*
X7283928Y-20694214D01*
X7412500Y-20994214D02*
X7412500Y-20837072D01*
X7398214Y-20808500D01*
X7369643Y-20794214D01*
X7326786Y-20794214D01*
X7298214Y-20808500D01*
X7283928Y-20822786D01*
X7598214Y-20994214D02*
X7569643Y-20979929D01*
X7555357Y-20965643D01*
X7541071Y-20937072D01*
X7541071Y-20851357D01*
X7555357Y-20822786D01*
X7569643Y-20808500D01*
X7598214Y-20794214D01*
X7641071Y-20794214D01*
X7669643Y-20808500D01*
X7683928Y-20822786D01*
X7698214Y-20851357D01*
X7698214Y-20937072D01*
X7683928Y-20965643D01*
X7669643Y-20979929D01*
X7641071Y-20994214D01*
X7598214Y-20994214D01*
X7869643Y-20994214D02*
X7841071Y-20979929D01*
X7826786Y-20951357D01*
X7826786Y-20694214D01*
X8098214Y-20979929D02*
X8069643Y-20994214D01*
X8012500Y-20994214D01*
X7983928Y-20979929D01*
X7969643Y-20951357D01*
X7969643Y-20837072D01*
X7983928Y-20808500D01*
X8012500Y-20794214D01*
X8069643Y-20794214D01*
X8098214Y-20808500D01*
X8112500Y-20837072D01*
X8112500Y-20865643D01*
X7969643Y-20894214D01*
X8226786Y-20979929D02*
X8255357Y-20994214D01*
X8312500Y-20994214D01*
X8341071Y-20979929D01*
X8355357Y-20951357D01*
X8355357Y-20937072D01*
X8341071Y-20908500D01*
X8312500Y-20894214D01*
X8269643Y-20894214D01*
X8241071Y-20879929D01*
X8226786Y-20851357D01*
X8226786Y-20837072D01*
X8241071Y-20808500D01*
X8269643Y-20794214D01*
X8312500Y-20794214D01*
X8341071Y-20808500D01*
X8455357Y-21108500D02*
X8469643Y-21094214D01*
X8498214Y-21051357D01*
X8512500Y-21022786D01*
X8526786Y-20979929D01*
X8541071Y-20908500D01*
X8541071Y-20851357D01*
X8526786Y-20779929D01*
X8512500Y-20737072D01*
X8498214Y-20708500D01*
X8469643Y-20665643D01*
X8455357Y-20651357D01*
X1347500Y-21204500D02*
X1347500Y-21304500D01*
X1297500Y-21254500D02*
X1397500Y-21254500D01*
X1841071Y-21390214D02*
X1669643Y-21390214D01*
X1755357Y-21390214D02*
X1755357Y-21090214D01*
X1726786Y-21133072D01*
X1698214Y-21161643D01*
X1669643Y-21175929D01*
X1969643Y-21361643D02*
X1983928Y-21375929D01*
X1969643Y-21390214D01*
X1955357Y-21375929D01*
X1969643Y-21361643D01*
X1969643Y-21390214D01*
X2169643Y-21090214D02*
X2198214Y-21090214D01*
X2226786Y-21104500D01*
X2241071Y-21118786D01*
X2255357Y-21147357D01*
X2269643Y-21204500D01*
X2269643Y-21275929D01*
X2255357Y-21333072D01*
X2241071Y-21361643D01*
X2226786Y-21375929D01*
X2198214Y-21390214D01*
X2169643Y-21390214D01*
X2141071Y-21375929D01*
X2126786Y-21361643D01*
X2112500Y-21333072D01*
X2098214Y-21275929D01*
X2098214Y-21204500D01*
X2112500Y-21147357D01*
X2126786Y-21118786D01*
X2141071Y-21104500D01*
X2169643Y-21090214D01*
X2455357Y-21090214D02*
X2483928Y-21090214D01*
X2512500Y-21104500D01*
X2526786Y-21118786D01*
X2541071Y-21147357D01*
X2555357Y-21204500D01*
X2555357Y-21275929D01*
X2541071Y-21333072D01*
X2526786Y-21361643D01*
X2512500Y-21375929D01*
X2483928Y-21390214D01*
X2455357Y-21390214D01*
X2426786Y-21375929D01*
X2412500Y-21361643D01*
X2398214Y-21333072D01*
X2383928Y-21275929D01*
X2383928Y-21204500D01*
X2398214Y-21147357D01*
X2412500Y-21118786D01*
X2426786Y-21104500D01*
X2455357Y-21090214D01*
X2741071Y-21090214D02*
X2769643Y-21090214D01*
X2798214Y-21104500D01*
X2812500Y-21118786D01*
X2826786Y-21147357D01*
X2841071Y-21204500D01*
X2841071Y-21275929D01*
X2826786Y-21333072D01*
X2812500Y-21361643D01*
X2798214Y-21375929D01*
X2769643Y-21390214D01*
X2741071Y-21390214D01*
X2712500Y-21375929D01*
X2698214Y-21361643D01*
X2683928Y-21333072D01*
X2669643Y-21275929D01*
X2669643Y-21204500D01*
X2683928Y-21147357D01*
X2698214Y-21118786D01*
X2712500Y-21104500D01*
X2741071Y-21090214D01*
X2969643Y-21390214D02*
X2969643Y-21190214D01*
X2969643Y-21218786D02*
X2983928Y-21204500D01*
X3012500Y-21190214D01*
X3055357Y-21190214D01*
X3083928Y-21204500D01*
X3098214Y-21233072D01*
X3098214Y-21390214D01*
X3098214Y-21233072D02*
X3112500Y-21204500D01*
X3141071Y-21190214D01*
X3183928Y-21190214D01*
X3212500Y-21204500D01*
X3226786Y-21233072D01*
X3226786Y-21390214D01*
X3369643Y-21390214D02*
X3369643Y-21190214D01*
X3369643Y-21218786D02*
X3383928Y-21204500D01*
X3412500Y-21190214D01*
X3455357Y-21190214D01*
X3483928Y-21204500D01*
X3498214Y-21233072D01*
X3498214Y-21390214D01*
X3498214Y-21233072D02*
X3512500Y-21204500D01*
X3541071Y-21190214D01*
X3583928Y-21190214D01*
X3612500Y-21204500D01*
X3626786Y-21233072D01*
X3626786Y-21390214D01*
X4212500Y-21075929D02*
X3955357Y-21461643D01*
X4598214Y-21090214D02*
X4626786Y-21090214D01*
X4655357Y-21104500D01*
X4669643Y-21118786D01*
X4683928Y-21147357D01*
X4698214Y-21204500D01*
X4698214Y-21275929D01*
X4683928Y-21333072D01*
X4669643Y-21361643D01*
X4655357Y-21375929D01*
X4626786Y-21390214D01*
X4598214Y-21390214D01*
X4569643Y-21375929D01*
X4555357Y-21361643D01*
X4541071Y-21333072D01*
X4526786Y-21275929D01*
X4526786Y-21204500D01*
X4541071Y-21147357D01*
X4555357Y-21118786D01*
X4569643Y-21104500D01*
X4598214Y-21090214D01*
X4826786Y-21361643D02*
X4841071Y-21375929D01*
X4826786Y-21390214D01*
X4812500Y-21375929D01*
X4826786Y-21361643D01*
X4826786Y-21390214D01*
X5026786Y-21090214D02*
X5055357Y-21090214D01*
X5083928Y-21104500D01*
X5098214Y-21118786D01*
X5112500Y-21147357D01*
X5126786Y-21204500D01*
X5126786Y-21275929D01*
X5112500Y-21333072D01*
X5098214Y-21361643D01*
X5083928Y-21375929D01*
X5055357Y-21390214D01*
X5026786Y-21390214D01*
X4998214Y-21375929D01*
X4983928Y-21361643D01*
X4969643Y-21333072D01*
X4955357Y-21275929D01*
X4955357Y-21204500D01*
X4969643Y-21147357D01*
X4983928Y-21118786D01*
X4998214Y-21104500D01*
X5026786Y-21090214D01*
X5226786Y-21090214D02*
X5412500Y-21090214D01*
X5312500Y-21204500D01*
X5355357Y-21204500D01*
X5383928Y-21218786D01*
X5398214Y-21233072D01*
X5412500Y-21261643D01*
X5412500Y-21333072D01*
X5398214Y-21361643D01*
X5383928Y-21375929D01*
X5355357Y-21390214D01*
X5269643Y-21390214D01*
X5241071Y-21375929D01*
X5226786Y-21361643D01*
X5555357Y-21390214D02*
X5612500Y-21390214D01*
X5641071Y-21375929D01*
X5655357Y-21361643D01*
X5683928Y-21318786D01*
X5698214Y-21261643D01*
X5698214Y-21147357D01*
X5683928Y-21118786D01*
X5669643Y-21104500D01*
X5641071Y-21090214D01*
X5583928Y-21090214D01*
X5555357Y-21104500D01*
X5541071Y-21118786D01*
X5526786Y-21147357D01*
X5526786Y-21218786D01*
X5541071Y-21247357D01*
X5555357Y-21261643D01*
X5583928Y-21275929D01*
X5641071Y-21275929D01*
X5669643Y-21261643D01*
X5683928Y-21247357D01*
X5698214Y-21218786D01*
X5955357Y-21190214D02*
X5955357Y-21390214D01*
X5883928Y-21075929D02*
X5812500Y-21290214D01*
X5998214Y-21290214D01*
X6098214Y-21090214D02*
X6098214Y-21147357D01*
X6212500Y-21090214D02*
X6212500Y-21147357D01*
X6655357Y-21504500D02*
X6641071Y-21490214D01*
X6612500Y-21447357D01*
X6598214Y-21418786D01*
X6583928Y-21375929D01*
X6569643Y-21304500D01*
X6569643Y-21247357D01*
X6583928Y-21175929D01*
X6598214Y-21133072D01*
X6612500Y-21104500D01*
X6641071Y-21061643D01*
X6655357Y-21047357D01*
X6783928Y-21390214D02*
X6841071Y-21390214D01*
X6869643Y-21375929D01*
X6883928Y-21361643D01*
X6912500Y-21318786D01*
X6926786Y-21261643D01*
X6926786Y-21147357D01*
X6912500Y-21118786D01*
X6898214Y-21104500D01*
X6869643Y-21090214D01*
X6812500Y-21090214D01*
X6783928Y-21104500D01*
X6769643Y-21118786D01*
X6755357Y-21147357D01*
X6755357Y-21218786D01*
X6769643Y-21247357D01*
X6783928Y-21261643D01*
X6812500Y-21275929D01*
X6869643Y-21275929D01*
X6898214Y-21261643D01*
X6912500Y-21247357D01*
X6926786Y-21218786D01*
X7041071Y-21118786D02*
X7055357Y-21104500D01*
X7083928Y-21090214D01*
X7155357Y-21090214D01*
X7183928Y-21104500D01*
X7198214Y-21118786D01*
X7212500Y-21147357D01*
X7212500Y-21175929D01*
X7198214Y-21218786D01*
X7026786Y-21390214D01*
X7212500Y-21390214D01*
X7569643Y-21390214D02*
X7569643Y-21090214D01*
X7698214Y-21390214D02*
X7698214Y-21233072D01*
X7683928Y-21204500D01*
X7655357Y-21190214D01*
X7612500Y-21190214D01*
X7583928Y-21204500D01*
X7569643Y-21218786D01*
X7883928Y-21390214D02*
X7855357Y-21375929D01*
X7841071Y-21361643D01*
X7826786Y-21333072D01*
X7826786Y-21247357D01*
X7841071Y-21218786D01*
X7855357Y-21204500D01*
X7883928Y-21190214D01*
X7926786Y-21190214D01*
X7955357Y-21204500D01*
X7969643Y-21218786D01*
X7983928Y-21247357D01*
X7983928Y-21333072D01*
X7969643Y-21361643D01*
X7955357Y-21375929D01*
X7926786Y-21390214D01*
X7883928Y-21390214D01*
X8155357Y-21390214D02*
X8126786Y-21375929D01*
X8112500Y-21347357D01*
X8112500Y-21090214D01*
X8383928Y-21375929D02*
X8355357Y-21390214D01*
X8298214Y-21390214D01*
X8269643Y-21375929D01*
X8255357Y-21347357D01*
X8255357Y-21233072D01*
X8269643Y-21204500D01*
X8298214Y-21190214D01*
X8355357Y-21190214D01*
X8383928Y-21204500D01*
X8398214Y-21233072D01*
X8398214Y-21261643D01*
X8255357Y-21290214D01*
X8512500Y-21375929D02*
X8541071Y-21390214D01*
X8598214Y-21390214D01*
X8626786Y-21375929D01*
X8641071Y-21347357D01*
X8641071Y-21333072D01*
X8626786Y-21304500D01*
X8598214Y-21290214D01*
X8555357Y-21290214D01*
X8526786Y-21275929D01*
X8512500Y-21247357D01*
X8512500Y-21233072D01*
X8526786Y-21204500D01*
X8555357Y-21190214D01*
X8598214Y-21190214D01*
X8626786Y-21204500D01*
X8741071Y-21504500D02*
X8755357Y-21490214D01*
X8783928Y-21447357D01*
X8798214Y-21418786D01*
X8812500Y-21375929D01*
X8826786Y-21304500D01*
X8826786Y-21247357D01*
X8812500Y-21175929D01*
X8798214Y-21133072D01*
X8783928Y-21104500D01*
X8755357Y-21061643D01*
X8741071Y-21047357D01*
X1381391Y-21689391D02*
X1381391Y-21611609D01*
X1303609Y-21611609D01*
X1303609Y-21689391D01*
X1381391Y-21689391D01*
X1841071Y-21786214D02*
X1669643Y-21786214D01*
X1755357Y-21786214D02*
X1755357Y-21486214D01*
X1726786Y-21529072D01*
X1698214Y-21557643D01*
X1669643Y-21571929D01*
X1969643Y-21757643D02*
X1983928Y-21771929D01*
X1969643Y-21786214D01*
X1955357Y-21771929D01*
X1969643Y-21757643D01*
X1969643Y-21786214D01*
X2269643Y-21786214D02*
X2098214Y-21786214D01*
X2183928Y-21786214D02*
X2183928Y-21486214D01*
X2155357Y-21529072D01*
X2126786Y-21557643D01*
X2098214Y-21571929D01*
X2455357Y-21486214D02*
X2483928Y-21486214D01*
X2512500Y-21500500D01*
X2526786Y-21514786D01*
X2541071Y-21543357D01*
X2555357Y-21600500D01*
X2555357Y-21671929D01*
X2541071Y-21729072D01*
X2526786Y-21757643D01*
X2512500Y-21771929D01*
X2483928Y-21786214D01*
X2455357Y-21786214D01*
X2426786Y-21771929D01*
X2412500Y-21757643D01*
X2398214Y-21729072D01*
X2383928Y-21671929D01*
X2383928Y-21600500D01*
X2398214Y-21543357D01*
X2412500Y-21514786D01*
X2426786Y-21500500D01*
X2455357Y-21486214D01*
X2741071Y-21486214D02*
X2769643Y-21486214D01*
X2798214Y-21500500D01*
X2812500Y-21514786D01*
X2826786Y-21543357D01*
X2841071Y-21600500D01*
X2841071Y-21671929D01*
X2826786Y-21729072D01*
X2812500Y-21757643D01*
X2798214Y-21771929D01*
X2769643Y-21786214D01*
X2741071Y-21786214D01*
X2712500Y-21771929D01*
X2698214Y-21757643D01*
X2683928Y-21729072D01*
X2669643Y-21671929D01*
X2669643Y-21600500D01*
X2683928Y-21543357D01*
X2698214Y-21514786D01*
X2712500Y-21500500D01*
X2741071Y-21486214D01*
X2969643Y-21786214D02*
X2969643Y-21586214D01*
X2969643Y-21614786D02*
X2983928Y-21600500D01*
X3012500Y-21586214D01*
X3055357Y-21586214D01*
X3083928Y-21600500D01*
X3098214Y-21629072D01*
X3098214Y-21786214D01*
X3098214Y-21629072D02*
X3112500Y-21600500D01*
X3141071Y-21586214D01*
X3183928Y-21586214D01*
X3212500Y-21600500D01*
X3226786Y-21629072D01*
X3226786Y-21786214D01*
X3369643Y-21786214D02*
X3369643Y-21586214D01*
X3369643Y-21614786D02*
X3383928Y-21600500D01*
X3412500Y-21586214D01*
X3455357Y-21586214D01*
X3483928Y-21600500D01*
X3498214Y-21629072D01*
X3498214Y-21786214D01*
X3498214Y-21629072D02*
X3512500Y-21600500D01*
X3541071Y-21586214D01*
X3583928Y-21586214D01*
X3612500Y-21600500D01*
X3626786Y-21629072D01*
X3626786Y-21786214D01*
X4212500Y-21471929D02*
X3955357Y-21857643D01*
X4598214Y-21486214D02*
X4626786Y-21486214D01*
X4655357Y-21500500D01*
X4669643Y-21514786D01*
X4683928Y-21543357D01*
X4698214Y-21600500D01*
X4698214Y-21671929D01*
X4683928Y-21729072D01*
X4669643Y-21757643D01*
X4655357Y-21771929D01*
X4626786Y-21786214D01*
X4598214Y-21786214D01*
X4569643Y-21771929D01*
X4555357Y-21757643D01*
X4541071Y-21729072D01*
X4526786Y-21671929D01*
X4526786Y-21600500D01*
X4541071Y-21543357D01*
X4555357Y-21514786D01*
X4569643Y-21500500D01*
X4598214Y-21486214D01*
X4826786Y-21757643D02*
X4841071Y-21771929D01*
X4826786Y-21786214D01*
X4812500Y-21771929D01*
X4826786Y-21757643D01*
X4826786Y-21786214D01*
X5026786Y-21486214D02*
X5055357Y-21486214D01*
X5083928Y-21500500D01*
X5098214Y-21514786D01*
X5112500Y-21543357D01*
X5126786Y-21600500D01*
X5126786Y-21671929D01*
X5112500Y-21729072D01*
X5098214Y-21757643D01*
X5083928Y-21771929D01*
X5055357Y-21786214D01*
X5026786Y-21786214D01*
X4998214Y-21771929D01*
X4983928Y-21757643D01*
X4969643Y-21729072D01*
X4955357Y-21671929D01*
X4955357Y-21600500D01*
X4969643Y-21543357D01*
X4983928Y-21514786D01*
X4998214Y-21500500D01*
X5026786Y-21486214D01*
X5383928Y-21586214D02*
X5383928Y-21786214D01*
X5312500Y-21471929D02*
X5241071Y-21686214D01*
X5426786Y-21686214D01*
X5512500Y-21486214D02*
X5698214Y-21486214D01*
X5598214Y-21600500D01*
X5641071Y-21600500D01*
X5669643Y-21614786D01*
X5683928Y-21629072D01*
X5698214Y-21657643D01*
X5698214Y-21729072D01*
X5683928Y-21757643D01*
X5669643Y-21771929D01*
X5641071Y-21786214D01*
X5555357Y-21786214D01*
X5526786Y-21771929D01*
X5512500Y-21757643D01*
X5798214Y-21486214D02*
X5983928Y-21486214D01*
X5883928Y-21600500D01*
X5926786Y-21600500D01*
X5955357Y-21614786D01*
X5969643Y-21629072D01*
X5983928Y-21657643D01*
X5983928Y-21729072D01*
X5969643Y-21757643D01*
X5955357Y-21771929D01*
X5926786Y-21786214D01*
X5841071Y-21786214D01*
X5812500Y-21771929D01*
X5798214Y-21757643D01*
X6098214Y-21486214D02*
X6098214Y-21543357D01*
X6212500Y-21486214D02*
X6212500Y-21543357D01*
X6655357Y-21900500D02*
X6641071Y-21886214D01*
X6612500Y-21843357D01*
X6598214Y-21814786D01*
X6583928Y-21771929D01*
X6569643Y-21700500D01*
X6569643Y-21643357D01*
X6583928Y-21571929D01*
X6598214Y-21529072D01*
X6612500Y-21500500D01*
X6641071Y-21457643D01*
X6655357Y-21443357D01*
X6898214Y-21486214D02*
X6841071Y-21486214D01*
X6812500Y-21500500D01*
X6798214Y-21514786D01*
X6769643Y-21557643D01*
X6755357Y-21614786D01*
X6755357Y-21729072D01*
X6769643Y-21757643D01*
X6783928Y-21771929D01*
X6812500Y-21786214D01*
X6869643Y-21786214D01*
X6898214Y-21771929D01*
X6912500Y-21757643D01*
X6926786Y-21729072D01*
X6926786Y-21657643D01*
X6912500Y-21629072D01*
X6898214Y-21614786D01*
X6869643Y-21600500D01*
X6812500Y-21600500D01*
X6783928Y-21614786D01*
X6769643Y-21629072D01*
X6755357Y-21657643D01*
X7283928Y-21786214D02*
X7283928Y-21486214D01*
X7412500Y-21786214D02*
X7412500Y-21629072D01*
X7398214Y-21600500D01*
X7369643Y-21586214D01*
X7326786Y-21586214D01*
X7298214Y-21600500D01*
X7283928Y-21614786D01*
X7598214Y-21786214D02*
X7569643Y-21771929D01*
X7555357Y-21757643D01*
X7541071Y-21729072D01*
X7541071Y-21643357D01*
X7555357Y-21614786D01*
X7569643Y-21600500D01*
X7598214Y-21586214D01*
X7641071Y-21586214D01*
X7669643Y-21600500D01*
X7683928Y-21614786D01*
X7698214Y-21643357D01*
X7698214Y-21729072D01*
X7683928Y-21757643D01*
X7669643Y-21771929D01*
X7641071Y-21786214D01*
X7598214Y-21786214D01*
X7869643Y-21786214D02*
X7841071Y-21771929D01*
X7826786Y-21743357D01*
X7826786Y-21486214D01*
X8098214Y-21771929D02*
X8069643Y-21786214D01*
X8012500Y-21786214D01*
X7983928Y-21771929D01*
X7969643Y-21743357D01*
X7969643Y-21629072D01*
X7983928Y-21600500D01*
X8012500Y-21586214D01*
X8069643Y-21586214D01*
X8098214Y-21600500D01*
X8112500Y-21629072D01*
X8112500Y-21657643D01*
X7969643Y-21686214D01*
X8226786Y-21771929D02*
X8255357Y-21786214D01*
X8312500Y-21786214D01*
X8341071Y-21771929D01*
X8355357Y-21743357D01*
X8355357Y-21729072D01*
X8341071Y-21700500D01*
X8312500Y-21686214D01*
X8269643Y-21686214D01*
X8241071Y-21671929D01*
X8226786Y-21643357D01*
X8226786Y-21629072D01*
X8241071Y-21600500D01*
X8269643Y-21586214D01*
X8312500Y-21586214D01*
X8341071Y-21600500D01*
X8455357Y-21900500D02*
X8469643Y-21886214D01*
X8498214Y-21843357D01*
X8512500Y-21814786D01*
X8526786Y-21771929D01*
X8541071Y-21700500D01*
X8541071Y-21643357D01*
X8526786Y-21571929D01*
X8512500Y-21529072D01*
X8498214Y-21500500D01*
X8469643Y-21457643D01*
X8455357Y-21443357D01*
X1197500Y-22246500D02*
X1397500Y-22046500D01*
X1197500Y-21846500D01*
X997500Y-22046500D01*
X1197500Y-22246500D01*
X1812500Y-21982214D02*
X1812500Y-22182214D01*
X1741071Y-21867929D02*
X1669643Y-22082214D01*
X1855357Y-22082214D01*
X1969643Y-22153643D02*
X1983928Y-22167929D01*
X1969643Y-22182214D01*
X1955357Y-22167929D01*
X1969643Y-22153643D01*
X1969643Y-22182214D01*
X2169643Y-21882214D02*
X2198214Y-21882214D01*
X2226786Y-21896500D01*
X2241071Y-21910786D01*
X2255357Y-21939357D01*
X2269643Y-21996500D01*
X2269643Y-22067929D01*
X2255357Y-22125072D01*
X2241071Y-22153643D01*
X2226786Y-22167929D01*
X2198214Y-22182214D01*
X2169643Y-22182214D01*
X2141071Y-22167929D01*
X2126786Y-22153643D01*
X2112500Y-22125072D01*
X2098214Y-22067929D01*
X2098214Y-21996500D01*
X2112500Y-21939357D01*
X2126786Y-21910786D01*
X2141071Y-21896500D01*
X2169643Y-21882214D01*
X2455357Y-21882214D02*
X2483928Y-21882214D01*
X2512500Y-21896500D01*
X2526786Y-21910786D01*
X2541071Y-21939357D01*
X2555357Y-21996500D01*
X2555357Y-22067929D01*
X2541071Y-22125072D01*
X2526786Y-22153643D01*
X2512500Y-22167929D01*
X2483928Y-22182214D01*
X2455357Y-22182214D01*
X2426786Y-22167929D01*
X2412500Y-22153643D01*
X2398214Y-22125072D01*
X2383928Y-22067929D01*
X2383928Y-21996500D01*
X2398214Y-21939357D01*
X2412500Y-21910786D01*
X2426786Y-21896500D01*
X2455357Y-21882214D01*
X2741071Y-21882214D02*
X2769643Y-21882214D01*
X2798214Y-21896500D01*
X2812500Y-21910786D01*
X2826786Y-21939357D01*
X2841071Y-21996500D01*
X2841071Y-22067929D01*
X2826786Y-22125072D01*
X2812500Y-22153643D01*
X2798214Y-22167929D01*
X2769643Y-22182214D01*
X2741071Y-22182214D01*
X2712500Y-22167929D01*
X2698214Y-22153643D01*
X2683928Y-22125072D01*
X2669643Y-22067929D01*
X2669643Y-21996500D01*
X2683928Y-21939357D01*
X2698214Y-21910786D01*
X2712500Y-21896500D01*
X2741071Y-21882214D01*
X2969643Y-22182214D02*
X2969643Y-21982214D01*
X2969643Y-22010786D02*
X2983928Y-21996500D01*
X3012500Y-21982214D01*
X3055357Y-21982214D01*
X3083928Y-21996500D01*
X3098214Y-22025072D01*
X3098214Y-22182214D01*
X3098214Y-22025072D02*
X3112500Y-21996500D01*
X3141071Y-21982214D01*
X3183928Y-21982214D01*
X3212500Y-21996500D01*
X3226786Y-22025072D01*
X3226786Y-22182214D01*
X3369643Y-22182214D02*
X3369643Y-21982214D01*
X3369643Y-22010786D02*
X3383928Y-21996500D01*
X3412500Y-21982214D01*
X3455357Y-21982214D01*
X3483928Y-21996500D01*
X3498214Y-22025072D01*
X3498214Y-22182214D01*
X3498214Y-22025072D02*
X3512500Y-21996500D01*
X3541071Y-21982214D01*
X3583928Y-21982214D01*
X3612500Y-21996500D01*
X3626786Y-22025072D01*
X3626786Y-22182214D01*
X4212500Y-21867929D02*
X3955357Y-22253643D01*
X4598214Y-21882214D02*
X4626786Y-21882214D01*
X4655357Y-21896500D01*
X4669643Y-21910786D01*
X4683928Y-21939357D01*
X4698214Y-21996500D01*
X4698214Y-22067929D01*
X4683928Y-22125072D01*
X4669643Y-22153643D01*
X4655357Y-22167929D01*
X4626786Y-22182214D01*
X4598214Y-22182214D01*
X4569643Y-22167929D01*
X4555357Y-22153643D01*
X4541071Y-22125072D01*
X4526786Y-22067929D01*
X4526786Y-21996500D01*
X4541071Y-21939357D01*
X4555357Y-21910786D01*
X4569643Y-21896500D01*
X4598214Y-21882214D01*
X4826786Y-22153643D02*
X4841071Y-22167929D01*
X4826786Y-22182214D01*
X4812500Y-22167929D01*
X4826786Y-22153643D01*
X4826786Y-22182214D01*
X5126786Y-22182214D02*
X4955357Y-22182214D01*
X5041071Y-22182214D02*
X5041071Y-21882214D01*
X5012500Y-21925072D01*
X4983928Y-21953643D01*
X4955357Y-21967929D01*
X5398214Y-21882214D02*
X5255357Y-21882214D01*
X5241071Y-22025072D01*
X5255357Y-22010786D01*
X5283928Y-21996500D01*
X5355357Y-21996500D01*
X5383928Y-22010786D01*
X5398214Y-22025072D01*
X5412500Y-22053643D01*
X5412500Y-22125072D01*
X5398214Y-22153643D01*
X5383928Y-22167929D01*
X5355357Y-22182214D01*
X5283928Y-22182214D01*
X5255357Y-22167929D01*
X5241071Y-22153643D01*
X5512500Y-21882214D02*
X5712500Y-21882214D01*
X5583928Y-22182214D01*
X5969643Y-21882214D02*
X5826786Y-21882214D01*
X5812500Y-22025072D01*
X5826786Y-22010786D01*
X5855357Y-21996500D01*
X5926786Y-21996500D01*
X5955357Y-22010786D01*
X5969643Y-22025072D01*
X5983928Y-22053643D01*
X5983928Y-22125072D01*
X5969643Y-22153643D01*
X5955357Y-22167929D01*
X5926786Y-22182214D01*
X5855357Y-22182214D01*
X5826786Y-22167929D01*
X5812500Y-22153643D01*
X6098214Y-21882214D02*
X6098214Y-21939357D01*
X6212500Y-21882214D02*
X6212500Y-21939357D01*
X6655357Y-22296500D02*
X6641071Y-22282214D01*
X6612500Y-22239357D01*
X6598214Y-22210786D01*
X6583928Y-22167929D01*
X6569643Y-22096500D01*
X6569643Y-22039357D01*
X6583928Y-21967929D01*
X6598214Y-21925072D01*
X6612500Y-21896500D01*
X6641071Y-21853643D01*
X6655357Y-21839357D01*
X6755357Y-21910786D02*
X6769643Y-21896500D01*
X6798214Y-21882214D01*
X6869643Y-21882214D01*
X6898214Y-21896500D01*
X6912500Y-21910786D01*
X6926786Y-21939357D01*
X6926786Y-21967929D01*
X6912500Y-22010786D01*
X6741071Y-22182214D01*
X6926786Y-22182214D01*
X7283928Y-22182214D02*
X7283928Y-21882214D01*
X7412500Y-22182214D02*
X7412500Y-22025072D01*
X7398214Y-21996500D01*
X7369643Y-21982214D01*
X7326786Y-21982214D01*
X7298214Y-21996500D01*
X7283928Y-22010786D01*
X7598214Y-22182214D02*
X7569643Y-22167929D01*
X7555357Y-22153643D01*
X7541071Y-22125072D01*
X7541071Y-22039357D01*
X7555357Y-22010786D01*
X7569643Y-21996500D01*
X7598214Y-21982214D01*
X7641071Y-21982214D01*
X7669643Y-21996500D01*
X7683928Y-22010786D01*
X7698214Y-22039357D01*
X7698214Y-22125072D01*
X7683928Y-22153643D01*
X7669643Y-22167929D01*
X7641071Y-22182214D01*
X7598214Y-22182214D01*
X7869643Y-22182214D02*
X7841071Y-22167929D01*
X7826786Y-22139357D01*
X7826786Y-21882214D01*
X8098214Y-22167929D02*
X8069643Y-22182214D01*
X8012500Y-22182214D01*
X7983928Y-22167929D01*
X7969643Y-22139357D01*
X7969643Y-22025072D01*
X7983928Y-21996500D01*
X8012500Y-21982214D01*
X8069643Y-21982214D01*
X8098214Y-21996500D01*
X8112500Y-22025072D01*
X8112500Y-22053643D01*
X7969643Y-22082214D01*
X8226786Y-22167929D02*
X8255357Y-22182214D01*
X8312500Y-22182214D01*
X8341071Y-22167929D01*
X8355357Y-22139357D01*
X8355357Y-22125072D01*
X8341071Y-22096500D01*
X8312500Y-22082214D01*
X8269643Y-22082214D01*
X8241071Y-22067929D01*
X8226786Y-22039357D01*
X8226786Y-22025072D01*
X8241071Y-21996500D01*
X8269643Y-21982214D01*
X8312500Y-21982214D01*
X8341071Y-21996500D01*
X8455357Y-22296500D02*
X8469643Y-22282214D01*
X8498214Y-22239357D01*
X8512500Y-22210786D01*
X8526786Y-22167929D01*
X8541071Y-22096500D01*
X8541071Y-22039357D01*
X8526786Y-21967929D01*
X8512500Y-21925072D01*
X8498214Y-21896500D01*
X8469643Y-21853643D01*
X8455357Y-21839357D01*
M02*
